<svg height="512pt" viewBox="0 -16 512 512" width="512pt" xmlns="http://www.w3.org/2000/svg"><path d="m467 90h-77.347656c-9.382813-52.058594-66.773438-90-133.652344-90-67.597656 0-124.359375 38.4375-133.652344 90h-77.347656c-24.8125 0-45 20.1875-45 45v330c0 8.285156 6.714844 15 15 15h482c8.285156 0 15-6.714844 15-15 0-16.449219 0-327.273438 0-330 0-24.8125-20.1875-45-45-45zm-211-60c51.050781 0 93.121094 26.304688 102.855469 60h-205.710938c9.703125-33.59375 51.652344-60 102.855469-60zm-226 105c0-8.269531 6.730469-15 15-15h422c8.269531 0 15 6.730469 15 15v108.550781c-18.484375 4.839844-38.910156 9.128907-61 12.8125v-1.363281c0-8.285156-6.714844-15-15-15h-60c-8.285156 0-15 6.714844-15 15v11.832031c-49.34375 3.414063-100.65625 3.414063-150 0v-11.832031c0-8.285156-6.714844-15-15-15h-60c-8.285156 0-15 6.714844-15 15v1.367188c-22.089844-3.6875-42.515625-7.976563-61-12.8125zm361 135v60h-30v-60zm-240 0v60h-30v-60zm-121 180v-175.496094c18.71875 4.628906 39.121094 8.738282 61 12.265625v58.230469c0 8.285156 6.714844 15 15 15h60c8.285156 0 15-6.714844 15-15v-48.101562c24.691406 1.660156 49.839844 2.503906 75 2.503906s50.308594-.84375 75-2.503906v48.101562c0 8.285156 6.714844 15 15 15h60c8.285156 0 15-6.714844 15-15v-58.230469c21.878906-3.527343 42.28125-7.636719 61-12.265625v175.496094zm0 0"/></svg>