<svg xmlns="http://www.w3.org/2000/svg" viewBox="0 0 76.581 72.38">
  <defs>
    <style>
      .cls-1 {
        fill: #444;
      }
    </style>
  </defs>
  <g id="Group_42" data-name="Group 42" transform="translate(0.1 -0.031)">
    <path id="Path_129" data-name="Path 129" class="cls-1" d="M301.078,151.454V175.06h-4.356a5.02,5.02,0,0,0,1.358-3.263c.016-5.746.031-11.507,0-17.252A4.763,4.763,0,0,0,294.661,150a4.875,4.875,0,0,0-6.339,4.809c-.016,4.45,0,8.9,0,13.349v.952c-.812-.047-1.514-.094-2.217-.14-4.044-.3-8.087-.625-12.147-.859a3.607,3.607,0,0,0-3.934,3.778c-.016,7.728-.031,15.457.031,23.185a4.337,4.337,0,0,0,.749,2.233,3.433,3.433,0,0,0,4.012,1.28,3.583,3.583,0,0,0,2.545-3.45c.016-6.167,0-12.334,0-18.5v-1.046c.937.062,1.749.125,2.654.187v22.389h3.263V178.448H301.2V198.23h3.216V151.454Z" transform="translate(-227.939 -126.369)"/>
    <path id="Path_130" data-name="Path 130" class="cls-1" d="M30.251,168.025c-3.091.109-6.183.3-9.274.39-1.655.062-3.31.016-5.043.016v-13.6a5.065,5.065,0,0,0-1.093-3.341,4.891,4.891,0,0,0-8.681,3.091c-.016,5.667-.016,11.351,0,17.018a4.845,4.845,0,0,0,.968,2.9c.109.156.2.312.312.484H3.116V151.351H-.1v46.792H3.163V178.361H21.04v19.8H24.3V175.519h2.623v19.219a3.721,3.721,0,0,0,3.716,3.966,3.622,3.622,0,0,0,3.638-3.919V171.913A3.584,3.584,0,0,0,30.251,168.025Z" transform="translate(0 -126.298)"/>
    <path id="Path_131" data-name="Path 131" class="cls-1" d="M151.665,15.81c-.671,1.046-1.374,2.123-2.092,3.216.125.031.187.062.219.047,3.138-.843,6.292-1.577,9.383-2.545A8.373,8.373,0,0,0,164.842,8.1a8.526,8.526,0,1,0-14.91,6.12C150.447,14.78,151.04,15.248,151.665,15.81Zm8.7-8.712a1.28,1.28,0,1,1-1.3,1.28A1.289,1.289,0,0,1,160.361,7.1Zm-4.028,0a1.28,1.28,0,1,1-1.28,1.343A1.465,1.465,0,0,1,156.333,7.1Zm-4.028,0a1.281,1.281,0,1,1,.078,2.56,1.236,1.236,0,0,1-1.265-1.2A1.212,1.212,0,0,1,152.3,7.1Z" transform="translate(-124.833)"/>
    <path id="Path_132" data-name="Path 132" class="cls-1" d="M127.2,221.666h36.768V217.7H127.2Z" transform="translate(-107.425 -183.685)"/>
    <path id="Path_133" data-name="Path 133" class="cls-1" d="M62.12,72.518A6.159,6.159,0,1,0,56,66.32,6.177,6.177,0,0,0,62.12,72.518Z" transform="translate(-47.341 -50.775)"/>
    <path id="Path_134" data-name="Path 134" class="cls-1" d="M361.087,72.517A6.16,6.16,0,1,0,355,66.288,6.177,6.177,0,0,0,361.087,72.517Z" transform="translate(-299.658 -50.774)"/>
  </g>
</svg>
