<svg xmlns="http://www.w3.org/2000/svg" viewBox="0 0 83.579 71.747">
  <defs>
    <style>
      .cls-1 {
        fill: #444;
      }
    </style>
  </defs>
  <g id="Group_41" data-name="Group 41" transform="translate(-0.1 -0.012)">
    <path id="Path_145" data-name="Path 145" class="cls-1" d="M211.774,360.312h-6.042c-1.269,0-1.74.483-1.74,1.752v16.52H157.162V362.234c0-1.5-.435-1.922-1.946-1.934h-5.68c-1.354,0-1.837.5-1.837,1.861v26.345h9.426c.012-.677.048-1.366.036-2.042,0-.326.1-.5.447-.459.121.012.242,0,.363,0h46.044v2.5h9.426V361.98A1.469,1.469,0,0,0,211.774,360.312Zm.06,3.48v22.768H205.7v-2.514h-50.43V386.5h-5.789V363.732c0-1.088.5-1.571,1.559-1.571h2.84a1.319,1.319,0,0,1,1.39,1.39c.012,1,0,2.018,0,3.021v13.91h50.394v-16.6c0-1.148.459-1.619,1.583-1.619h3.2a1.36,1.36,0,0,1,1.378,1.293A.834.834,0,0,1,211.835,363.793Z" transform="translate(-129.763 -316.747)"/>
    <path id="Path_146" data-name="Path 146" class="cls-1" d="M284.734,458.1H241.7v5.088h43.034Zm-2.586,3.408H244.262v-1.692h37.886Z" transform="translate(-212.403 -402.728)"/>
    <path id="Path_147" data-name="Path 147" class="cls-1" d="M426.3,284.185v18.067h20.677V284.161c0-1.329-.532-1.861-1.873-1.861H428.2C426.8,282.312,426.3,282.8,426.3,284.185Zm3.36.121h13.946c1.076,0,1.535.459,1.535,1.559v12.979c0,.955-.435,1.414-1.4,1.414-2.381.012-4.749,0-7.13,0H429.66c-1.148,0-1.547-.411-1.547-1.571V285.829C428.113,284.741,428.56,284.306,429.66,284.306Z" transform="translate(-374.694 -248.173)"/>
    <path id="Path_148" data-name="Path 148" class="cls-1" d="M261.077,301.784V284.152c0-1.208-.544-1.752-1.789-1.752H242.2c-1.257,0-1.8.544-1.8,1.8v17.511c0,.206.024.423.024.641h20.617A5.114,5.114,0,0,0,261.077,301.784Zm-3.215-1.438H243.723c-1.184,0-1.607-.423-1.607-1.583v-12.81c0-1.124.447-1.559,1.583-1.559h14.139c1.076,0,1.547.471,1.547,1.535V298.8C259.385,299.9,258.95,300.346,257.863,300.346Z" transform="translate(-211.26 -248.261)"/>
    <path id="Path_149" data-name="Path 149" class="cls-1" d="M8.475,63.517c0-14.212-.048-28.424.012-42.636.036-8.339,6.49-16.423,14.889-17.8A61.9,61.9,0,0,1,38.7,2.766c5.752.52,10.212,5.837,10.623,11.614-.967,0-1.922-.036-2.876,0-2.61.1-4.822,1.16-5.777,3.577a80.385,80.385,0,0,0-2.344,8.157h24.69c-.64-2.453-1.16-4.774-1.849-7.058a6.357,6.357,0,0,0-6.308-4.689c-.991-.012-1.994,0-2.949,0-.133-.556-.23-.918-.3-1.281C50.24,5.957,45.358,1.147,38.047.277A78.482,78.482,0,0,0,27.787.083,21.49,21.49,0,0,0,6.167,21.667q-.018,20.448,0,40.9v2.079H.1v7.046H14.554V64.52H8.547C8.511,64.049,8.475,63.783,8.475,63.517Z" transform="translate(0 0)"/>
    <rect id="Rectangle_74" data-name="Rectangle 74" class="cls-1" width="39" height="3" transform="translate(31.09 56.579)"/>
  </g>
</svg>
