<svg id="Group_39" data-name="Group 39" xmlns="http://www.w3.org/2000/svg" viewBox="0 0 65.403 71.985">
  <defs>
    <style>
      .cls-1 {
        fill: #444;
      }
    </style>
  </defs>
  <path id="Path_135" data-name="Path 135" class="cls-1" d="M259.862,233.976a12.406,12.406,0,1,0-24.748,1.71c.466,6.39,6.528,11.692,12.831,11.225A12.3,12.3,0,0,0,259.862,233.976Zm-4.611-1.744a45.337,45.337,0,0,0-7.754,9.637,1.583,1.583,0,0,1-2.867.138q-2.461-3.264-4.887-6.562c-.743-1-.674-1.882.138-2.5.76-.57,1.692-.345,2.435.622,1.174,1.554,2.331,3.126,3.506,4.68,1.658-2.021,3.247-3.989,4.87-5.906.725-.846,1.554-1.606,2.366-2.383a1.61,1.61,0,0,1,2.314-.086A1.589,1.589,0,0,1,255.251,232.232Z" transform="translate(-194.478 -183.808)"/>
  <path id="Path_136" data-name="Path 136" class="cls-1" d="M54.158,111.8a1.36,1.36,0,0,0-.812.553,3.547,3.547,0,0,1-3.333,2.038H6.752a3.463,3.463,0,0,1-3.661-3.7V61.825A3.513,3.513,0,0,1,6.839,58.1c1.779-.017,3.575,0,5.354,0h.933v-2.97a1.567,1.567,0,0,0-.363-.086c-2.107,0-4.214-.086-6.3.017A6.55,6.55,0,0,0,0,61.946v48.7a6.622,6.622,0,0,0,6.873,6.839q21.5,0,43-.017a8.873,8.873,0,0,0,2.763-.5,6.147,6.147,0,0,0,3.972-5.492C55.747,111.58,54.952,111.649,54.158,111.8Z" transform="translate(0 -45.506)"/>
  <path id="Path_137" data-name="Path 137" class="cls-1" d="M96.9,14.109h20.119a1.663,1.663,0,0,0,1.882-1.848c.017-2.107.017-4.2,0-6.3A1.623,1.623,0,0,0,117.04,4.11c-1.347-.017-2.711.035-4.058-.035a1.118,1.118,0,0,1-.794-.535A5.518,5.518,0,0,0,106.937,0a5.382,5.382,0,0,0-5.3,3.558.779.779,0,0,1-.9.553q-1.943-.026-3.886,0c-1.416,0-1.951.518-1.951,1.917v6.131C94.9,13.591,95.453,14.109,96.9,14.109Zm10-11.035a2.573,2.573,0,0,1,0,5.146A2.635,2.635,0,0,1,104.277,5.6,2.639,2.639,0,0,1,106.9,3.074Z" transform="translate(-78.511)"/>
  <path id="Path_138" data-name="Path 138" class="cls-1" d="M258.51,58.215c2.677,0,4.093,1.416,4.093,4.11v18.41c1.071.155,2.021.276,3,.414a3.266,3.266,0,0,0,.052-.5c0-6.321.052-12.659-.017-18.979a6.4,6.4,0,0,0-5.975-6.424c-1.71-.155-3.454-.069-5.164-.086h-2v3.074C254.538,58.215,256.524,58.215,258.51,58.215Z" transform="translate(-208.894 -45.626)"/>
  <path id="Path_139" data-name="Path 139" class="cls-1" d="M101.473,194.753c.017-.743-.57-.915-1.209-.881H69.714c-.259,0-.587-.086-.76.052a1.5,1.5,0,0,0-.656.863c-.017.242.38.57.656.743.19.121.5.035.76.035h30.533C100.885,195.565,101.455,195.444,101.473,194.753Z" transform="translate(-56.502 -160.369)"/>
  <path id="Path_140" data-name="Path 140" class="cls-1" d="M68.922,132.133c-.276.19-.622.518-.622.777,0,.276.363.6.639.76a1.936,1.936,0,0,0,.846.052H99.921a1.936,1.936,0,0,0,.846-.052c.294-.155.656-.484.674-.76.017-.259-.345-.6-.622-.794-.173-.121-.5-.069-.76-.069H69.664C69.423,132.082,69.112,132.013,68.922,132.133Z" transform="translate(-56.505 -109.234)"/>
  <path id="Path_141" data-name="Path 141" class="cls-1" d="M94.647,255.826H69.537c-.173,0-.4-.052-.5.035-.259.224-.622.5-.639.777-.017.259.328.622.6.777a2.451,2.451,0,0,0,1.019.086H93.49c1.382,0,1.485-.1,1.744-1.623C95.044,255.861,94.854,255.826,94.647,255.826Z" transform="translate(-56.585 -211.633)"/>
  <path id="Path_142" data-name="Path 142" class="cls-1" d="M93.111,317.657H69.9c-.259,0-.57-.086-.76.035-.311.19-.76.535-.743.76.035.328.432.622.743.863.121.1.4.035.587.035H94.976C94.613,317.657,94.613,317.657,93.111,317.657Z" transform="translate(-56.585 -262.774)"/>
</svg>
