<svg id="Group_40" data-name="Group 40" xmlns="http://www.w3.org/2000/svg" viewBox="0 0 72.338 72.333">
  <defs>
    <style>
      .cls-1 {
        fill: #444;
      }
    </style>
  </defs>
  <path id="Path_143" data-name="Path 143" class="cls-1" d="M68.262,14.3a7.039,7.039,0,0,0,1.87-6.01,6.89,6.89,0,0,0-2.471-4.406,7,7,0,0,0-5.73-1.613A7.224,7.224,0,0,0,57.813,4.4q-9.743,9.757-19.5,19.5a2.407,2.407,0,0,0-.205.289Q25.953,12.039,13.918,0L0,13.918q12.058,12.051,24.2,24.2a2.117,2.117,0,0,0-.3.2q-9.127,9.12-18.25,18.245a1.881,1.881,0,0,0-.532.858q-1.455,5.462-2.9,10.92a1.471,1.471,0,0,0,1.865,1.832l10.869-2.9a1.723,1.723,0,0,0,.811-.471Q41.482,41.083,67.2,15.368C67.554,15.014,67.922,14.669,68.262,14.3Zm-64.005-.41L13.89,4.252,16.268,6.63c-.6.6-1.226,1.222-1.832,1.828.718.718,1.413,1.422,2.117,2.126.606-.611,1.226-1.231,1.823-1.828.779.783,1.543,1.543,2.3,2.3-1.077,1.077-2.2,2.2-3.306,3.3.737.737,1.441,1.436,2.15,2.15l3.315-3.315c.779.779,1.543,1.539,2.331,2.327-.615.615-1.236,1.231-1.837,1.837.7.7,1.408,1.4,2.126,2.126.606-.606,1.226-1.236,1.837-1.846.779.774,1.539,1.539,2.3,2.3-1.105,1.105-2.219,2.219-3.315,3.311.718.718,1.417,1.422,2.131,2.131,1.086-1.086,2.205-2.205,3.315-3.32.783.788,1.548,1.548,2.327,2.327-.615.615-1.24,1.24-1.87,1.865.634.629,1.254,1.25,1.851,1.842l-7.787,7.787ZM13.923,64.4,8,58.471Q33.406,33.061,58.83,7.642l5.926,5.926Q39.353,38.964,13.923,64.4Z"/>
  <path id="Path_144" data-name="Path 144" class="cls-1" d="M777.967,762.8l-3.9,4.043c.657.657,1.352,1.357,2.075,2.08.6-.616,1.222-1.245,1.818-1.86.783.783,1.548,1.548,2.341,2.336-1.11,1.105-2.229,2.224-3.306,3.3.7.709,1.408,1.408,2.135,2.14,1.091-1.091,2.2-2.205,3.292-3.292.755.755,1.515,1.52,2.308,2.308-.606.606-1.231,1.226-1.823,1.818.7.7,1.4,1.4,2.145,2.15.6-.606,1.226-1.226,1.814-1.818l2.28,2.28c-1.1,1.1-2.21,2.21-3.32,3.315l2.131,2.131c1.105-1.105,2.224-2.229,3.325-3.325l2.327,2.327c-.611.606-1.236,1.231-1.846,1.842l2.136,2.135c.611-.625,1.226-1.264,1.832-1.879.322.317.62.615.9.891l-9.7,9.7-20.745-20.7c-.709.7-1.394,1.385-2.084,2.065q11.442,11.394,22.871,22.782c4.607-4.6,9.237-9.223,13.839-13.82Q789.424,774.3,777.967,762.8Z" transform="translate(-728.472 -727.233)"/>
</svg>
