<svg id="XMLID_1_" xmlns="http://www.w3.org/2000/svg" viewBox="0 0 17.014 17.014">
  <defs>
    <style>
      .cls-1 {
        fill: #888;
      }
    </style>
  </defs>
  <path id="XMLID_4_" class="cls-1" d="M16.567,2.932a4.158,4.158,0,0,0-.98-1.506,4.158,4.158,0,0,0-1.506-.98A6.208,6.208,0,0,0,12.018.053C11.111.013,10.821,0,8.507,0S5.9.007,5,.053A6.172,6.172,0,0,0,2.932.447a4.158,4.158,0,0,0-1.506.98,4.158,4.158,0,0,0-.98,1.506A6.208,6.208,0,0,0,.053,5C.013,5.9,0,6.193,0,8.507s.007,2.6.053,3.511a6.172,6.172,0,0,0,.394,2.064,4.158,4.158,0,0,0,.98,1.506,4.158,4.158,0,0,0,1.506.98A6.208,6.208,0,0,0,5,16.962c.907.039,1.2.053,3.511.053s2.6-.007,3.511-.053a6.173,6.173,0,0,0,2.064-.394,4.337,4.337,0,0,0,2.485-2.485,6.208,6.208,0,0,0,.394-2.064c.039-.907.053-1.2.053-3.511S17.008,5.9,16.962,5A6.172,6.172,0,0,0,16.567,2.932ZM15.43,11.946a4.65,4.65,0,0,1-.3,1.578,2.635,2.635,0,0,1-.638.98,2.663,2.663,0,0,1-.98.638,4.689,4.689,0,0,1-1.578.3c-.9.039-1.164.053-3.438.053s-2.544-.007-3.438-.053a4.65,4.65,0,0,1-1.578-.3A2.635,2.635,0,0,1,2.5,14.5a2.663,2.663,0,0,1-.638-.98,4.689,4.689,0,0,1-.3-1.578c-.039-.9-.053-1.17-.053-3.438s.007-2.544.053-3.438a4.65,4.65,0,0,1,.3-1.578,2.635,2.635,0,0,1,.638-.98,2.663,2.663,0,0,1,.98-.638,4.689,4.689,0,0,1,1.578-.3c.9-.039,1.17-.053,3.438-.053s2.544.007,3.438.053a4.65,4.65,0,0,1,1.578.3,2.635,2.635,0,0,1,.98.638,2.663,2.663,0,0,1,.638.98,4.689,4.689,0,0,1,.3,1.578c.039.9.053,1.17.053,3.438S15.469,11.052,15.43,11.946Z" transform="translate(0 0)"/>
  <path id="XMLID_3_" class="cls-1" d="M67.172,62.9a4.372,4.372,0,1,0,4.372,4.372A4.374,4.374,0,0,0,67.172,62.9Zm0,7.212a2.84,2.84,0,1,1,2.84-2.84A2.841,2.841,0,0,1,67.172,70.112Z" transform="translate(-58.671 -58.765)"/>
  <circle id="XMLID_2_" class="cls-1" cx="1.019" cy="1.019" r="1.019" transform="translate(12.025 2.945)"/>
</svg>
