<?xml version="1.0" encoding="iso-8859-1"?>
<!-- Generator: Adobe Illustrator 16.0.0, SVG Export Plug-In . SVG Version: 6.00 Build 0)  -->
<!DOCTYPE svg PUBLIC "-//W3C//DTD SVG 1.1//EN" "http://www.w3.org/Graphics/SVG/1.1/DTD/svg11.dtd">
<svg version="1.1" id="Capa_1" xmlns="http://www.w3.org/2000/svg" xmlns:xlink="http://www.w3.org/1999/xlink" x="0px" y="0px"
	 width="465.088px" height="465.088px" viewBox="0 0 465.088 465.088" style="enable-background:new 0 0 465.088 465.088;"
	 xml:space="preserve">
<g>
	<path d="M61.21,83.126C27.461,83.126,0,110.582,0,144.341c0,33.751,27.457,61.212,61.21,61.212s61.217-27.456,61.217-61.212
		C122.427,110.582,94.958,83.126,61.21,83.126z M61.21,191.091c-25.781,0-46.752-20.969-46.752-46.75
		c0-25.778,20.971-46.759,46.752-46.759c25.788,0,46.755,20.98,46.755,46.759C107.965,170.123,86.991,191.091,61.21,191.091z
		 M61.21,259.533C27.461,259.533,0,286.99,0,320.747c0,33.758,27.457,61.216,61.21,61.216s61.217-27.458,61.217-61.216
		C122.427,286.997,94.958,259.533,61.21,259.533z M61.21,367.507c-25.781,0-46.752-20.981-46.752-46.761
		C14.458,294.968,35.429,274,61.21,274c25.788,0,46.755,20.969,46.755,46.747C107.965,346.526,86.991,367.507,61.21,367.507z
		 M465.088,107.244v74.187c0,3.196-2.591,5.784-5.78,5.784H155.637c-3.187,0-5.775-2.587-5.775-5.784v-74.187
		c0-3.19,2.588-5.778,5.775-5.778h303.663C462.498,101.46,465.088,104.048,465.088,107.244z M465.088,283.659v74.184
		c0,3.195-2.591,5.777-5.78,5.777H155.637c-3.187,0-5.775-2.582-5.775-5.777v-74.184c0-3.196,2.588-5.784,5.775-5.784h303.663
		C462.498,277.875,465.088,280.462,465.088,283.659z M85.765,144.336c0,13.554-10.996,24.549-24.555,24.549
		c-13.554,0-24.548-10.996-24.548-24.549c0-13.554,10.994-24.547,24.548-24.547C74.769,119.789,85.765,130.782,85.765,144.336z
		 M85.765,320.186c0,13.558-10.996,24.545-24.555,24.545c-13.554,0-24.548-10.987-24.548-24.545c0-13.551,10.994-24.55,24.548-24.55
		C74.769,295.636,85.765,306.635,85.765,320.186z"/>
</g>
<g>
</g>
<g>
</g>
<g>
</g>
<g>
</g>
<g>
</g>
<g>
</g>
<g>
</g>
<g>
</g>
<g>
</g>
<g>
</g>
<g>
</g>
<g>
</g>
<g>
</g>
<g>
</g>
<g>
</g>
</svg>
