<svg xmlns="http://www.w3.org/2000/svg" viewBox="0 0 15.676 15.652">
  <defs>
    <style>
      .cls-1 {
        fill: #888;
      }
    </style>
  </defs>
  <g id="XMLID_1_" transform="translate(0)">
    <path id="XMLID_3_" class="cls-1" d="M.254,5.2H3.505V15.652H.254ZM1.885,0A1.885,1.885,0,1,1,0,1.885,1.888,1.888,0,0,1,1.885,0"/>
    <path id="XMLID_2_" class="cls-1" d="M91.8,82.054h3.112v1.432h.042A3.414,3.414,0,0,1,98.03,81.8c3.287,0,3.9,2.163,3.9,4.98v5.729H98.683V87.426c0-1.215-.018-2.774-1.686-2.774-1.692,0-1.946,1.323-1.946,2.683v5.173H91.806L91.8,82.054Z" transform="translate(-86.252 -76.857)"/>
  </g>
</svg>
