<svg xmlns="http://www.w3.org/2000/svg" viewBox="0 0 12.722 13.653">
  <defs>
    <style>
      .cls-1 {
        fill: #ef5350;
      }
    </style>
  </defs>
  <path id="Path_438" data-name="Path 438" class="cls-1" d="M12.413,10.551a7.186,7.186,0,0,0-1.9-1.608c-.068-.045-.158-.068-.226-.113a1.279,1.279,0,0,0-1.494.249c-.249.226-.5.453-.747.7a1.055,1.055,0,0,1-1.132.272,2.235,2.235,0,0,1-.725-.385A9.613,9.613,0,0,1,3.628,6.747a3.04,3.04,0,0,1-.272-.679,1.079,1.079,0,0,1,.453-1.291,4.918,4.918,0,0,0,.657-.543,1.314,1.314,0,0,0,.408-1.789A18.89,18.89,0,0,0,3.65.453a.781.781,0,0,0-.2-.181.9.9,0,0,0-1.291,0c-.226.181-.475.385-.7.589A4.032,4.032,0,0,0,.345,2.423a5.065,5.065,0,0,0,.023,3.69A11.888,11.888,0,0,0,2.45,9.6,14,14,0,0,0,5.8,12.679a5.871,5.871,0,0,0,3.034.974,4.149,4.149,0,0,0,2.672-.906c.272-.2.5-.453.747-.657C12.82,11.57,12.888,11.117,12.413,10.551Z" transform="translate(-0.007)"/>
</svg>
