<?xml version="1.0" encoding="UTF-8" ?>
<!DOCTYPE svg PUBLIC "-//W3C//DTD SVG 1.1//EN" "http://www.w3.org/Graphics/SVG/1.1/DTD/svg11.dtd">
<svg width="512pt" height="512pt" viewBox="0 0 512 512" version="1.1" xmlns="http://www.w3.org/2000/svg">
<g id="#333333ff">
<path fill="#333333" opacity="1.00" d=" M 247.07 21.84 C 247.53 17.32 253.21 14.43 257.11 16.86 C 277.30 28.38 297.46 39.95 317.59 51.58 C 322.14 53.96 322.12 61.25 317.54 63.60 C 298.14 74.79 278.74 86.00 259.36 97.23 C 257.40 98.33 255.34 99.69 252.99 99.37 C 249.43 99.05 246.48 95.63 246.77 92.06 C 246.87 84.08 246.74 76.11 246.86 68.14 C 209.67 69.84 173.11 82.95 143.35 105.33 C 113.60 127.47 90.78 158.65 78.47 193.61 C 74.16 185.84 69.52 178.20 65.55 170.28 C 79.70 138.34 102.39 110.36 130.18 89.25 C 163.65 63.89 204.90 48.95 246.88 47.28 C 247.02 38.80 246.73 30.31 247.07 21.84 Z" />
<path fill="#333333" opacity="1.00" d=" M 318.30 78.59 C 325.96 73.98 333.89 69.84 341.67 65.45 C 372.67 79.45 400.17 101.10 421.00 128.00 C 447.40 161.79 463.03 203.95 464.62 246.83 C 473.09 247.09 481.57 246.78 490.04 247.08 C 494.58 247.41 497.51 253.14 495.18 257.05 C 483.74 277.28 472.00 297.34 460.50 317.54 C 458.18 322.12 450.83 322.16 448.46 317.61 C 436.71 297.32 424.92 277.05 413.32 256.69 C 410.78 252.17 415.02 246.22 420.08 246.83 C 427.99 246.82 435.91 246.79 443.82 246.89 C 442.43 217.18 433.90 187.80 418.97 162.07 C 396.80 123.45 360.48 93.01 318.30 78.59 Z" />
<path fill="#333333" opacity="1.00" d=" M 51.54 194.45 C 53.18 191.42 57.21 190.11 60.33 191.55 C 63.17 192.73 64.32 195.79 65.80 198.24 C 76.62 217.05 87.51 235.81 98.32 254.62 C 101.21 258.73 98.03 265.06 93.01 265.15 C 84.72 265.19 76.42 265.20 68.13 265.12 C 69.74 298.95 80.61 332.31 99.53 360.43 C 121.89 394.12 155.46 420.15 193.62 433.51 C 185.88 437.88 178.15 442.28 170.37 446.57 C 142.16 433.85 116.82 414.80 96.82 391.18 C 66.87 356.23 49.10 311.09 47.27 265.09 C 38.83 264.99 30.37 265.22 21.93 264.91 C 17.35 264.55 14.45 258.89 16.80 254.95 C 28.29 234.73 39.93 214.60 51.54 194.45 Z" />
<path fill="#333333" opacity="1.00" d=" M 433.48 318.37 C 437.92 326.09 442.25 333.87 446.52 341.68 C 432.03 373.75 409.32 402.04 381.16 423.15 C 347.85 448.31 306.78 463.00 265.07 464.70 C 265.04 472.85 265.07 480.99 264.97 489.14 C 265.18 494.06 259.17 497.75 254.92 495.17 C 234.89 483.82 214.98 472.23 194.99 460.82 C 191.81 459.29 190.03 455.37 191.36 452.02 C 192.14 449.41 194.74 448.17 196.93 446.93 C 216.20 435.89 235.35 424.66 254.63 413.63 C 258.69 410.84 265.07 413.97 265.08 418.96 C 265.25 427.25 265.14 435.55 265.13 443.85 C 304.94 441.99 344.01 427.11 374.83 401.81 C 401.53 380.06 422.10 350.89 433.48 318.37 Z" />
</g>
</svg>
