<svg xmlns="http://www.w3.org/2000/svg" viewBox="0 0 17.361 14.124">
  <defs>
    <style>
      .cls-1 {
        fill: #888;
      }
    </style>
  </defs>
  <path id="Path_125" data-name="Path 125" class="cls-1" d="M17.661,1.672a6.94,6.94,0,0,1-2.048.561A3.57,3.57,0,0,0,17.177.263a7.208,7.208,0,0,1-2.263.866A3.562,3.562,0,0,0,8.751,3.565a3.64,3.64,0,0,0,.09.812A10.12,10.12,0,0,1,1.494.651a3.565,3.565,0,0,0,1.1,4.76A3.5,3.5,0,0,1,.987,4.963v.048A3.568,3.568,0,0,0,3.847,8.5a3.513,3.513,0,0,1-1.606.06,3.572,3.572,0,0,0,3.332,2.478,7.158,7.158,0,0,1-4.425,1.529A7.894,7.894,0,0,1,.3,12.524a10.106,10.106,0,0,0,5.464,1.6A10.079,10.079,0,0,0,15.911,3.977c0-.155-.006-.311-.012-.46A7.4,7.4,0,0,0,17.661,1.672Z" transform="translate(-0.3)"/>
</svg>
