<?xml version="1.0" standalone="no"?>
<!DOCTYPE svg PUBLIC "-//W3C//DTD SVG 20010904//EN"
 "http://www.w3.org/TR/2001/REC-SVG-20010904/DTD/svg10.dtd">
<svg version="1.0" xmlns="http://www.w3.org/2000/svg"
 width="450.000000pt" height="450.000000pt" viewBox="0 0 450.000000 450.000000"
 preserveAspectRatio="xMidYMid meet">

<g transform="translate(0.000000,450.000000) scale(0.100000,-0.100000)"
fill="#000000" stroke="none">
<path d="M467 3429 c-15 -11 -31 -37 -37 -57 -8 -26 -10 -289 -8 -850 3 -810
3 -812 -17 -812 -59 0 -95 -62 -95 -162 0 -135 42 -168 214 -168 l104 0 7 -37
c4 -21 20 -64 37 -96 102 -192 345 -254 529 -136 78 49 142 144 155 228 l7 41
882 0 883 0 12 -47 c27 -111 103 -202 208 -251 49 -23 70 -27 152 -27 84 0
102 3 154 29 105 52 172 131 199 236 l14 55 121 5 c102 4 125 8 149 26 42 31
53 61 53 144 0 81 -19 128 -59 150 -20 10 -21 19 -21 259 0 187 -3 251 -13
259 -6 6 -37 20 -67 32 -30 12 -103 42 -162 67 l-108 45 -41 76 c-157 288
-284 498 -337 555 l-26 27 -342 0 -343 0 -3 186 -3 186 -33 29 -32 29 -1054 0
c-1047 0 -1053 0 -1079 -21z m2131 -51 c9 -9 12 -204 12 -818 0 -798 0 -806
-20 -828 l-21 -22 -670 0 -670 0 -42 25 c-111 65 -235 68 -359 8 -73 -34 -73
-35 -196 -31 -109 3 -125 5 -138 22 -12 17 -14 145 -14 819 0 531 3 805 10
818 10 19 33 19 1053 19 798 0 1046 -3 1055 -12z m750 -430 c16 -16 15 -28 -3
-28 -8 0 -15 -5 -15 -12 0 -9 -3 -9 -12 0 -9 9 -73 12 -225 12 l-213 0 2 -302
3 -303 319 -3 c227 -2 323 1 332 9 10 8 14 8 14 0 0 -7 30 -11 91 -11 87 0 96
-2 227 -56 209 -85 201 -78 97 -84 -80 -4 -91 -7 -99 -26 -9 -21 -11 -21 -42
-7 -87 42 -164 -59 -101 -132 27 -33 87 -37 118 -9 19 17 19 16 19 -33 0 -29
5 -55 13 -61 7 -6 49 -12 92 -14 l80 -3 3 -87 3 -88 -161 0 c-153 0 -164 1
-203 25 -111 64 -239 68 -355 9 l-67 -34 -308 0 c-301 0 -307 0 -297 19 6 13
10 227 10 625 l0 606 333 0 c246 0 336 -3 345 -12z m-81 -86 c6 -4 53 -113
103 -242 51 -129 94 -238 96 -242 3 -5 -117 -8 -265 -8 l-271 0 0 243 c0 134
3 247 7 250 9 10 315 8 330 -1z m274 -227 c57 -99 113 -199 127 -222 l24 -43
-50 0 -51 0 -72 183 c-39 100 -82 211 -96 247 -21 59 -22 63 -4 40 11 -14 66
-106 122 -205z m509 -605 l0 -90 -65 0 -65 0 0 90 0 90 65 0 65 0 0 -90z
m-237 46 c8 -21 -17 -50 -37 -43 -16 6 -22 38 -9 50 11 12 41 7 46 -7z m-2679
-380 c109 -53 170 -152 171 -276 0 -175 -120 -300 -296 -308 -67 -4 -85 0
-137 23 -68 30 -120 79 -154 145 -17 34 -24 65 -26 130 -4 80 -2 89 30 150 78
151 258 211 412 136z m2507 -2 c217 -119 224 -424 13 -545 -50 -28 -70 -33
-141 -37 -78 -4 -88 -2 -148 27 -118 58 -180 164 -173 296 7 135 91 241 228
286 14 5 57 7 97 5 55 -3 85 -11 124 -32z m-2966 -98 c-18 -36 -37 -85 -40
-110 l-7 -46 -107 0 c-142 0 -151 6 -151 104 0 72 10 98 40 109 8 3 79 6 157
6 l142 1 -34 -64z m2521 32 c-24 -32 -66 -142 -66 -173 0 -13 -97 -15 -885
-15 l-885 0 0 29 c0 38 -25 107 -56 154 l-24 37 970 0 971 0 -25 -32z m912 16
c19 -13 22 -24 22 -90 0 -107 -9 -114 -150 -114 l-109 0 -7 38 c-9 46 -38 115
-65 153 l-20 29 153 0 c123 0 158 -3 176 -16z"/>
<path d="M915 1571 c-106 -65 -124 -191 -40 -276 79 -78 199 -66 268 27 32 43
34 132 5 183 -45 77 -162 110 -233 66z m143 -54 c57 -28 70 -126 25 -177 -77
-86 -215 -21 -200 93 11 85 94 124 175 84z"/>
<path d="M3414 1571 c-101 -61 -119 -195 -38 -277 85 -84 224 -59 281 50 10
20 14 48 11 87 -5 67 -37 117 -91 143 -47 22 -124 21 -163 -3z m158 -63 c38
-26 53 -86 35 -130 -23 -53 -52 -73 -108 -73 -41 0 -53 5 -80 31 -42 43 -49
97 -17 144 40 59 110 70 170 28z"/>
</g>
</svg>
