<svg xmlns="http://www.w3.org/2000/svg" viewBox="0 0 64.319 64.336">
  <defs>
    <style>
      .cls-1 {
        fill: #444;
      }
    </style>
  </defs>
  <path id="Path_362" data-name="Path 362" class="cls-1" d="M46.4,563.066c-.676-.118-1.359-.21-2.022-.368a31.04,31.04,0,0,1-6.906-2.7,73.28,73.28,0,0,1-11.468-7.654,116.746,116.746,0,0,1-9.3-8.442,79.654,79.654,0,0,1-6.1-6.952A69.928,69.928,0,0,1,2.519,524.6,26.451,26.451,0,0,1,.242,518.48a12.248,12.248,0,0,1,.617-7.332,27.646,27.646,0,0,1,5.153-8.238,15.305,15.305,0,0,1,3.834-3.348,7.145,7.145,0,0,1,1.812-.735,3.705,3.705,0,0,1,3.039.689,18.246,18.246,0,0,1,3.348,3.171,53.245,53.245,0,0,1,6.033,8.645,23.242,23.242,0,0,1,2.048,4.273,4.1,4.1,0,0,1-1.877,5.225,32.42,32.42,0,0,1-3.263,1.667c-.6.3-1.214.6-1.825.886-.2.092-.23.2-.151.414a14.359,14.359,0,0,0,1.6,3.112,56.786,56.786,0,0,0,7.424,9.243,41.467,41.467,0,0,0,5.311,4.273c1.385.958,2.777,1.9,4.2,2.8a15.536,15.536,0,0,0,1.923.86c.144-.309.256-.545.368-.775.63-1.333,1.234-2.678,1.9-3.991A5.473,5.473,0,0,1,43.855,537a4.16,4.16,0,0,1,3.368-.223,16.759,16.759,0,0,1,3.624,1.661,54.463,54.463,0,0,1,9.387,6.446c.86.755,1.68,1.569,2.488,2.383a5.323,5.323,0,0,1,1.457,2.6,4.226,4.226,0,0,1-.512,2.816,11.009,11.009,0,0,1-2.271,2.987,26.418,26.418,0,0,1-10.556,6.755c-.867.276-1.786.394-2.685.584a1.476,1.476,0,0,0-.184.053C47.453,563.066,46.928,563.066,46.4,563.066ZM3.786,515.454a14.324,14.324,0,0,0,.689,3.794,43.428,43.428,0,0,0,3.814,7.785,89.077,89.077,0,0,0,13.5,16.437,90,90,0,0,0,12.991,10.457,41.275,41.275,0,0,0,8.035,4.254,16.666,16.666,0,0,0,4.1.991,8.033,8.033,0,0,0,3.847-.794,24.946,24.946,0,0,0,7.805-5.324,15.118,15.118,0,0,0,1.556-1.9.635.635,0,0,0-.066-1.011c-.768-.788-1.516-1.615-2.343-2.33a52.059,52.059,0,0,0-7.615-5.4,20.794,20.794,0,0,0-3.88-1.891c-.46-.158-.61-.112-.827.308-.479.932-.945,1.871-1.411,2.81-.289.584-.545,1.195-.853,1.772a5.3,5.3,0,0,1-1.484,1.858,3.139,3.139,0,0,1-2.652.624,12.381,12.381,0,0,1-3.433-1.346,49.818,49.818,0,0,1-10.464-7.864,52.029,52.029,0,0,1-8.429-10.851,12.867,12.867,0,0,1-1.49-3.446,3.453,3.453,0,0,1,1.424-3.912,13.136,13.136,0,0,1,1.667-.972c1.287-.65,2.586-1.274,3.88-1.917.4-.2.492-.367.341-.722-.381-.88-.742-1.772-1.188-2.626A56.1,56.1,0,0,0,16,506.31a20.982,20.982,0,0,0-3.039-3.3c-.519-.44-.742-.479-1.273-.072a20.794,20.794,0,0,0-1.917,1.635,22.89,22.89,0,0,0-5.219,7.713A9.2,9.2,0,0,0,3.786,515.454Z" transform="translate(0.065 -498.73)"/>
</svg>
