<?xml version="1.0" standalone="no"?>
<!DOCTYPE svg PUBLIC "-//W3C//DTD SVG 20010904//EN"
 "http://www.w3.org/TR/2001/REC-SVG-20010904/DTD/svg10.dtd">
<svg version="1.0" xmlns="http://www.w3.org/2000/svg"
 width="512.000000pt" height="512.000000pt" viewBox="0 0 512.000000 512.000000"
 preserveAspectRatio="xMidYMid meet">

<g transform="translate(0.000000,512.000000) scale(0.100000,-0.100000)"
fill="#000000" stroke="none">
<path d="M25 5095 l-25 -24 0 -2511 0 -2511 25 -24 24 -25 2511 0 2511 0 24
25 25 24 0 2511 0 2511 -25 24 -24 25 -2511 0 -2511 0 -24 -25z m1265 -169 c0
-3 -745 -707 -1048 -990 l-52 -49 0 522 0 521 550 0 c303 0 550 -2 550 -4z
m1345 -114 c-173 -171 -1446 -1422 -1533 -1506 l-72 -71 -300 300 c-165 165
-299 303 -298 307 2 4 261 250 577 548 l574 540 586 0 586 0 -120 -118z m730
-712 l-830 -830 -292 292 c-161 161 -292 296 -290 301 1 4 245 246 541 537
l539 530 581 0 581 0 -830 -830z m1565 512 l0 -317 -278 -278 -277 -277 -275
275 -275 275 320 320 320 320 232 0 233 0 0 -318z m-962 -735 l272 -272 -1393
-1393 -1392 -1392 -275 275 -275 275 1390 1390 c764 765 1392 1390 1395 1390
3 0 128 -123 278 -273z m430 -1444 l-533 -533 -262 262 -263 263 792 792 793
793 3 -522 2 -523 -532 -532z m-3106 -406 l-1102 -1102 0 605 1 605 807 793
806 793 296 -296 295 -295 -1103 -1103z m-747 729 l-350 -343 -3 600 -2 601
47 48 48 48 305 -305 305 -306 -350 -343z m3840 -1746 l-545 -545 -285 285
-285 285 827 827 828 828 3 -567 2 -568 -545 -545z m-1442 -32 l-788 -788
-525 0 -525 0 1050 1050 1050 1050 262 -262 263 -263 -787 -787z m1987 -248
l0 -540 -542 0 -543 0 540 540 c297 297 541 540 542 540 2 0 3 -243 3 -540z
m-3883 228 l273 -273 -247 -247 -248 -248 -317 0 -318 0 0 232 0 233 287 287
c159 159 290 288 293 288 3 0 128 -123 277 -272z m2588 -698 l-69 -70 -571 0
-570 0 355 355 355 355 285 -285 285 -285 -70 -70z"/>
</g>
</svg>
