<svg xmlns="http://www.w3.org/2000/svg" viewBox="0 0 59.617 71.337">
  <defs>
    <style>
      .cls-1 {
        fill: #444;
      }
    </style>
  </defs>
  <g id="Group_3762" data-name="Group 3762" transform="translate(0 0)">
    <path id="Path_360" data-name="Path 360" class="cls-1" d="M2622.379,2726.893c1.325-1.339,2.622-2.835,4.1-4.118a6.021,6.021,0,0,0,2.166-4.887,14.732,14.732,0,0,0-1.809-6.67,45.015,45.015,0,0,0-18.5-18.81,16.337,16.337,0,0,0-6.783-2.194,5.847,5.847,0,0,0-5.273,1.9c-.513.6-1.041,1.168-1.6,1.724q-5.686,5.708-11.386,11.386a5.929,5.929,0,0,0-1.852,3.961,13.22,13.22,0,0,0,1.112,5.885,37.6,37.6,0,0,0,8.593,12.283q16.821,16.886,33.687,33.715c.171.171.37.342.484.456l15.718-15.718Q2631.748,2736.4,2622.379,2726.893Zm-20.363-33.771a13.227,13.227,0,0,1,4.773,1.71,41.086,41.086,0,0,1,17.613,18.026,11.476,11.476,0,0,1,1.4,5.031c.014,1.952-1.068,3.12-3.036,2.963a14.215,14.215,0,0,1-3.99-.912,32.6,32.6,0,0,1-10.488-6.968,39.111,39.111,0,0,1-8.92-11.528,13.564,13.564,0,0,1-1.425-5.1C2597.813,2694.119,2598.9,2693.008,2602.017,2693.122Zm19.251,30.565c-.355.385-.726.769-1.054,1.125-.67-.656-1.268-1.239-1.967-1.909C2619.33,2723.188,2620.313,2723.445,2621.268,2723.687Zm-.2,29.326c.741-.67,1.524-1.382,2.308-2.1-.8-.769-1.482-1.41-2.208-2.094-.627.67-1.354,1.439-2.024,2.152l-3.662-3.662c1.539-1.511,3.206-3.15,4.859-4.789-.77-.769-1.411-1.41-2.095-2.108-1.638,1.653-3.277,3.291-4.858,4.887-1.2-1.2-2.337-2.337-3.52-3.534.727-.655,1.539-1.382,2.323-2.094l-2.208-2.209c-.713.77-1.44,1.539-2.108,2.266l-3.649-3.649c1.553-1.539,3.207-3.192,4.874-4.844-.755-.727-1.411-1.369-2.081-2.024-1.61,1.61-3.249,3.263-4.817,4.845l-3.519-3.52c.7-.641,1.511-1.4,2.308-2.123-.8-.8-1.438-1.454-2.166-2.18-.74.8-1.468,1.6-2.151,2.351l-3.577-3.577c1.6-1.581,3.235-3.221,4.845-4.817-.741-.741-1.411-1.4-2.109-2.08-1.552,1.553-3.178,3.178-4.859,4.874-1.069-1.411-2.08-2.737-3.149-4.147.669-.6,1.282-1.154,1.9-1.7-.756-.756-1.411-1.4-2.109-2.1-.385.371-.784.756-1.268,1.212-1.125-2.337-2.294-4.6-1.981-7.252a2.553,2.553,0,0,1,.669-1.44c3.278-3.334,6.6-6.626,9.9-9.933a1.077,1.077,0,0,1,.186-.113c1.51,6.811,5.657,11.984,10.4,16.743q15.539,15.6,31.136,31.121c.143.143.285.3.37.4l-11.613,11.613Z" transform="translate(-2581.429 -2690.184)"/>
    <path id="Path_361" data-name="Path 361" class="cls-1" d="M2751.007,2769.362a7.966,7.966,0,0,0,2.281.755,3.315,3.315,0,0,0,4-3.377,20.731,20.731,0,0,0-1-2.779,19.594,19.594,0,0,0-6.612-7.21,9.162,9.162,0,0,0-3.99-1.61,3.006,3.006,0,0,0-3.505,2.721,6.282,6.282,0,0,0,.94,3.805A18.663,18.663,0,0,0,2751.007,2769.362Zm-4.288-10.972a15,15,0,0,1,7.182,7.2,9.458,9.458,0,0,1,.412,1.454c-2.707.47-9.091-5.244-9.347-9.119A11.458,11.458,0,0,1,2746.719,2758.39Z" transform="translate(-2719.25 -2745.862)"/>
  </g>
</svg>
