<svg id="Group_3766" data-name="Group 3766" xmlns="http://www.w3.org/2000/svg" viewBox="0 0 65.523 70.95">
  <defs>
    <style>
      .cls-1 {
        fill: #444;
      }
    </style>
  </defs>
  <path id="Path_392" data-name="Path 392" class="cls-1" d="M1265,465.9v6.758h65.523V465.9Z" transform="translate(-1265 -465.9)"/>
  <path id="Path_393" data-name="Path 393" class="cls-1" d="M1593,518.8c.03.34.03.651.074.947a157.649,157.649,0,0,0,3.682,19.061c.651,2.558,1.39,5.1,2.115,7.645.059.222.3.532.473.562.68.059,1.36.03,1.922.03-1.168-9.434-2.336-18.81-3.5-28.229C1596.3,518.8,1594.671,518.8,1593,518.8Z" transform="translate(-1544.497 -510.977)"/>
  <path id="Path_394" data-name="Path 394" class="cls-1" d="M1321.842,547.044c.547.044.858-.118.947-.665a4.417,4.417,0,0,1,.162-.547,185.819,185.819,0,0,0,4.5-19.017c.459-2.647.828-5.309,1.242-8.015h-5.042c-.651,9.479-1.982,18.824-3.446,28.229C1320.762,547.044,1321.294,547,1321.842,547.044Z" transform="translate(-1312.037 -510.977)"/>
  <path id="Path_395" data-name="Path 395" class="cls-1" d="M1301.7,518.6v28.229h1.789a278.118,278.118,0,0,0,3.49-28.2c-.177-.015-.3-.03-.414-.03Z" transform="translate(-1296.273 -510.807)"/>
  <path id="Path_396" data-name="Path 396" class="cls-1" d="M1638.361,546.714V518.5h-4.732c-.118,0-.222.03-.429.044.607,9.479,2.085,18.824,3.342,28.17Z" transform="translate(-1578.752 -510.722)"/>
  <path id="Path_397" data-name="Path 397" class="cls-1" d="M1343.6,546.426c4.791-8.68,7.157-18.218,9.775-27.726h-4.052A175.408,175.408,0,0,1,1343.6,546.426Z" transform="translate(-1331.977 -510.892)"/>
  <path id="Path_398" data-name="Path 398" class="cls-1" d="M1564.593,518.7H1560.6c.044.192.06.311.089.414,1.138,4.052,2.218,8.1,3.446,12.126a78.465,78.465,0,0,0,5.249,13.59c.281.532.592,1.035.9,1.568A163.815,163.815,0,0,1,1564.593,518.7Z" transform="translate(-1516.888 -510.892)"/>
  <path id="Path_399" data-name="Path 399" class="cls-1" d="M1278.8,720.043h10.381V715.4H1278.8Z" transform="translate(-1276.759 -678.505)"/>
  <path id="Path_400" data-name="Path 400" class="cls-1" d="M1621.7,720h10.351v-4.7H1621.7Z" transform="translate(-1568.953 -678.42)"/>
  <path id="Path_401" data-name="Path 401" class="cls-1" d="M1285.5,781.921h1.553V753.5H1285.5Z" transform="translate(-1282.468 -710.971)"/>
  <path id="Path_402" data-name="Path 402" class="cls-1" d="M1284.7,518.8V547h1.567V518.8Z" transform="translate(-1281.787 -510.977)"/>
  <path id="Path_403" data-name="Path 403" class="cls-1" d="M1674.2,781.921h1.493V753.5H1674.2Z" transform="translate(-1613.69 -710.971)"/>
  <path id="Path_404" data-name="Path 404" class="cls-1" d="M1317.1,781.907h1.464V753.5H1317.1Z" transform="translate(-1309.396 -710.971)"/>
  <path id="Path_405" data-name="Path 405" class="cls-1" d="M1333.4,781.821h1.434V753.4H1333.4Z" transform="translate(-1323.285 -710.886)"/>
  <path id="Path_406" data-name="Path 406" class="cls-1" d="M1674.1,518.8v28.185h1.523V518.8Z" transform="translate(-1613.605 -510.977)"/>
  <path id="Path_407" data-name="Path 407" class="cls-1" d="M1301.7,781.921h1.331V753.5H1301.7Z" transform="translate(-1296.273 -710.971)"/>
  <path id="Path_408" data-name="Path 408" class="cls-1" d="M1627,781.921h1.4V753.5H1627Z" transform="translate(-1573.469 -710.971)"/>
  <path id="Path_409" data-name="Path 409" class="cls-1" d="M1643.3,781.907h1.39V753.5h-1.39Z" transform="translate(-1587.359 -710.971)"/>
  <path id="Path_410" data-name="Path 410" class="cls-1" d="M1658.6,782.007h1.331V753.6H1658.6Z" transform="translate(-1600.397 -711.057)"/>
</svg>
