<svg xmlns="http://www.w3.org/2000/svg" viewBox="0 0 65.63 71.626">
  <defs>
    <style>
      .cls-1 {
        fill: #444;
      }
    </style>
  </defs>
  <path id="Path_344" data-name="Path 344" class="cls-1" d="M1376.564,1757.486c-7.342.122-14.684-.139-21.851-1.883a33.411,33.411,0,0,1-6.923-2.476c-3.819-1.918-4.848-4.778-3.593-8.876a23.416,23.416,0,0,1,4.674-8.911,11.114,11.114,0,0,1,6.784-3.837,2.3,2.3,0,0,0,1.709-1.186,13.276,13.276,0,0,0,1.483-5.441,52.278,52.278,0,0,0-.523-12.678,33.154,33.154,0,0,1,.663-11.946,20.262,20.262,0,0,1,4.429-9.312,14.27,14.27,0,0,1,10.882-4.97,37.4,37.4,0,0,1,6.993.3c5.2.907,8.719,4.1,10.934,8.772a29.211,29.211,0,0,1,2.668,12.608c.018,2.616-.418,5.215-.645,7.83a40.577,40.577,0,0,0,.262,11.806,14.087,14.087,0,0,0,.575,1.9,3.316,3.316,0,0,0,2.773,2.441c3.592.645,6.052,3,7.952,5.964a26.16,26.16,0,0,1,3.279,7.743,6.451,6.451,0,0,1-2.86,7.237,21.454,21.454,0,0,1-8.562,3.191c-4.482.733-9,1.273-13.533,1.709C1381.639,1757.678,1379.093,1757.486,1376.564,1757.486Zm14.248-48.934a9.914,9.914,0,0,0-.837.8c-.523.7-1.046.733-1.848.314-5.546-2.912-11.126-5.72-16.672-8.633a4.291,4.291,0,0,0-4.639.261,6.688,6.688,0,0,0-2.65,3.488c-.471,1.256-.785,2.581-1.186,3.889-.907.035-1.151.227-1.343,1.168a7.253,7.253,0,0,0,.7,4.6c.349.715.819,1.273,1.709,1.116a21.875,21.875,0,0,0,5.964,9.4,9.671,9.671,0,0,0,6.3,2.738c3.226.07,5.667-1.535,7.778-3.749a22.429,22.429,0,0,0,4.918-8.406c1.465.14,1.761-1.029,2.075-2.023A5.223,5.223,0,0,0,1390.812,1708.552Zm-26.664,21.991a15.662,15.662,0,0,0,1.552,2.023,17.965,17.965,0,0,0,2.808,2.075,15.7,15.7,0,0,0,18.712-2.023,18.059,18.059,0,0,0,1.6-2.11c-1.866-.837-3.139-1.849-3.4-3.8-5.964,5.493-11.859,5.459-17.77-.035C1367.391,1728.729,1366.031,1729.689,1364.147,1730.543Z" transform="translate(-1343.689 -1685.94)"/>
</svg>
