<svg xmlns="http://www.w3.org/2000/svg" viewBox="0 0 68.469 65.782">
  <defs>
    <style>
      .cls-1 {
        fill: #444;
      }
    </style>
  </defs>
  <g id="Group_3775" data-name="Group 3775" transform="translate(-0.025 -0.056)">
    <path id="Path_434" data-name="Path 434" class="cls-1" d="M367.66,30.337c-1.684-1.719-3.363-3.441-5.068-5.143a1.152,1.152,0,0,0-1.234-.279,5.312,5.312,0,0,1-2.312.323,3.318,3.318,0,0,1-2.272-.994c-.912-.951-1.854-1.867-2.787-2.8-.057-.057-.1-.113-.174-.188.2-.188.379-.366.563-.541a2.707,2.707,0,0,0,.236-3.5c-.1-.122-.218-.236-.331-.349q-6-6-11.995-12a6.141,6.141,0,0,0-1.391-1.042A17.469,17.469,0,0,0,336.739,2.3a62.764,62.764,0,0,0-9.312-1.5C325.259.585,323.082.42,320.91.3c-2.251-.122-4.5-.17-6.752-.244-.183,0-.371,0-.554,0,0,.009,0,.017,0,.026a1.163,1.163,0,0,0,.113.039,43.762,43.762,0,0,1,12.728,5.958,30.649,30.649,0,0,1,8.117,8.239,9.8,9.8,0,0,1,1.5,3.306,3.829,3.829,0,0,1-1.112,3.86c-.781.741-1.527,1.518-2.286,2.277-.048.048-.092.1-.113.122l9.33,9.33,4.828-4.828c.052.044.1.079.14.118q1.531,1.492,3.058,2.988a2.01,2.01,0,0,1,.353.441,4.239,4.239,0,0,1,.218,3.677,2.477,2.477,0,0,0-.113,1.152.813.813,0,0,0,.266.5c.362.349.711.707,1.069,1.06q1.93,1.93,3.856,3.856a2.7,2.7,0,0,0,3.961,0q2.329-2.342,4.65-4.693c1.186-1.2,2.39-2.382,3.55-3.6A2.582,2.582,0,0,0,367.66,30.337Z" transform="translate(-299.898 0)"/>
    <path id="Path_435" data-name="Path 435" class="cls-1" d="M28.955,629.47Q14.9,643.523.848,657.581a2.609,2.609,0,0,0,.009,3.812q2.741,2.748,5.491,5.487a3.825,3.825,0,0,0,.427.371,2.629,2.629,0,0,0,3.463-.393q13.988-13.982,27.972-27.972c.057-.057.109-.113.148-.157l-9.33-9.33A1.008,1.008,0,0,0,28.955,629.47Z" transform="translate(0 -601.894)"/>
  </g>
</svg>
