<?xml version="1.0" standalone="no"?>
<!DOCTYPE svg PUBLIC "-//W3C//DTD SVG 20010904//EN"
 "http://www.w3.org/TR/2001/REC-SVG-20010904/DTD/svg10.dtd">
<svg version="1.0" xmlns="http://www.w3.org/2000/svg"
 width="512.000000pt" height="512.000000pt" viewBox="0 0 512.000000 512.000000"
 preserveAspectRatio="xMidYMid meet">

<g transform="translate(0.000000,512.000000) scale(0.100000,-0.100000)"
fill="#000000" stroke="none">
<path d="M2515 4928 c-56 -30 -55 -18 -55 -475 l0 -423 -57 0 c-77 0 -130 -16
-148 -44 -9 -13 -48 -165 -87 -337 -39 -173 -71 -315 -72 -316 -1 -1 -43 -11
-93 -22 -720 -157 -1361 -646 -1709 -1306 -182 -344 -279 -702 -291 -1070 l-6
-170 28 -27 28 -28 942 0 943 0 12 -53 c7 -28 29 -86 48 -127 49 -104 176
-231 282 -283 178 -88 382 -88 560 0 106 52 233 179 282 283 19 41 41 99 48
128 l12 52 943 0 942 0 28 28 28 27 -6 170 c-31 961 -660 1859 -1567 2238
-127 53 -311 111 -434 138 -50 11 -91 21 -92 22 -1 1 -33 143 -72 316 -39 172
-78 324 -87 337 -18 28 -71 44 -147 44 l-58 0 0 423 c0 385 -2 424 -18 443
-33 42 -86 55 -127 32z m197 -1148 c4 -19 27 -120 50 -225 l44 -190 -247 0
c-160 0 -245 4 -243 10 2 6 24 102 49 215 25 113 48 211 50 218 4 10 38 12
147 10 l142 -3 8 -35z m178 -635 c504 -75 971 -308 1329 -665 195 -193 333
-387 456 -635 138 -279 207 -530 240 -872 l6 -63 -2361 0 -2361 0 6 63 c33
342 102 593 240 872 232 472 603 844 1070 1075 274 135 539 211 838 240 124
12 408 4 537 -15z m75 -2457 c-18 -58 -73 -143 -122 -188 -165 -151 -401 -151
-566 0 -49 45 -104 130 -122 188 l-6 22 411 0 411 0 -6 -22z"/>
<path d="M2538 3032 c-38 -4 -78 -55 -78 -98 0 -74 46 -104 159 -104 36 -1
114 -7 173 -14 127 -16 150 -13 183 26 42 50 28 125 -29 151 -47 22 -326 48
-408 39z"/>
<path d="M3264 2885 c-59 -30 -72 -106 -26 -153 15 -16 72 -48 127 -72 249
-108 431 -234 630 -434 184 -184 322 -390 423 -626 29 -69 64 -135 78 -147 61
-55 164 -5 164 80 0 26 -61 180 -112 281 -164 329 -443 641 -758 850 -117 77
-217 132 -336 185 -114 49 -149 56 -190 36z"/>
<path d="M4569 1311 c-33 -33 -36 -65 -18 -153 15 -68 33 -94 74 -108 44 -15
80 -4 110 32 29 34 31 66 11 153 -18 74 -49 105 -107 105 -31 0 -47 -7 -70
-29z"/>
</g>
</svg>
