<svg id="Group_3763" data-name="Group 3763" xmlns="http://www.w3.org/2000/svg" viewBox="0 0 58.113 71.7">
  <defs>
    <style>
      .cls-1 {
        fill: #444;
      }
    </style>
  </defs>
  <path id="Path_363" data-name="Path 363" class="cls-1" d="M2023.486,2625.09c-.247-1.1-.589-2.164-.836-3.265-.55-2.487-1.044-4.974-1.594-7.461-.722-3.285-2.715-4.861-6.019-4.861-1.348,0-2.7-.038-4.044.019-.323.02-.873.323-.892.551-.208,1.5-1.158,1.708-2.411,1.538a3.666,3.666,0,0,0-1.12,0,1.119,1.119,0,0,1-1.462-1.082c-.133-.892-.646-1.12-1.481-1.063-1.159.075-2.316.019-3.494.019-3.474,0-5.467,1.557-6.227,4.917-.816,3.57-1.633,7.157-2.43,10.727-.057.284-.038.759.133.892,1.765,1.272,3.589,2.487,5.544,3.835.456-2.316.854-4.291,1.234-6.247a44.274,44.274,0,0,1,.19,5.715,1.147,1.147,0,0,0,.892,1.31,23.133,23.133,0,0,0,16.061,0,1.08,1.08,0,0,0,.836-1.234c-.038-2.031-.019-4.043-.019-6.076.057-.019.133-.019.19-.037.418,2.069.835,4.138,1.31,6.568,1.955-1.349,3.74-2.544,5.487-3.816C2023.524,2625.925,2023.562,2625.394,2023.486,2625.09Z" transform="translate(-1965.41 -2560.372)"/>
  <path id="Path_364" data-name="Path 364" class="cls-1" d="M1860.718,2436.553c-2.3,0-3.266-.987-3.266-3.3v-50.957c0-2.449.931-3.38,3.4-3.38h6.265c.266-1.1.494-2.05.741-3.114h-7.689c-3.569.02-5.867,2.278-5.867,5.81v52.3a5.446,5.446,0,0,0,5.809,5.752h20.352c.3,0,.626-.038,1.044-.075-1.215-1.006-2.316-1.9-3.721-3.038Z" transform="translate(-1854.3 -2371.076)"/>
  <path id="Path_365" data-name="Path 365" class="cls-1" d="M2046.592,2538.048a7.236,7.236,0,0,0,.038-14.448,7.231,7.231,0,0,0-.038,14.448Z" transform="translate(-2004.501 -2490.815)"/>
  <path id="Path_366" data-name="Path 366" class="cls-1" d="M1945.938,2356.151c-.532-2.069-.532-2.107-2.639-2.069a1.4,1.4,0,0,1-1.462-.835c-1.481-2.715-6.132-3.228-7.86-.646-1.007,1.481-2.05,1.519-3.418,1.481a5.821,5.821,0,0,0-.721.076c-.512,2.031-1.006,4.043-1.538,6.151h18.662C1946.6,2358.828,1946.279,2357.48,1945.938,2356.151Zm-11.087-2.126a2.577,2.577,0,0,1,2.43-1.462,3.2,3.2,0,0,1,3.209,1.462Z" transform="translate(-1914.251 -2350.914)"/>
  <path id="Path_367" data-name="Path 367" class="cls-1" d="M2030.728,2378.751c1.842-.056,3.683-.019,5.505-.019,2.184,0,3.247,1.044,3.247,3.228.019,2.847,0,5.7,0,8.544,0,3.607-.019,7.194.019,10.8a1.368,1.368,0,0,0,.494,1.026,26.079,26.079,0,0,0,2.525,1.063c.019-.38.057-.741.057-1.082v-12.607c0-3,.057-6-.076-9a5.1,5.1,0,0,0-4.633-5.012c-2.9-.229-5.829-.057-8.866-.057a21.32,21.32,0,0,1,.493,2.145A1.016,1.016,0,0,0,2030.728,2378.751Z" transform="translate(-1995.834 -2370.894)"/>
  <path id="Path_368" data-name="Path 368" class="cls-1" d="M1905.772,2565.73c.741.019,1.5,0,2.24,0,.778,0,1.576.019,2.354,0a2.19,2.19,0,0,0,2.393-2.26c.038-1.613.038-3.227,0-4.821a2.1,2.1,0,0,0-2.184-2.222c-1.689-.057-3.379-.057-5.05.019a2.038,2.038,0,0,0-2.108,2.164c-.057,1.652-.057,3.3,0,4.937A2.193,2.193,0,0,0,1905.772,2565.73Zm.152-8.164h4.367a1.171,1.171,0,0,1,1.31,1.328c.019,1.462.019,2.924,0,4.367a1.21,1.21,0,0,1-1.348,1.31h-4.366a1.166,1.166,0,0,1-1.291-1.329v-2.126h0c0-.7.019-1.423,0-2.126C1904.576,2558.06,1904.974,2557.548,1905.924,2557.567Z" transform="translate(-1894.058 -2517.377)"/>
  <path id="Path_369" data-name="Path 369" class="cls-1" d="M1905.778,2631.368c1.614.037,3.227.037,4.822,0a2.115,2.115,0,0,0,2.241-2.165c.057-1.652.057-3.3,0-4.937a2.155,2.155,0,0,0-2.317-2.2c-.778-.018-1.576,0-2.354,0s-1.576-.018-2.354,0a2.124,2.124,0,0,0-2.3,2.222c-.057,1.613-.057,3.227,0,4.822A2.1,2.1,0,0,0,1905.778,2631.368Zm-1.082-4.462v-2.355a1.187,1.187,0,0,1,1.386-1.347q2.079.03,4.157,0a1.284,1.284,0,0,1,1.481,1.424v4.157c0,.949-.418,1.481-1.424,1.443-.74-.019-1.5,0-2.24,0C1904.467,2630.209,1904.676,2630.57,1904.7,2626.906Z" transform="translate(-1894.139 -2570.579)"/>
  <path id="Path_370" data-name="Path 370" class="cls-1" d="M1903.454,2497.485a2.021,2.021,0,0,0,2.108,2.05c1.689.077,3.36.058,5.05.019a1.83,1.83,0,0,0,1.993-1.5c.152-2.051.038-4.12.038-6.19-.133-.038-.246-.076-.379-.114a8.242,8.242,0,0,0-.608,1.823c-.1,1.12-.019,2.241-.019,3.36,0,.949-.417,1.462-1.443,1.443-1.424-.019-2.848,0-4.271,0-.874,0-1.329-.4-1.31-1.291,0-1.462.019-2.924,0-4.386a1.18,1.18,0,0,1,1.291-1.349,21.736,21.736,0,0,1,2.468,0,1.964,1.964,0,0,0,2.107-1.253,45.2,45.2,0,0,0-5.7.361c-.531.1-1.215,1.158-1.291,1.842A33.7,33.7,0,0,0,1903.454,2497.485Z" transform="translate(-1894.056 -2463.675)"/>
  <path id="Path_371" data-name="Path 371" class="cls-1" d="M1905.9,2426.4c.854,0,1.728-.056,2.582.019a1.686,1.686,0,0,0,1.861-1.158c-1.652,0-3.19-.019-4.708,0a2.06,2.06,0,0,0-2.165,2.107c-.057,1.652-.076,3.3-.019,4.936a2.147,2.147,0,0,0,2.392,2.24q2.306.029,4.613,0a2.159,2.159,0,0,0,2.354-2.3c.038-1.575.019-3.151,0-4.727a2.6,2.6,0,0,0-.152-.665,3.891,3.891,0,0,1-.418-.076,9.915,9.915,0,0,0-.55,1.861c-.1,1.12-.019,2.241-.038,3.361-.019.816-.38,1.367-1.272,1.367h-4.5a1.1,1.1,0,0,1-1.234-1.253v-4.5A1.1,1.1,0,0,1,1905.9,2426.4Z" transform="translate(-1894.093 -2411.142)"/>
  <path id="Path_372" data-name="Path 372" class="cls-1" d="M1983.9,2447.172c.57,0,1.063-.057,1.044-.816,0-.8-.55-.759-1.082-.759H1970.5c-.532,0-1.082-.057-1.1.741-.019.74.437.835,1.024.835C1974.9,2447.153,1979.4,2447.172,1983.9,2447.172Z" transform="translate(-1947.546 -2427.62)"/>
  <path id="Path_373" data-name="Path 373" class="cls-1" d="M1984.787,2512.036c.019-.76-.456-.835-1.044-.835h-13.46c-.57,0-1.063.038-1.083.8,0,.8.57.741,1.1.741h13.46C1984.275,2512.739,1984.787,2512.757,1984.787,2512.036Z" transform="translate(-1947.386 -2480.77)"/>
  <path id="Path_374" data-name="Path 374" class="cls-1" d="M1982.063,2578.4a1.646,1.646,0,0,0,.151-.228c-.474-.4-.171-1.367-1.272-1.367-3.55.038-7.119.019-10.67,0-.55,0-1.082.114-.911.76a1.256,1.256,0,0,0,.911.778C1974.2,2578.414,1978.133,2578.4,1982.063,2578.4Z" transform="translate(-1947.491 -2533.915)"/>
  <path id="Path_375" data-name="Path 375" class="cls-1" d="M1924.026,2480.9a17.354,17.354,0,0,0-6,6.36c-.513-.7-.93-1.31-1.4-1.993-.323.626-.569,1.082-.722,1.4.608,1.139,1.159,2.183,1.766,3.3.418-.3,1.1-.532,1.253-.95a15.279,15.279,0,0,1,5.809-7.138A11.689,11.689,0,0,1,1924.026,2480.9Z" transform="translate(-1904.205 -2456.222)"/>
  <path id="Path_376" data-name="Path 376" class="cls-1" d="M1924.186,2415.894c-.095-.133-.189-.3-.323-.494a17.444,17.444,0,0,0-6.018,6.322c-.513-.7-.949-1.291-1.424-1.918-.323.627-.57,1.063-.721,1.348.588,1.139,1.139,2.183,1.747,3.322.38-.266,1.082-.494,1.272-.93a15.28,15.28,0,0,1,5.848-7.157C1924.4,2416.16,1924.281,2416.027,1924.186,2415.894Z" transform="translate(-1904.043 -2403.158)"/>
  <path id="Path_377" data-name="Path 377" class="cls-1" d="M1969.3,2643.219c.266.266.531.74.816.759,1.215.095,2.449.039,3.721.039.1-.513.19-.931.323-1.557-1.5,0-2.791-.038-4.1.037C1969.794,2642.517,1969.566,2642.954,1969.3,2643.219Z" transform="translate(-1947.467 -2587.102)"/>
</svg>
