<svg xmlns="http://www.w3.org/2000/svg" viewBox="0 0 76.426 70.95">
  <defs>
    <style>
      .cls-1 {
        fill: #444;
      }
    </style>
  </defs>
  <path id="Path_335" data-name="Path 335" class="cls-1" d="M685.7,2558.283H718c.04,7.9-4.755,13.84-13.944,17.425.843,5.618,7.042,9.181,12.158,6.851a9.974,9.974,0,0,0,6.039-9.545c.12-17.335.04-34.669.04-52a10.065,10.065,0,0,0-.161-1.279H693.043V2516.1h61.836v3.563H725.847a13.393,13.393,0,0,0-.221,1.667q-.03,25.8,0,51.569c.02,5.094,3.21,9.387,7.464,10.369,4.494,1,8.828-1.508,10.634-6.189.14-.388.22-.822.321-1.21-9.731-4.179-13.9-9.272-14.165-17.471h32.242c.18,7.468-5.257,15.027-12.219,16.763a3.84,3.84,0,0,0-3.15,2.855c-3.732,10.414-15.65,12.2-21.749,3.357-.281-.411-.542-.822-.923-1.416-.361.48-.7.891-1,1.325-3.231,4.544-7.424,6.531-12.479,5.5-4.815-.982-8.126-4.294-9.711-9.57a2.479,2.479,0,0,0-2.247-1.918C691.338,2573.424,686.182,2566.664,685.7,2558.283Zm4.073,3.7c.923,5.572,6.761,10.187,12.479,9.981,5.578-.206,10.975-4.865,11.516-9.981Zm68.316.069H733.973c1.525,5.732,6.561,9.866,11.958,9.912C751.489,2572.031,756.5,2568.011,758.089,2562.051Z" transform="translate(-685.7 -2516.1)"/>
</svg>
