<svg xmlns="http://www.w3.org/2000/svg" viewBox="0 0 62.431 63.848">
  <defs>
    <style>
      .cls-1 {
        fill: #444;
      }
    </style>
  </defs>
  <path id="Path_310" data-name="Path 310" class="cls-1" d="M3875.029,3350.878a1.606,1.606,0,0,0-.59-1.311c-.459-.387-.9-.8-1.353-1.2q-4.746-4.263-9.485-8.52-3.191-2.869-6.381-5.732a1.568,1.568,0,0,0-1.1-.411h-41.981a1.438,1.438,0,0,0-1.538,1.531v43.388a1.706,1.706,0,0,0,.411,1.126q3.128,3.816,6.244,7.638,3.914,4.79,7.817,9.587a1.486,1.486,0,0,0,1.227.578h45.175a1.429,1.429,0,0,0,1.549-1.561v-22.564Q3875.023,3362.145,3875.029,3350.878Zm-57.562-14.329q19.019,0,38.043.006a.521.521,0,0,1,.328.137q4.147,3.709,8.276,7.424,2.762,2.476,5.517,4.951c.072.065.143.119.22.179a.378.378,0,0,1-.042.065h-.268q-9.625,0-19.257.006a.716.716,0,0,1-.5-.185q-3.772-3.253-7.555-6.489a1.7,1.7,0,0,0-1.162-.423q-9.205.008-18.411.006a.547.547,0,0,1-.458-.2c-1.6-1.77-3.206-3.527-4.808-5.285-.042-.048-.083-.1-.149-.179A2.049,2.049,0,0,1,3817.467,3336.548Zm9.331,55.28v.239l-.054.018c-.518-.632-1.037-1.269-1.549-1.9q-4.808-5.889-9.6-11.785a.681.681,0,0,1-.131-.4q-.009-9.58-.006-19.167V3338.8c.191.2.34.369.494.53q1.805,1.993,3.623,3.98a.521.521,0,0,1,.143.375q-.009,9.974-.006,19.954a1.564,1.564,0,0,0,.387,1.061q3.28,3.825,6.56,7.645a.637.637,0,0,1,.155.441Q3826.792,3382.313,3826.8,3391.829Zm0-23.94v.286l-.649-.745c-1.162-1.358-2.33-2.711-3.485-4.07a.576.576,0,0,1-.125-.339q-.009-7.838-.006-15.682v-.262c.1.1.161.155.22.209q1.94,1.939,3.873,3.867a.529.529,0,0,1,.173.405Zm1.889-18.745q-1.815-2-3.635-4c-.011-.018-.024-.036-.065-.1h15.468a.552.552,0,0,1,.4.143l4.541,3.9c.065.053.125.119.244.226h-.286q-8.143,0-16.284.006A.5.5,0,0,1,3828.687,3349.144Zm19.376,3.009v18.423h-18.429v-18.423Zm24.113,42.53h-42.542V3373.43h7.079v12.143c-.072-.066-.131-.113-.185-.167-.554-.554-1.1-1.114-1.662-1.656a1.414,1.414,0,0,0-2.324.524,1.346,1.346,0,0,0,.346,1.5q1.957,1.957,3.914,3.921c.066.065.131.143.191.214a1.457,1.457,0,0,0,2.276.024c.078-.09.155-.179.238-.262,1.287-1.293,2.58-2.58,3.866-3.873a1.411,1.411,0,0,0-1.846-2.133c-.441.387-.84.822-1.257,1.233-.22.22-.435.447-.691.709v-12.185h9.837a1.4,1.4,0,0,0,1.49-1.478c.006-1.191,0-2.383,0-3.574v-6.28h13.543c.012.018.024.03.036.048a3.908,3.908,0,0,0-.292.262c-.512.506-1.031,1.013-1.531,1.531a1.412,1.412,0,0,0,.59,2.365,1.316,1.316,0,0,0,1.365-.328c1.358-1.341,2.7-2.693,4.052-4.034a1.916,1.916,0,0,0,.631-.87,1.391,1.391,0,0,0-.363-1.418l-4.165-4.146a1.55,1.55,0,0,0-.786-.483,1.418,1.418,0,0,0-1.573.7,1.4,1.4,0,0,0,.25,1.686c.548.56,1.1,1.108,1.656,1.663.048.047.089.095.155.167h-13.555v-7.06h21.247Q3872.182,3373.406,3872.176,3394.683Z" transform="translate(-3812.599 -3333.7)"/>
</svg>
