<svg id="Group_3759" data-name="Group 3759" xmlns="http://www.w3.org/2000/svg" viewBox="0 0 62.558 70.98">
  <defs>
    <style>
      .cls-1 {
        fill: #444;
      }
    </style>
  </defs>
  <path id="Path_341" data-name="Path 341" class="cls-1" d="M4148.305,457.538a91.653,91.653,0,0,1-6.107,14.12c-1.217,2.2-2.579,4.332-3.869,6.491a1,1,0,0,1-1.1.58q-3.064-.543-6.121-1.094c-.428-.08-.848-.21-1.3-.326.1-.159.174-.268.246-.377.927-1.413,1.9-2.8,2.767-4.245s1.645-3,2.457-4.506a4.631,4.631,0,0,0,.231-.63,1.728,1.728,0,0,0-.521.348c-1.391,1.123-2.746,2.289-4.173,3.354a21.649,21.649,0,0,1-5.825,3.173,5.344,5.344,0,0,1-4.571-.391c-1.058-.6-2.159-1.116-3.245-1.666-.392-.2-.8-.391-1.21-.594a26.878,26.878,0,0,0,4.311-6.013.153.153,0,0,0-.124.022,15.667,15.667,0,0,1-7.085,3.506,1.426,1.426,0,0,1-1.275-.217c-1.507-1.166-3.014-2.333-4.506-3.528-.558-.449-1.058-.971-1.623-1.5.971-.181,1.876-.341,2.774-.522a47.017,47.017,0,0,0,11.49-3.84,28.254,28.254,0,0,0,12.28-11.2.8.8,0,0,0,.028-.123c-1.572-.884-3.136-1.768-4.716-2.659-.34.493-.666.949-.971,1.413a21.025,21.025,0,0,1-6.658,6.346,38.342,38.342,0,0,1-11.78,4.557,39.5,39.5,0,0,1-8.144.956,2.67,2.67,0,0,0-2.76,2.144c-.037.152-.072.3-.109.456v.29a4.971,4.971,0,0,0,1.471,2.594,55.809,55.809,0,0,0,21.524,15.366,63.859,63.859,0,0,0,15.221,4.195c.869.123,1.746.21,2.623.312a1.44,1.44,0,0,1,.239.065h1.16a1.456,1.456,0,0,1,.167-.065,3.045,3.045,0,0,0,2.014-1.232c.493-.667.985-1.348,1.449-2.036a94.881,94.881,0,0,0,10.968-22.973c.021-.072.029-.159.051-.254-1.71-.587-3.4-1.174-5.115-1.76C4148.653,456.589,4148.472,457.059,4148.305,457.538Z" transform="translate(-4097.1 -413.414)"/>
  <path id="Path_342" data-name="Path 342" class="cls-1" d="M4752.9,1.416a4.437,4.437,0,0,0-2.7-1.333,1.974,1.974,0,0,0-2.354,1.166q-5.15,9.65-10.294,19.307c-.246.456-.239.464.239.674q3.76,1.674,7.527,3.354c.116.051.239.094.376.152.095-.232.188-.42.261-.623q1.435-3.956,2.862-7.918,2.38-6.629,4.745-13.258V2.72A2.418,2.418,0,0,0,4752.9,1.416Z" transform="translate(-4691.002 -0.043)"/>
  <path id="Path_343" data-name="Path 343" class="cls-1" d="M4566.731,324.818c-3.376-1.478-6.723-3.028-10.121-4.47a8.461,8.461,0,0,0-9.7,2.463,7.93,7.93,0,0,0-1.21,2.007c8.687,3.861,17.336,7.716,26.045,11.584a8.511,8.511,0,0,0-1.058-8.7A9.544,9.544,0,0,0,4566.731,324.818Z" transform="translate(-4513.2 -296.546)"/>
</svg>
