<svg id="Group_3758" data-name="Group 3758" xmlns="http://www.w3.org/2000/svg" viewBox="0 0 76.735 65.239">
  <defs>
    <style>
      .cls-1 {
        fill: #444;
      }
    </style>
  </defs>
  <path id="Path_336" data-name="Path 336" class="cls-1" d="M1861.595,1102.85a1.509,1.509,0,0,1,1.078-.36,10.539,10.539,0,0,0,12.093-8.905,9.71,9.71,0,0,0-.969-6.015,9.635,9.635,0,0,1-.594.8c-1.953,1.953-3.906,3.89-5.89,5.812a2.726,2.726,0,0,1-4.094.031c-.343-.312-.672-.656-1-.984a2.673,2.673,0,0,1,.031-4.125c1.078-1.094,2.187-2.156,3.281-3.234,1.062-1.062,2.109-2.156,3.172-3.234a2.334,2.334,0,0,0-.344-.172,10.376,10.376,0,0,0-10.546,1.422,10.023,10.023,0,0,0-3.984,9.765,1.284,1.284,0,0,1-.406,1.219q-12.561,12.4-25.092,24.826a2.745,2.745,0,0,1-2.218.906,9.573,9.573,0,0,0-9.734,11.468,9.7,9.7,0,0,0,19.154-2.7,1.706,1.706,0,0,1,.438-1.141Q1848.721,1115.5,1861.595,1102.85Zm-35.763,31.5a4.226,4.226,0,1,1-.016-8.452,4.227,4.227,0,1,1,.016,8.452Z" transform="translate(-1804.342 -1074.485)"/>
  <path id="Path_337" data-name="Path 337" class="cls-1" d="M1756.025,1080.588a2.619,2.619,0,0,0,2.546.25,22.868,22.868,0,0,1,3.75-.609,1.542,1.542,0,0,0,.734-.156c.562-.453,1.062-.969,1.64-1.516a6.9,6.9,0,0,0-5.078-.406,4.351,4.351,0,0,1-4.406-.7c-.406-.328-.687-.188-.984.156-.609.7-1.25,1.375-1.891,2.078-1.75-1.8-3.359-3.453-5.078-5.218.781-.75,1.625-1.547,2.484-2.391a23.548,23.548,0,0,1-2.969-7.187.844.844,0,0,0-.672-.406c-1.031-.047-2.062-.016-3.141-.016v-6.922c1.109,0,2.172-.031,3.219.016a.679.679,0,0,0,.812-.594,21.345,21.345,0,0,1,2.734-6.265.7.7,0,0,0-.156-1.047c-.8-.75-1.547-1.531-2.187-2.188,1.625-1.687,3.218-3.328,4.937-5.109.781.828,1.578,1.656,2.344,2.5a.617.617,0,0,0,.922.14,21.666,21.666,0,0,1,6.265-2.547.711.711,0,0,0,.641-.859c-.032-1.109-.016-2.218-.016-3.359h7.093c0,1.156.016,2.281-.016,3.391-.016.484.156.656.625.8,1.266.375,2.547.766,3.766,1.25,1.046.422,2.047,1,3.2,1.578l2.672-2.812c1.656,1.7,3.265,3.359,4.969,5.109-.844.813-1.75,1.7-2.672,2.594a25.461,25.461,0,0,1,3.391,7.734c.469-.437.859-.859,1.3-1.2a1.017,1.017,0,0,0,.359-1.3c-.422-1.062-.8-2.141-1.234-3.2-.234-.578-.828-1.172-.75-1.656.094-.531.8-.953,1.235-1.437a.741.741,0,0,1,.109-.109,2.31,2.31,0,0,0-.015-3.25q-2.437-2.531-5-4.937a2.377,2.377,0,0,0-3.328.031,9.871,9.871,0,0,0-1,.984.848.848,0,0,1-1.25.234,6.842,6.842,0,0,0-2-.859c-1.594-.313-2.406-1.078-2.015-2.781a.271.271,0,0,0-.016-.156,2.412,2.412,0,0,0-2.515-2.359c-2.234-.031-4.484-.031-6.718,0a2.411,2.411,0,0,0-2.531,2.5c-.032.547.031,1.094-.016,1.641a.8.8,0,0,1-.328.578c-1.438.594-2.89,1.125-4.5,1.75-.437-.469-.906-1.078-1.468-1.578a2.344,2.344,0,0,0-3.265,0c-1.7,1.609-3.375,3.266-5,4.937a2.3,2.3,0,0,0,.016,3.312c.39.422.828.8,1.2,1.219a.645.645,0,0,1,.125.594c-.641,1.438-1.312,2.875-2,4.39-.578,0-1.249-.016-1.937,0a2.371,2.371,0,0,0-2.39,2.39c-.031,2.3-.031,4.578,0,6.875a2.334,2.334,0,0,0,2.281,2.328c.5.031,1-.031,1.484.047a.94.94,0,0,1,.641.469c.594,1.469,1.14,2.953,1.75,4.547l-.875.875c-1.328,1.344-1.328,2.609,0,3.937,1.422,1.422,2.844,2.828,4.281,4.234,1.422,1.391,2.719,1.406,4.109-.047C1754.838,1080.26,1755.307,1080.073,1756.025,1080.588Z" transform="translate(-1740.55 -1035.85)"/>
  <path id="Path_338" data-name="Path 338" class="cls-1" d="M2064.007,1235.133a1.117,1.117,0,0,1,1.141-1.3,1.386,1.386,0,0,0,1.312-1.75c-.234-1.281-.485-2.547-.766-3.828a1.444,1.444,0,0,0-1.78-1.2,5.289,5.289,0,0,1-.844.141.66.66,0,0,1-.5-.187c-.515-.734-1-1.5-1.5-2.25.234-.359.484-.687.688-1.047a1.358,1.358,0,0,0-.376-1.937c-1.125-.8-2.265-1.563-3.437-2.3a1.415,1.415,0,0,0-2.046.453,3.828,3.828,0,0,1-.453.625,1,1,0,0,1-.7.25q-2.39-.281-4.781-.656c-1.672-.265-2.7.609-3.562,1.922,3.3.391,6.609.438,9.718,1.656.453-.656.859-1.219,1.281-1.828.656.437,1.25.844,1.891,1.266-.422.64-.812,1.219-1.125,1.672,1.172,1.7,2.281,3.328,3.437,5.015.563-.094,1.234-.2,1.953-.328.156.765.282,1.437.422,2.156a8.347,8.347,0,0,1-1.2.25c-.7.016-.89.359-.937,1.016-.094,1.14-.3,2.265-.5,3.39-.093.563-.547,1.188-.39,1.625.171.469.875.734,1.328,1.094.063.047.078.125.141.2-.406.594-.828,1.187-1.234,1.781-.594-.375-1.11-.719-1.5-.969-1.312.922-2.484,1.828-3.75,2.578-1.437.859-1.468.8-1.2,2.406a.523.523,0,0,1-.078.188c-.672.125-1.375.266-2.141.422a7.943,7.943,0,0,0-.3-1.328.8.8,0,0,0-.485-.469c-1.906-.328-3.827-.625-5.874-.938-.2.281-.547.75-.906,1.234-.657-.453-1.25-.859-1.875-1.281.359-.531.672-1,.891-1.328-.922-1.375-1.844-2.609-2.609-3.922-.75-1.3-.687-1.328-2.141-1.14a3.8,3.8,0,0,1-.422,0c-.141-.7-.281-1.375-.422-2.094.656-.14,1.25-.281,1.75-.39.407-2.219.8-4.359,1.2-6.593-.359.281-.625.516-.922.719-1.266.844-2.328,1.828-2.312,3.531,0,.156-.344.406-.563.453-1.515.359-1.827.828-1.515,2.391.2,1.047.406,2.094.625,3.14.25,1.156.781,1.516,1.953,1.36.234-.031.453-.078.719-.109.219.359.422.719.64,1.062a5.841,5.841,0,0,0,.766,1.078.76.76,0,0,1,.047,1.141,1.435,1.435,0,0,0,.469,2.312c.969.656,1.938,1.312,2.922,1.953a1.516,1.516,0,0,0,2.453-.469.662.662,0,0,1,.891-.328,9,9,0,0,0,1.906.39.889.889,0,0,1,.969.844c.2,1.063.843,1.438,1.937,1.234,1.125-.2,2.25-.422,3.375-.641,1.39-.266,1.7-.765,1.516-2.172a.943.943,0,0,1,.281-.75c.735-.531,1.516-1.016,2.343-1.547.266.172.516.344.782.5a1.443,1.443,0,0,0,2.015-.375c.812-1.125,1.578-2.266,2.328-3.422a1.265,1.265,0,0,0-.359-1.859,1.362,1.362,0,0,1-.687-2A2.964,2.964,0,0,0,2064.007,1235.133Z" transform="translate(-1989.755 -1190.567)"/>
  <path id="Path_339" data-name="Path 339" class="cls-1" d="M1839.916,1124.7a10.07,10.07,0,1,0,10.093,10.093A10.093,10.093,0,0,0,1839.916,1124.7Zm-.063,17.8a7.719,7.719,0,1,1,7.812-7.7A7.762,7.762,0,0,1,1839.853,1142.494Z" transform="translate(-1815.769 -1110.818)"/>
  <path id="Path_340" data-name="Path 340" class="cls-1" d="M2095.268,1278.389a6.946,6.946,0,1,0-6.968-6.953A6.975,6.975,0,0,0,2095.268,1278.389Zm.047-11.546a4.6,4.6,0,1,1,0,9.2,4.6,4.6,0,1,1,0-9.2Z" transform="translate(-2033.968 -1228.776)"/>
</svg>
