<svg id="Group_3761" data-name="Group 3761" xmlns="http://www.w3.org/2000/svg" viewBox="0 0 71.341 71.337">
  <defs>
    <style>
      .cls-1 {
        fill: #444;
      }
    </style>
  </defs>
  <path id="Path_352" data-name="Path 352" class="cls-1" d="M4365.6,2767.742a3.929,3.929,0,0,0-4.139,1.978l-1.506,2.341a24.147,24.147,0,0,0-3.97,12c-.041.962,0,1.937,0,2.968h-4.068c-4.18,0-8.347-.015-12.526.014a3.509,3.509,0,0,0-3.385,2.41,3.31,3.31,0,0,0,1.212,3.9,1.877,1.877,0,0,1,.975,2.132,6.918,6.918,0,0,0,0,.766,20.475,20.475,0,0,0,1.352,8.165,6.517,6.517,0,0,1-1.853,7.593c-.988.948-.935,1.658.209,2.369h2.09c.446-.112.893-.209,1.323-.321,3.5-.919,5.936-3.8,4.891-8.248a34.8,34.8,0,0,1-.752-4.932c-.154-1.95-.058-1.965,1.853-1.965,2.967,0,5.937.015,8.9-.014.559,0,.726.209.781.7a16.315,16.315,0,0,1-.515,5.5,9.614,9.614,0,0,0-.267,4.124c.586,2.7,2.717,4.529,5.755,5a4.493,4.493,0,0,1,.585.154h2.09c1.143-.738,1.186-1.449.182-2.369a6.756,6.756,0,0,1-1.756-7.872,18.056,18.056,0,0,0,1.3-7.064c0-.558-.015-1.114,0-1.672a10.4,10.4,0,0,0-.753-4.431,11.354,11.354,0,0,1,.335-8.945,31.153,31.153,0,0,1,2.9-5.2,12.338,12.338,0,0,0,2.285-4.389v-1.393a.993.993,0,0,1-.125-.237A3.938,3.938,0,0,0,4365.6,2767.742Zm-26.015,24.007c-.836,0-1.364-.446-1.393-1.129a1.194,1.194,0,0,1,1.323-1.2c2.327-.014,4.64,0,6.968,0,3.064,0,6.131.014,9.194-.014.5,0,.7.154.767.642.07.543.209,1.073.335,1.713h-5Q4345.67,2791.742,4339.582,2791.749Zm1.882,19.771a.716.716,0,1,0-.1.028c.335-1.31.767-2.647.976-4.013a9.432,9.432,0,0,0-.711-4.486c-.459-1.3-.767-2.647-1.185-4.11h2.675a23.1,23.1,0,0,0,.029,2.968c.194,1.631.515,3.247.835,4.848A3.969,3.969,0,0,1,4341.464,2811.519Zm-.837-15.033v-2.257h21.3v2.257Zm20.357,6.354a9.564,9.564,0,0,0,.334,8.569c.015.042.015.083.027.125a3.494,3.494,0,0,1-2.827-3,5.914,5.914,0,0,1,.042-1.728c.542-2.577,1.155-5.155.765-7.858h2.717A30.494,30.494,0,0,1,4360.984,2802.84Zm5.643-30.514a7.187,7.187,0,0,1-1.06,2.146,25.569,25.569,0,0,0-4.234,7.622,14.937,14.937,0,0,0-.2,9.237c.027.083.027.181.068.418-.57,0-1.086.028-1.573-.014-.154-.014-.362-.251-.419-.418a20.927,20.927,0,0,1,2.049-16.761c.711-1.2,1.449-2.382,2.2-3.553a1.677,1.677,0,0,1,2.2-.794A1.653,1.653,0,0,1,4366.627,2772.326Z" transform="translate(-4297.779 -2743.039)"/>
  <path id="Path_353" data-name="Path 353" class="cls-1" d="M4087.4,2659.726a7.667,7.667,0,0,1-6.38-3.762,10.747,10.747,0,0,1-1.506-5.5c-.027-1.045-.432-1.408-1.462-1.422h-.863v-39.165h5.893c0,1.588-.014,3.121,0,4.653a1.177,1.177,0,0,0,1.227,1.227,1.153,1.153,0,0,0,1.128-1.24c.015-1.087,0-2.188,0-3.274v-1.422h1.979c1.365-.014,1.811-.6,1.435-1.895-1.5-5.253-3-10.519-4.542-15.772a5.622,5.622,0,0,0-.851-1.351h-15.047a5.171,5.171,0,0,0-.851,1.268c-1.547,5.267-3.052,10.548-4.556,15.828-.376,1.31.07,1.909,1.421,1.909h10.254v39.221h-.808c-1.115.014-1.478.376-1.533,1.5a11.864,11.864,0,0,1-.181,1.867c-.571,3.052-2.034,5.49-5.016,6.7a13.87,13.87,0,0,1-3.037.627c-.753.112-1.365.558-1.227,1.2a3.988,3.988,0,0,0,.794,1.2h24.521c.488-.4.976-.794.753-1.547S4088.082,2659.768,4087.4,2659.726Zm-21.749-52.346c1.352-4.751,2.7-9.446,4.04-14.169h12.484c1.337,4.681,2.689,9.39,4.055,14.169Zm5.225,52.319c2.829-3.135,3.247-4.473,3.887-8.249h2.4a12.336,12.336,0,0,0,3.93,8.249Z" transform="translate(-4062.857 -2590.8)"/>
  <path id="Path_354" data-name="Path 354" class="cls-1" d="M4293.809,2590.8a1.735,1.735,0,0,0-.809,1.644c.028,1.7.014,3.386.014,5.086v13.027c0,1.281.363,1.644,1.673,1.658h.417q17.723,0,35.445.013a1.853,1.853,0,0,0,1.715-.794v-20.621Q4312.993,2590.793,4293.809,2590.8Zm36.044,18.963h-34.387v-16.552h34.387Z" transform="translate(-4260.935 -2590.8)"/>
  <path id="Path_355" data-name="Path 355" class="cls-1" d="M4184.639,2637.179c0-.781.028-1.575,0-2.355a1.154,1.154,0,0,0-1.227-1.225,1.135,1.135,0,0,0-1.142,1.225c-.028,1.533-.028,3.052,0,4.585a1.2,1.2,0,0,0,1.157,1.31,1.224,1.224,0,0,0,1.226-1.31c.014-.753-.014-1.491-.014-2.229Z" transform="translate(-4165.615 -2627.635)"/>
  <path id="Path_356" data-name="Path 356" class="cls-1" d="M4116.3,2634.854a1.145,1.145,0,0,0-1.185-1.254,1.165,1.165,0,0,0-1.185,1.267c-.013,1.533-.013,3.052,0,4.584a1.208,1.208,0,0,0,1.2,1.268,1.174,1.174,0,0,0,1.17-1.282c.014-.766,0-1.532,0-2.3h0C4116.317,2636.387,4116.332,2635.62,4116.3,2634.854Z" transform="translate(-4106.81 -2627.637)"/>
  <path id="Path_357" data-name="Path 357" class="cls-1" d="M4150.469,2634.894c-.027-.808-.445-1.282-1.142-1.3a1.168,1.168,0,0,0-1.227,1.3c-.027,1.5-.015,3.009,0,4.514a1.19,1.19,0,1,0,2.368,0c.015-.766,0-1.532,0-2.285h0v-1.114C4150.469,2635.632,4150.483,2635.27,4150.469,2634.894Z" transform="translate(-4136.209 -2627.635)"/>
  <path id="Path_358" data-name="Path 358" class="cls-1" d="M4329.016,2636.784h26.528c1.2,0,1.575-.389,1.575-1.588v-8.638c0-1.281-.376-1.657-1.658-1.657h-26.473c-1.212,0-1.588.376-1.588,1.574v8.708C4327.4,2636.436,4327.749,2636.784,4329.016,2636.784Zm.808-9.474h24.87v7.022h-24.87Z" transform="translate(-4290.541 -2620.149)"/>
  <path id="Path_359" data-name="Path 359" class="cls-1" d="M4380.489,2658.961c-.168-.014-.32,0-.488,0h-17.138c-.877,0-1.379.488-1.365,1.24.013.711.5,1.129,1.365,1.129h17.556a1.2,1.2,0,0,0,1.282-1.184A1.227,1.227,0,0,0,4380.489,2658.961Z" transform="translate(-4319.888 -2649.459)"/>
</svg>
