<?xml version="1.0" standalone="no"?>
<!DOCTYPE svg PUBLIC "-//W3C//DTD SVG 20010904//EN"
 "http://www.w3.org/TR/2001/REC-SVG-20010904/DTD/svg10.dtd">
<svg version="1.0" xmlns="http://www.w3.org/2000/svg"
 width="626.000000pt" height="626.000000pt" viewBox="0 0 626.000000 626.000000"
 preserveAspectRatio="xMidYMid meet">

<g transform="translate(0.000000,626.000000) scale(0.100000,-0.100000)"
fill="#444444" stroke="none">
<path d="M587 6236 c-147 -61 -309 -216 -393 -376 -26 -50 -29 -64 -29 -158
l0 -103 80 -76 c44 -42 132 -126 195 -187 63 -61 171 -165 240 -231 69 -66
186 -178 261 -250 120 -116 233 -223 634 -605 60 -58 134 -127 163 -154 l52
-49 0 -2024 0 -2023 2160 0 2160 0 -2 3008 -3 3007 -2155 0 -2155 0 -3 -343
c-1 -193 -6 -342 -11 -340 -7 2 -310 290 -415 394 -12 11 -109 104 -216 205
-382 363 -334 327 -440 328 -47 0 -81 -6 -123 -23z m3451 -1308 l-3 -553 -275
-5 -275 -5 0 -50 0 -50 528 -3 527 -2 0 -1860 0 -1860 -350 0 -350 0 0 120 0
120 -110 0 -110 0 0 -120 0 -120 -645 0 -645 0 0 990 0 989 83 3 82 3 3 108 3
107 -86 0 -85 0 0 385 c0 229 4 385 9 385 5 0 23 -13 39 -30 35 -34 50 -38 58
-12 22 69 66 159 117 236 106 160 309 341 442 392 25 9 45 20 45 23 0 4 -28
34 -62 66 -92 86 -448 426 -555 529 l-93 90 0 331 c0 182 3 335 7 338 3 4 388
7 855 7 l848 0 -2 -552z m257 -3 l0 -550 -67 -3 -68 -3 0 556 0 556 68 -3 67
-3 0 -550z m243 3 l-3 -553 -60 0 -60 0 -3 553 -2 552 65 0 65 0 -2 -552z
m250 0 l-3 -553 -65 0 -65 0 -3 540 c-1 297 0 546 3 553 3 8 27 12 70 12 l65
0 -2 -552z m240 0 l-3 -553 -60 0 -60 0 -3 553 -2 552 65 0 65 0 -2 -552z
m252 -3 l0 -556 -62 3 -63 3 -3 553 -2 552 65 0 65 0 0 -555z m278 3 l-3 -553
-75 0 -75 0 -3 553 -2 552 80 0 80 0 -2 -552z m4 -1805 c2 -626 2 -1148 0
-1160 l-3 -23 -455 0 -454 0 0 1160 0 1160 455 0 455 0 2 -1137z m-2 -1938 l0
-645 -455 0 -455 0 0 638 c0 351 3 642 7 645 3 4 208 7 455 7 l448 0 0 -645z"/>
<path d="M3039 4070 c-73 -22 -205 -117 -299 -217 -62 -64 -160 -186 -160
-199 0 -3 -9 -19 -20 -35 -31 -43 -80 -168 -80 -203 0 -55 24 -71 120 -81 36
-4 90 -11 120 -16 104 -17 433 -50 446 -45 8 3 14 15 14 27 0 32 47 89 87 106
25 10 34 19 30 31 -2 9 -26 89 -52 177 -26 88 -65 223 -87 300 -22 77 -45 146
-50 153 -12 13 -30 14 -69 2z m60 -355 c34 -115 61 -217 61 -225 -1 -8 -18
-34 -38 -58 l-38 -43 -217 25 c-119 14 -227 28 -241 32 l-25 6 22 46 c40 87
110 184 196 275 85 90 198 174 212 160 4 -5 35 -102 68 -218z"/>
<path d="M3262 3327 c-35 -37 -28 -67 26 -110 52 -42 80 -52 117 -43 19 5 25
13 25 34 -1 36 -16 61 -66 105 -48 43 -72 46 -102 14z"/>
<path d="M2830 2630 l0 -110 155 0 155 0 0 110 0 110 -155 0 -155 0 0 -110z"/>
<path d="M3470 2630 l0 -110 75 0 75 0 0 -60 0 -60 110 0 110 0 0 170 0 170
-185 0 -185 0 0 -110z"/>
<path d="M3620 1910 l0 -161 108 3 107 3 0 155 0 155 -107 3 -108 3 0 -161z"/>
<path d="M3620 1270 l0 -161 108 3 107 3 0 155 0 155 -107 3 -108 3 0 -161z"/>
</g>
</svg>
