<svg id="Group_3764" data-name="Group 3764" xmlns="http://www.w3.org/2000/svg" viewBox="0 0 55.208 75.049">
  <defs>
    <style>
      .cls-1 {
        fill: #444;
      }
    </style>
  </defs>
  <path id="Path_378" data-name="Path 378" class="cls-1" d="M2613.9,1318.932c.913.232,1.839.442,2.731.758a4.5,4.5,0,0,0,3.637-.211c.337-.161.667-.344.99-.527a6.064,6.064,0,0,0,3.3-4.648c.014-.105.042-.2.063-.309a8.183,8.183,0,0,1,4.732-6.066c.309-.14.6-.309.9-.47a4.727,4.727,0,0,0,2.184-2.429,16.946,16.946,0,0,0,.6-1.833,5.127,5.127,0,0,0-.9-4.739c-.119-.155-.225-.33-.337-.492a7.475,7.475,0,0,1-1.25-2.949,11.98,11.98,0,0,1-.063-3.911c.161-1.074.407-2.135.548-3.216a5.691,5.691,0,0,0-3.854-6.094c-.674-.225-1.362-.414-2.05-.618a8.91,8.91,0,0,1-5.631-4.479c-.176-.33-.358-.653-.548-.983a6.433,6.433,0,0,0-6.888-3.047,8.078,8.078,0,0,0-2.464,1.151,10.244,10.244,0,0,1-5.069,1.573,12.909,12.909,0,0,1-3.658-.562,10.307,10.307,0,0,0-2.3-.379A5.8,5.8,0,0,0,2595,1276a4.891,4.891,0,0,0-1.685,2.907,11.939,11.939,0,0,1-6.621,8.4,4.141,4.141,0,0,0-2.275,2.619,6.893,6.893,0,0,0-.379,3.855,7.816,7.816,0,0,0,1.264,2.45,8.3,8.3,0,0,1,1.4,5.189,13.871,13.871,0,0,1-.751,3.454,5.3,5.3,0,0,0,.267,3.932c.189.414.414.814.632,1.215a5.016,5.016,0,0,0,4.044,2.78,7.853,7.853,0,0,1,4.894,2.507,7.991,7.991,0,0,1,1.776,2.914,4.112,4.112,0,0,0,2.5,2.591c1.067.407,2.163.751,3.265,1.053a4.461,4.461,0,0,0,4.564-1.109,7.583,7.583,0,0,1,5.266-1.861A2.682,2.682,0,0,1,2613.9,1318.932ZM2590.42,1297.1a18.136,18.136,0,1,1,18.122,18.192A18.141,18.141,0,0,1,2590.42,1297.1Z" transform="translate(-2581.995 -1272.523)"/>
  <path id="Path_379" data-name="Path 379" class="cls-1" d="M3010.575,1966a34.957,34.957,0,0,1-7.667,4.543,33.89,33.89,0,0,1-8.608,2.17l8.489,19.533c.028,0,.056-.007.084-.007,1.271-4.269,2.549-8.538,3.826-12.835,4.03,1.9,8.011,3.784,12.091,5.708C3016.03,1978.695,3013.313,1972.368,3010.575,1966Z" transform="translate(-2963.582 -1917.309)"/>
  <path id="Path_380" data-name="Path 380" class="cls-1" d="M2556.8,1995.985a.422.422,0,0,1,.063.049c3.981-1.882,7.962-3.763,11.978-5.659,1.285,4.318,2.555,8.587,3.862,12.954,2.823-6.459,5.6-12.821,8.4-19.245a29.488,29.488,0,0,1-16.128-6.284C2562.228,1983.909,2559.51,1989.947,2556.8,1995.985Z" transform="translate(-2556.8 -1928.281)"/>
  <path id="Path_381" data-name="Path 381" class="cls-1" d="M2726.469,1399a15.763,15.763,0,1,0,15.763,15.756A15.76,15.76,0,0,0,2726.469,1399Zm-2.233,23.992c-2.4-2.4-4.837-4.838-7.246-7.239l3.019-3.04c1.376,1.376,2.787,2.8,4.227,4.241q5.287-5.3,10.476-10.5c1.046,1.053,2.05,2.057,3.019,3.04C2733.259,1413.962,2728.744,1418.477,2724.237,1422.992Z" transform="translate(-2699.894 -1390.12)"/>
</svg>
