<svg id="Group_3757" data-name="Group 3757" xmlns="http://www.w3.org/2000/svg" viewBox="0 0 49.999 69.036">
  <defs>
    <style>
      .cls-1 {
        fill: #444;
      }
    </style>
  </defs>
  <path id="Path_317" data-name="Path 317" class="cls-1" d="M1265.769,3139.048v-13.04h.016q0-13-.008-26.009a10.138,10.138,0,0,0-.214-2.19,8.137,8.137,0,0,0-8.018-6.35q-8.9-.012-17.784,0h-15.7a7.987,7.987,0,0,0-5.551,2.111,8.163,8.163,0,0,0-2.72,6.366q.012,23.023.008,46.055c0,2.135-.024,4.27.008,6.405a8.169,8.169,0,0,0,8.177,8.089q16.82.012,33.639,0a7.7,7.7,0,0,0,3.9-1,8.02,8.02,0,0,0,4.262-7.3C1265.8,3147.8,1265.777,3143.421,1265.769,3139.048Zm-2.016-13.055v12.1c0,4.673.008,9.355-.008,14.028a6.111,6.111,0,0,1-4.673,6.129,6.959,6.959,0,0,1-1.566.2c-4.729.015-9.466.008-14.194.008h-19.129a6.165,6.165,0,0,1-6.35-6.263c-.024-2.546-.008-5.085-.008-7.631q0-22.335-.008-44.678a6.2,6.2,0,0,1,3.914-5.946,6.793,6.793,0,0,1,2.309-.443q16.76-.047,33.529-.016a6.146,6.146,0,0,1,6.168,5.994c.055,2.554.016,5.108.024,7.663Q1263.749,3116.562,1263.753,3125.993Z" transform="translate(-1215.792 -3091.456)"/>
  <path id="Path_318" data-name="Path 318" class="cls-1" d="M1332.251,3184.829q.012-5.017,0-10.043a2.834,2.834,0,0,0-2.91-2.886h-31.67a2.811,2.811,0,0,0-2.878,2.791q-.036,5.1,0,10.2a2.807,2.807,0,0,0,2.87,2.808h31.7A2.82,2.82,0,0,0,1332.251,3184.829Zm-18.765,1.241h-15.57c-1.02,0-1.471-.443-1.471-1.463v-9.639a1.839,1.839,0,0,1,.047-.467,1.133,1.133,0,0,1,1.25-.957h31.5a1.21,1.21,0,0,1,1.368,1.352q.012,4.9,0,9.805a1.227,1.227,0,0,1-1.392,1.376Q1321.351,3186.067,1313.486,3186.071Z" transform="translate(-1288.529 -3165.539)"/>
  <path id="Path_319" data-name="Path 319" class="cls-1" d="M1424.106,3541.04c.806.008,1.605,0,2.412,0h2.372a1.07,1.07,0,0,0,1.178-1.178v-4.745a1.078,1.078,0,0,0-1.17-1.187c-1.589-.008-3.187-.008-4.784,0a1.07,1.07,0,0,0-1.154,1.163c-.008,1.6,0,3.187,0,4.784A1.056,1.056,0,0,0,1424.106,3541.04Zm-.119-5.242a.766.766,0,0,1,.846-.831c1.123-.008,2.238-.008,3.361,0a.769.769,0,0,1,.838.838c.008,1.123.008,2.238,0,3.361a.768.768,0,0,1-.862.846c-.554.008-1.107,0-1.661,0-.569,0-1.131.008-1.7,0a.753.753,0,0,1-.814-.815C1423.979,3538.067,1423.979,3536.928,1423.987,3535.8Z" transform="translate(-1406.574 -3498.936)"/>
  <path id="Path_320" data-name="Path 320" class="cls-1" d="M1684.823,3534.031q-2.372-.011-4.745,0a1.081,1.081,0,0,0-1.178,1.178v4.737a1.071,1.071,0,0,0,1.17,1.186c1.589.008,3.187.008,4.776,0a1.057,1.057,0,0,0,1.155-1.155c.008-.807,0-1.605,0-2.412v-2.333A1.071,1.071,0,0,0,1684.823,3534.031Zm.158,5.235a.759.759,0,0,1-.862.838c-1.107.008-2.206.008-3.313,0a.761.761,0,0,1-.862-.846c-.008-1.115-.008-2.238,0-3.353a.768.768,0,0,1,.862-.846c.569-.008,1.131,0,1.7,0,.538,0,1.075-.008,1.621,0a.768.768,0,0,1,.862.846C1684.989,3537.028,1684.989,3538.144,1684.981,3539.266Z" transform="translate(-1642.279 -3499.029)"/>
  <path id="Path_321" data-name="Path 321" class="cls-1" d="M1684.915,3790.031c-1.582-.008-3.163-.008-4.737,0a1.077,1.077,0,0,0-1.178,1.178v4.737a1.069,1.069,0,0,0,1.2,1.186h4.705a1.075,1.075,0,0,0,1.2-1.194v-4.7A1.094,1.094,0,0,0,1684.915,3790.031Zm.158,5.25a.76.76,0,0,1-.846.823c-.569.008-1.131,0-1.7,0-.553,0-1.107.008-1.661,0a.763.763,0,0,1-.838-.831c-.008-1.123-.008-2.238,0-3.36a.766.766,0,0,1,.83-.847c1.131-.008,2.27-.008,3.4,0a.756.756,0,0,1,.815.814C1685.081,3793.012,1685.081,3794.151,1685.073,3795.282Z" transform="translate(-1642.371 -3734.785)"/>
  <path id="Path_322" data-name="Path 322" class="cls-1" d="M1428.962,3790.031q-2.408-.012-4.816,0a1.074,1.074,0,0,0-1.147,1.17v4.776a1.053,1.053,0,0,0,1.162,1.146c.791.008,1.582,0,2.373,0h2.412a1.063,1.063,0,0,0,1.162-1.146c.008-1.59.008-3.187,0-4.776A1.078,1.078,0,0,0,1428.962,3790.031Zm.111,5.227a.765.765,0,0,1-.862.846H1424.9a.777.777,0,0,1-.87-.878c-.008-.569,0-1.131,0-1.7v-1.582c.008-.593.277-.886.862-.886,1.115-.008,2.238-.008,3.353,0a.764.764,0,0,1,.83.838C1429.081,3793.021,1429.073,3794.144,1429.073,3795.258Z" transform="translate(-1406.615 -3734.785)"/>
  <path id="Path_323" data-name="Path 323" class="cls-1" d="M1300.939,3790.031c-1.59-.008-3.187-.008-4.776,0a1.088,1.088,0,0,0-1.162,1.2v4.7a1.076,1.076,0,0,0,1.186,1.2c.775.008,1.55,0,2.333,0h2.372a1.08,1.08,0,0,0,1.218-1.218v-4.7A1.085,1.085,0,0,0,1300.939,3790.031Zm.134,5.274a.752.752,0,0,1-.83.8c-.569.008-1.131,0-1.7,0s-1.131.008-1.7,0a.746.746,0,0,1-.814-.807c-.008-1.146-.008-2.286,0-3.432a.748.748,0,0,1,.791-.8c1.154-.008,2.317-.008,3.472,0a.739.739,0,0,1,.775.806C1301.081,3793.021,1301.081,3794.159,1301.073,3795.306Z" transform="translate(-1288.736 -3734.785)"/>
  <path id="Path_324" data-name="Path 324" class="cls-1" d="M1302.06,3407.2a1.07,1.07,0,0,0-1.146-1.171q-2.408-.011-4.816,0a1.063,1.063,0,0,0-1.139,1.139c-.008,1.605,0,3.211,0,4.816a1.064,1.064,0,0,0,1.162,1.146c.791.008,1.582,0,2.372,0,.807,0,1.605.008,2.412,0a1.074,1.074,0,0,0,1.162-1.155C1302.068,3410.388,1302.068,3408.791,1302.06,3407.2Zm-1.028,4.1a.752.752,0,0,1-.83.8c-.569.008-1.131,0-1.7,0h0c-.57,0-1.131.008-1.7,0a.743.743,0,0,1-.814-.807c-.008-1.146-.008-2.285,0-3.431a.749.749,0,0,1,.791-.8c1.154-.008,2.317-.008,3.471,0a.74.74,0,0,1,.775.807C1301.04,3409.021,1301.04,3410.167,1301.032,3411.306Z" transform="translate(-1288.696 -3381.15)"/>
  <path id="Path_325" data-name="Path 325" class="cls-1" d="M1684.962,3662.031q-2.408-.012-4.815,0A1.074,1.074,0,0,0,1679,3663.2v4.776a1.06,1.06,0,0,0,1.154,1.155c.791.008,1.582,0,2.372,0,.815,0,1.629.008,2.451,0a1.067,1.067,0,0,0,1.131-1.147c.008-1.589.008-3.187,0-4.776A1.08,1.08,0,0,0,1684.962,3662.031Zm.111,5.188c0,.609-.285.885-.9.885H1680.9a.767.767,0,0,1-.87-.878c-.008-1.107-.008-2.206,0-3.313a.765.765,0,0,1,.862-.846c.554-.008,1.107,0,1.661,0s1.107-.008,1.661,0a.777.777,0,0,1,.87.878C1685.073,3665.036,1685.073,3666.127,1685.073,3667.219Z" transform="translate(-1642.371 -3616.906)"/>
  <path id="Path_326" data-name="Path 326" class="cls-1" d="M1556.945,3661.994c-1.621-.016-3.242-.008-4.855,0a1.078,1.078,0,0,0-1.131,1.155c-.008,1.6,0,3.21,0,4.815a1.053,1.053,0,0,0,1.139,1.131c.807.008,1.605,0,2.412,0h2.372a1.064,1.064,0,0,0,1.186-1.162c.008-1.59.008-3.187,0-4.777A1.078,1.078,0,0,0,1556.945,3661.994Zm.087,5.188c0,.6-.285.878-.9.886h-3.282a.762.762,0,0,1-.862-.838c-.008-1.115-.008-2.238,0-3.353a.765.765,0,0,1,.862-.846c1.107-.008,2.206-.008,3.313,0a.774.774,0,0,1,.862.886C1557.032,3665,1557.032,3666.09,1557.032,3667.181Z" transform="translate(-1524.452 -3616.869)"/>
  <path id="Path_327" data-name="Path 327" class="cls-1" d="M1422.931,3667.97a1.065,1.065,0,0,0,1.186,1.162h4.745a1.061,1.061,0,0,0,1.178-1.17v-4.737a1.088,1.088,0,0,0-1.17-1.194c-1.589-.008-3.187-.008-4.776,0a1.072,1.072,0,0,0-1.162,1.163C1422.923,3664.783,1422.923,3666.372,1422.931,3667.97Zm1.028-4.088a.752.752,0,0,1,.814-.815c1.147-.008,2.285-.008,3.432,0a.753.753,0,0,1,.8.791c.008,1.155.008,2.317,0,3.472a.743.743,0,0,1-.807.775c-.577.008-1.154,0-1.74,0-.554,0-1.107.008-1.661,0a.759.759,0,0,1-.838-.83Q1423.947,3665.578,1423.959,3663.882Z" transform="translate(-1406.546 -3616.906)"/>
  <path id="Path_328" data-name="Path 328" class="cls-1" d="M1300.873,3662.108c-1.629-.008-3.266-.008-4.895-.008a1.073,1.073,0,0,0-1.147,1.138q-.012,2.409,0,4.816a1.053,1.053,0,0,0,1.162,1.146c.791.008,1.582,0,2.372,0,.83,0,1.661.008,2.491,0a1.023,1.023,0,0,0,1.076-1.028c.016-1.668.016-3.345,0-5.021A1.027,1.027,0,0,0,1300.873,3662.108Zm.04,5.227a.76.76,0,0,1-.83.838c-.569.008-1.131,0-1.7,0s-1.131.008-1.7,0a.747.747,0,0,1-.814-.807c-.008-1.146-.008-2.285,0-3.431a.749.749,0,0,1,.791-.8c1.147-.008,2.285-.008,3.432,0a.77.77,0,0,1,.823.854C1300.912,3665.1,1300.92,3666.22,1300.912,3667.335Z" transform="translate(-1288.575 -3616.976)"/>
  <path id="Path_329" data-name="Path 329" class="cls-1" d="M1556.945,3534.031q-2.432-.011-4.855,0a1.078,1.078,0,0,0-1.131,1.155c-.008,1.605,0,3.21,0,4.815a1.057,1.057,0,0,0,1.139,1.131c.807.008,1.605,0,2.412,0s1.605.008,2.412,0a1.061,1.061,0,0,0,1.147-1.163c0-1.589.008-3.187,0-4.776A1.078,1.078,0,0,0,1556.945,3534.031Zm.087,5.235a.759.759,0,0,1-.862.838h-1.7c-.553,0-1.107.008-1.661,0a.75.75,0,0,1-.822-.8c-.008-1.147-.008-2.285,0-3.432a.756.756,0,0,1,.822-.806q1.7-.012,3.392,0a.756.756,0,0,1,.823.846C1557.04,3537.028,1557.04,3538.144,1557.032,3539.266Z" transform="translate(-1524.452 -3499.029)"/>
  <path id="Path_330" data-name="Path 330" class="cls-1" d="M1300.823,3534.031c-1.582-.008-3.163-.008-4.737,0a1.087,1.087,0,0,0-1.186,1.178v4.737a1.073,1.073,0,0,0,1.2,1.186h4.705a1.075,1.075,0,0,0,1.2-1.194v-4.7A1.085,1.085,0,0,0,1300.823,3534.031Zm.158,5.227a.765.765,0,0,1-.854.846h-3.313a.77.77,0,0,1-.87-.878c-.008-1.107-.008-2.206,0-3.313a.774.774,0,0,1,.862-.854c1.107-.008,2.206-.008,3.313,0a.77.77,0,0,1,.87.878c.008.553,0,1.107,0,1.66S1300.989,3538.7,1300.981,3539.258Z" transform="translate(-1288.644 -3499.029)"/>
  <path id="Path_331" data-name="Path 331" class="cls-1" d="M1684.938,3406.031c-1.621-.008-3.242-.008-4.855,0a1.067,1.067,0,0,0-1.123,1.155c-.008,1.606,0,3.21,0,4.816a1.059,1.059,0,0,0,1.147,1.13c.807.008,1.605,0,2.412,0s1.637.008,2.451,0a1.04,1.04,0,0,0,1.1-1.091c.008-1.629.008-3.266,0-4.895A1.062,1.062,0,0,0,1684.938,3406.031Zm.095,5.275a.75.75,0,0,1-.822.8c-.569.008-1.131,0-1.7,0s-1.131.008-1.7,0a.752.752,0,0,1-.823-.807c-.008-1.146-.008-2.285,0-3.431a.745.745,0,0,1,.791-.8c1.154-.008,2.317-.008,3.471,0a.75.75,0,0,1,.783.807C1685.04,3409.021,1685.04,3410.159,1685.032,3411.306Z" transform="translate(-1642.33 -3381.15)"/>
  <path id="Path_332" data-name="Path 332" class="cls-1" d="M1428.97,3406.031q-2.408-.011-4.816,0A1.084,1.084,0,0,0,1423,3407.2v4.776a1.06,1.06,0,0,0,1.155,1.155c.791.008,1.582,0,2.372,0,.815,0,1.629.008,2.451,0a1.053,1.053,0,0,0,1.131-1.139q.012-2.408,0-4.816A1.073,1.073,0,0,0,1428.97,3406.031Zm.1,5.235a.763.763,0,0,1-.83.838q-1.7.012-3.393,0a.746.746,0,0,1-.814-.807c-.008-1.146-.008-2.285,0-3.431a.749.749,0,0,1,.791-.8c1.155-.008,2.317-.008,3.471,0a.744.744,0,0,1,.775.807c.008.577,0,1.154,0,1.74C1429.073,3410.167,1429.081,3410.713,1429.073,3411.266Z" transform="translate(-1406.615 -3381.15)"/>
  <path id="Path_333" data-name="Path 333" class="cls-1" d="M1556.873,3789.962q-2.491-.023-4.982,0a1.046,1.046,0,0,0-1.06,1.1q-.012,2.467,0,4.942a1.033,1.033,0,0,0,1.052,1.06c1.669.008,3.345.008,5.013,0a1.033,1.033,0,0,0,1.036-1.075V3793.5h.008c0-.806.008-1.6,0-2.412A1.045,1.045,0,0,0,1556.873,3789.962Zm.039,5.25a.744.744,0,0,1-.83.823h-1.661c-.577,0-1.154.008-1.74,0a.756.756,0,0,1-.815-.814q-.012-1.7,0-3.392a.756.756,0,0,1,.838-.831c1.115-.008,2.238-.008,3.353,0a.765.765,0,0,1,.846.862C1556.912,3792.975,1556.92,3794.1,1556.912,3795.213Z" transform="translate(-1524.332 -3734.716)"/>
  <path id="Path_334" data-name="Path 334" class="cls-1" d="M1556.949,3405.963q-2.467-.024-4.934,0a1.05,1.05,0,0,0-1.083,1.115c-.008,1.628-.008,3.266,0,4.894a1.059,1.059,0,0,0,1.139,1.091h4.666c.909,0,1.3-.387,1.3-1.289,0-1.55-.008-3.108-.008-4.658A1.065,1.065,0,0,0,1556.949,3405.963Zm.047,5.353a.718.718,0,0,1-.783.712c-.577.008-1.154,0-1.74,0s-1.154.008-1.74,0a.728.728,0,0,1-.775-.767q-.024-1.756,0-3.511a.734.734,0,0,1,.751-.759c1.186-.016,2.372-.016,3.55,0a.718.718,0,0,1,.735.728C1557.012,3408.928,1557.012,3410.122,1557,3411.316Z" transform="translate(-1524.424 -3381.081)"/>
</svg>
