<svg id="Group_3765" data-name="Group 3765" xmlns="http://www.w3.org/2000/svg" viewBox="0 0 70.973 70.98">
  <defs>
    <style>
      .cls-1 {
        fill: #444;
      }
    </style>
  </defs>
  <path id="Path_382" data-name="Path 382" class="cls-1" d="M3365.421,2683.359v-.809c0-6.9-.014-13.817,0-20.719a11.734,11.734,0,0,0-1.906-6.554,9.823,9.823,0,0,0-7.031-4.433,3.4,3.4,0,0,1-.52-.145h-2.772a22.3,22.3,0,0,0-2.382.636,10.015,10.015,0,0,0-6.194,7.2,1.537,1.537,0,0,1-.982,1.155,8.507,8.507,0,0,0-4.75,4.5,21.5,21.5,0,0,0-.794,2.815h16.388c-.3-3.682-2.44-5.935-5.544-7.45a5.982,5.982,0,0,1,5.818-4.288c3.437.042,5.573,1.732,6.15,4.894a10.744,10.744,0,0,1,.13,1.935c.015,6.814,0,13.629,0,20.444v.88h-.968q-29.736,0-59.457-.014c-1.689,0-2.859.563-3.407,2.209v1.386a2.7,2.7,0,0,0,2.743,1.574v.78c0,3.147.086,6.28-.029,9.429a13.125,13.125,0,0,0,4.028,9.832,15.954,15.954,0,0,0,6.974,4.346,1.469,1.469,0,0,1,.3.13,3.785,3.785,0,0,1-2.9,3.509,5.267,5.267,0,0,0-1.689.895,2.246,2.246,0,0,0-.809,2.657,2.376,2.376,0,0,0,2.339,1.517,6.06,6.06,0,0,0,5.66-3.336,23.811,23.811,0,0,0,1.372-4.245c.116-.433.231-.606.693-.606q16.806.022,33.612.015c.13,0,.274.014.361.014.332,1.184.578,2.354,1.011,3.465a6.532,6.532,0,0,0,4.635,4.461,6.236,6.236,0,0,0,2.195.174,2.115,2.115,0,0,0,1.516-3.307,3.037,3.037,0,0,0-2.007-1.487c-1.978-.448-2.671-1.935-3.148-3.7.3-.115.592-.2.866-.3,4.91-1.876,8.447-5.125,10.078-10.208a10.906,10.906,0,0,0,.4-3.075c.043-3.437.014-6.887.014-10.324v-.736c2.195-.433,2.671-.779,2.743-1.92C3368.265,2684.875,3367.529,2684.009,3365.421,2683.359Zm-3.87,5.588v10.179a9.9,9.9,0,0,1-9.991,10.107c-7.508.014-15.016,0-22.509,0-5.083,0-10.165.014-15.247,0a10.531,10.531,0,0,1-9.876-8.852c-.029-.317-.043-.649-.043-.967v-11.232h57.667Z" transform="translate(-3297.2 -2650.7)"/>
  <path id="Path_383" data-name="Path 383" class="cls-1" d="M3581.005,2811.55a1.3,1.3,0,0,0,1.545-.736,12.388,12.388,0,0,0,.4-1.415,1.407,1.407,0,0,0-1.025-1.545,1.289,1.289,0,0,0-1.575.794,7.31,7.31,0,0,0-.36,1.472A1.291,1.291,0,0,0,3581.005,2811.55Z" transform="translate(-3539.149 -2785.128)"/>
  <path id="Path_384" data-name="Path 384" class="cls-1" d="M3676.97,2808.559a1.294,1.294,0,0,0-1.559-.722,1.433,1.433,0,0,0-1.011,1.53,11.837,11.837,0,0,0,.433,1.458,1.281,1.281,0,0,0,1.5.708,1.3,1.3,0,0,0,1.025-1.371A6.331,6.331,0,0,0,3676.97,2808.559Z" transform="translate(-3619.938 -2785.112)"/>
  <path id="Path_385" data-name="Path 385" class="cls-1" d="M3629.528,2811.582c.91.014,1.372-.635,1.372-1.906v-.274c-.015-1-.506-1.587-1.329-1.6-.852-.014-1.372.592-1.372,1.617v.274C3628.2,2810.947,3628.633,2811.567,3629.528,2811.582Z" transform="translate(-3580.409 -2785.116)"/>
  <path id="Path_386" data-name="Path 386" class="cls-1" d="M3590.536,2777.064c1.083-.014,1.415-.837,1.516-2.007a1.32,1.32,0,0,0-1.358-1.357c-1.1.043-1.415.881-1.515,2.022A1.3,1.3,0,0,0,3590.536,2777.064Z" transform="translate(-3547.019 -2755.941)"/>
  <path id="Path_387" data-name="Path 387" class="cls-1" d="M3629.555,2777.106c.838,0,1.343-.636,1.343-1.661,0-1.112-.462-1.732-1.328-1.748s-1.372.607-1.372,1.69S3628.7,2777.106,3629.555,2777.106Z" transform="translate(-3580.407 -2755.939)"/>
  <path id="Path_388" data-name="Path 388" class="cls-1" d="M3667.26,2773.6a1.329,1.329,0,0,0-1.372,1.343c.086,1.169.418,1.992,1.5,2.036a1.347,1.347,0,0,0,1.386-1.329C3668.8,2774.5,3668.155,2773.614,3667.26,2773.6Z" transform="translate(-3612.654 -2755.855)"/>
  <path id="Path_389" data-name="Path 389" class="cls-1" d="M3572.464,2847.93a1.3,1.3,0,0,0,1.56-.708,7.526,7.526,0,0,0,.318-1.083,1.437,1.437,0,0,0-1.1-1.516,1.28,1.28,0,0,0-1.473.765,4.3,4.3,0,0,0-.289,1.2A1.289,1.289,0,0,0,3572.464,2847.93Z" transform="translate(-3531.878 -2816.598)"/>
  <path id="Path_390" data-name="Path 390" class="cls-1" d="M3683.7,2846.095c.014,1.184.621,1.978,1.5,1.978a1.338,1.338,0,0,0,1.358-1.357c0-1.169-.593-1.992-1.474-2.021A1.362,1.362,0,0,0,3683.7,2846.095Z" transform="translate(-3627.896 -2816.684)"/>
  <path id="Path_391" data-name="Path 391" class="cls-1" d="M3629.294,2844.544c-.708.115-1.1.678-1.1,1.6-.015,1.054.332,1.6,1.083,1.748.967.173,1.617-.477,1.617-1.618C3630.9,2845.063,3630.262,2844.37,3629.294,2844.544Z" transform="translate(-3580.406 -2816.533)"/>
</svg>
