<svg id="Group_3773" data-name="Group 3773" xmlns="http://www.w3.org/2000/svg" viewBox="0 0 62.659 68.965">
  <defs>
    <style>
      .cls-1 {
        fill: #444;
      }
    </style>
  </defs>
  <path id="Path_135" data-name="Path 135" class="cls-1" d="M258.822,233.481a11.885,11.885,0,1,0-23.709,1.638,11.926,11.926,0,0,0,12.293,10.754A11.787,11.787,0,0,0,258.822,233.481ZM254.4,231.81a43.434,43.434,0,0,0-7.429,9.232,1.517,1.517,0,0,1-2.747.132q-2.358-3.127-4.682-6.287c-.711-.96-.645-1.8.132-2.4.728-.546,1.621-.331,2.333.6,1.125,1.489,2.234,2.995,3.359,4.484,1.588-1.936,3.11-3.822,4.666-5.659.695-.811,1.489-1.539,2.267-2.283a1.542,1.542,0,0,1,2.217-.083A1.522,1.522,0,0,1,254.4,231.81Z" transform="translate(-196.182 -185.417)"/>
  <path id="Path_136" data-name="Path 136" class="cls-1" d="M51.886,109.421a1.3,1.3,0,0,0-.778.529,3.4,3.4,0,0,1-3.193,1.952H6.469a3.318,3.318,0,0,1-3.508-3.541V61.539a3.365,3.365,0,0,1,3.59-3.574c1.7-.017,3.425,0,5.129,0h.893V55.12a1.5,1.5,0,0,0-.347-.083c-2.019,0-4.037-.083-6.039.017A6.275,6.275,0,0,0,0,61.655v46.658a6.344,6.344,0,0,0,6.585,6.552q20.6,0,41.2-.017a8.5,8.5,0,0,0,2.647-.48,5.889,5.889,0,0,0,3.805-5.261C53.408,109.206,52.647,109.272,51.886,109.421Z" transform="translate(0 -45.904)"/>
  <path id="Path_137" data-name="Path 137" class="cls-1" d="M96.819,13.517h19.275a1.593,1.593,0,0,0,1.8-1.77c.017-2.019.017-4.02,0-6.039a1.555,1.555,0,0,0-1.787-1.77c-1.291-.017-2.6.033-3.888-.033a1.071,1.071,0,0,1-.761-.513A5.287,5.287,0,0,0,106.432,0a5.157,5.157,0,0,0-5.079,3.408.747.747,0,0,1-.86.529q-1.861-.025-3.723,0c-1.357,0-1.87.5-1.87,1.837v5.874C94.9,13.021,95.429,13.517,96.819,13.517ZM106.4,2.945a2.465,2.465,0,0,1,0,4.93,2.524,2.524,0,0,1-2.515-2.515A2.528,2.528,0,0,1,106.4,2.945Z" transform="translate(-79.199)"/>
  <path id="Path_138" data-name="Path 138" class="cls-1" d="M258.258,58.087c2.564,0,3.921,1.357,3.921,3.938V79.662c1.026.149,1.936.265,2.879.4a3.129,3.129,0,0,0,.05-.48c0-6.056.05-12.128-.017-18.183a6.127,6.127,0,0,0-5.725-6.155c-1.638-.149-3.309-.066-4.947-.083H252.5V58.1C254.452,58.087,256.355,58.087,258.258,58.087Z" transform="translate(-210.723 -46.025)"/>
  <path id="Path_139" data-name="Path 139" class="cls-1" d="M100.081,194.715c.017-.711-.546-.877-1.158-.844H69.654c-.248,0-.563-.083-.728.05a1.442,1.442,0,0,0-.629.827c-.017.232.364.546.629.711.182.116.48.033.728.033H98.906C99.518,195.493,100.064,195.377,100.081,194.715Z" transform="translate(-56.997 -161.773)"/>
  <path id="Path_140" data-name="Path 140" class="cls-1" d="M68.9,132.129c-.265.182-.6.5-.6.745,0,.265.347.579.612.728a1.855,1.855,0,0,0,.811.05H98.594a1.855,1.855,0,0,0,.811-.05c.281-.149.629-.463.645-.728.017-.248-.331-.579-.6-.761-.165-.116-.48-.066-.728-.066H69.607C69.375,132.08,69.078,132.014,68.9,132.129Z" transform="translate(-57 -110.19)"/>
  <path id="Path_141" data-name="Path 141" class="cls-1" d="M93.546,255.826H69.489c-.165,0-.381-.05-.48.033-.248.215-.6.48-.612.745-.017.248.314.6.579.745a2.348,2.348,0,0,0,.976.083H92.437c1.324,0,1.423-.1,1.671-1.555C93.926,255.859,93.744,255.826,93.546,255.826Z" transform="translate(-57.08 -213.486)"/>
  <path id="Path_142" data-name="Path 142" class="cls-1" d="M92.074,317.656H69.837c-.248,0-.546-.083-.728.033-.3.182-.728.513-.711.728.033.314.414.6.711.827.116.1.381.033.563.033H93.861C93.513,317.656,93.513,317.656,92.074,317.656Z" transform="translate(-57.081 -265.075)"/>
</svg>
