<svg id="Group_3772" data-name="Group 3772" xmlns="http://www.w3.org/2000/svg" viewBox="0 0 73.005 73">
  <defs>
    <style>
      .cls-1 {
        fill: #444;
      }
    </style>
  </defs>
  <path id="Path_143" data-name="Path 143" class="cls-1" d="M68.892,14.428a7.1,7.1,0,0,0,1.887-6.066,6.953,6.953,0,0,0-2.494-4.447A7.061,7.061,0,0,0,62.5,2.287a7.29,7.29,0,0,0-4.155,2.155q-9.833,9.847-19.679,19.684a2.43,2.43,0,0,0-.207.292Q26.192,12.15,14.047,0L0,14.047Q12.169,26.209,24.427,38.469a2.136,2.136,0,0,0-.306.2Q14.91,47.876,5.7,57.085a1.9,1.9,0,0,0-.536.866Q3.7,63.464,2.24,68.972a1.485,1.485,0,0,0,1.882,1.849L15.091,67.9a1.739,1.739,0,0,0,.819-.475Q41.865,41.462,67.819,15.51C68.177,15.152,68.548,14.8,68.892,14.428ZM4.3,14.014l9.722-9.722,2.4,2.4c-.607.6-1.238,1.233-1.849,1.845.725.725,1.426,1.435,2.136,2.146.612-.616,1.238-1.242,1.84-1.845.786.791,1.558,1.558,2.32,2.32-1.087,1.087-2.216,2.216-3.336,3.332.744.744,1.454,1.449,2.169,2.169l3.346-3.346c.786.786,1.558,1.553,2.353,2.348-.621.621-1.247,1.242-1.854,1.854.711.711,1.421,1.416,2.146,2.146.612-.612,1.238-1.247,1.854-1.863.786.781,1.553,1.553,2.325,2.32-1.115,1.115-2.24,2.24-3.346,3.341.725.725,1.431,1.435,2.151,2.151,1.1-1.1,2.226-2.226,3.346-3.35.791.8,1.562,1.562,2.348,2.348-.621.621-1.252,1.252-1.887,1.882.64.635,1.266,1.261,1.868,1.859l-7.859,7.859Zm9.755,50.977L8.07,59.01q25.644-25.644,51.3-51.3l5.981,5.981Q39.716,39.323,14.051,64.991Z"/>
  <path id="Path_144" data-name="Path 144" class="cls-1" d="M778.1,762.8l-3.939,4.08c.664.664,1.365,1.369,2.094,2.1.607-.621,1.233-1.256,1.835-1.878.791.791,1.562,1.562,2.362,2.358-1.12,1.115-2.249,2.245-3.336,3.332.711.715,1.421,1.421,2.155,2.16,1.1-1.1,2.221-2.226,3.322-3.322.762.762,1.529,1.534,2.329,2.329-.612.612-1.242,1.238-1.84,1.835.71.711,1.416,1.417,2.164,2.169.607-.612,1.238-1.238,1.831-1.835l2.3,2.3c-1.106,1.106-2.23,2.231-3.35,3.346l2.151,2.151c1.115-1.115,2.245-2.249,3.355-3.355l2.348,2.348c-.616.612-1.247,1.242-1.863,1.859l2.155,2.155c.617-.631,1.238-1.275,1.849-1.9.325.32.626.621.908.9l-9.788,9.788L766.2,774.828c-.715.71-1.407,1.4-2.1,2.085q11.548,11.5,23.081,22.992c4.649-4.64,9.322-9.308,13.967-13.948Q789.657,774.409,778.1,762.8Z" transform="translate(-728.144 -726.905)"/>
</svg>
