<svg id="Group_3770" data-name="Group 3770" xmlns="http://www.w3.org/2000/svg" viewBox="0 0 76.599 55.388">
  <defs>
    <style>
      .cls-1 {
        fill: #444;
      }
    </style>
  </defs>
  <path id="Path_431" data-name="Path 431" class="cls-1" d="M1552.708,927.993a4.432,4.432,0,0,0-5.143-.942c-1.7.794-3.4,1.588-5.106,2.364-1.237.563-2.465,1.145-3.721,1.653a6.556,6.556,0,0,1-4.183.3,7.7,7.7,0,0,1-4.146-12.142,10.1,10.1,0,0,1,2.715-2.29c2.964-1.884,6.047-3.536,9.141-5.18.074-.037.148-.083.249-.138a3.506,3.506,0,0,0-.314-.323,9.274,9.274,0,0,0-7.959-2.271,17.045,17.045,0,0,0-4.2,1.4,66.188,66.188,0,0,0-8.7,4.764,5.08,5.08,0,0,1-.766.406,7.671,7.671,0,0,1-5.531.111c-2.751-.942-5.494-1.92-8.245-2.881v26.546a2.545,2.545,0,0,1,.259.056c1.2.425,2.41.859,3.61,1.283.092.028.176.065.277.1.046-.111.074-.194.111-.277a8.311,8.311,0,0,1,9.076-5.383,7.142,7.142,0,0,1,6.306,5.254.419.419,0,0,0,.314.314,7.019,7.019,0,0,1,4.672,4.783.371.371,0,0,0,.249.259,7.363,7.363,0,0,1,4.783,5.134.578.578,0,0,0,.425.443,7.152,7.152,0,0,1,4.737,4.774,7.883,7.883,0,0,1,.3,3.5.471.471,0,0,0,.046.342,26.214,26.214,0,0,0,1.884,2.031,3.365,3.365,0,0,0,4.829-.452,3.4,3.4,0,0,0-.212-4.469c-1.034-1.108-2.077-2.2-3.093-3.324-.452-.508-.84-1.062-1.247-1.616a1.613,1.613,0,0,1-.157-.416c.027-.028.065-.046.092-.074a3.614,3.614,0,0,1,.6.369c.748.637,1.514,1.274,2.225,1.958,1.219,1.173,2.41,2.382,3.61,3.573a3.223,3.223,0,0,0,3.186.923,3.319,3.319,0,0,0,1.634-5.494c-1.126-1.237-2.244-2.475-3.333-3.73-.554-.637-1.062-1.311-1.57-1.976a3.13,3.13,0,0,1-.268-.489l.064-.065a2.171,2.171,0,0,1,.333.157c.416.332.859.646,1.237,1.016,1.782,1.727,3.564,3.472,5.328,5.226a3.35,3.35,0,0,0,4.8-4.672c-1-1.108-2-2.207-2.982-3.333-.637-.739-1.237-1.514-1.847-2.29a4,4,0,0,1-.314-.545l.074-.074a1.933,1.933,0,0,1,.388.2c.582.471,1.173.923,1.717,1.431,1.311,1.21,2.585,2.456,3.878,3.675a3.18,3.18,0,0,0,3.25.813,3.387,3.387,0,0,0,1.366-5.678Q1560.062,935.282,1552.708,927.993Z" transform="translate(-1506.8 -908.569)"/>
  <path id="Path_432" data-name="Path 432" class="cls-1" d="M1829.823,912.549v-.277c-.1.019-.175.028-.259.046q-5.512,1.219-11.015,2.447a4.68,4.68,0,0,1-4.044-.665q-3.421-2.881-6.823-5.78a18.191,18.191,0,0,0-2.834-2.124,5.222,5.222,0,0,0-2.844-.757,6.336,6.336,0,0,0-2.789.9q-6.883,3.836-13.758,7.691c-1.69.942-3.379,1.884-5.041,2.872a4.429,4.429,0,0,0,4.386,7.691l10.387-5.374a6.488,6.488,0,0,1,2.161-.757,4.388,4.388,0,0,1,3.9,1.219q7.936,7.853,15.881,15.706a5.217,5.217,0,0,0,4.192,1.533,15.432,15.432,0,0,0,1.948-.268c2.105-.379,4.2-.776,6.306-1.145.231-.037.249-.148.249-.333Z" transform="translate(-1753.224 -905.433)"/>
  <path id="Path_433" data-name="Path 433" class="cls-1" d="M1598.38,1246.474c-.277.037-.545.1-.84.157a4.057,4.057,0,0,0-4.884-5.6c.9-3.278-1.385-5.854-4.949-5.161.055-.416.129-.813.157-1.219a3.719,3.719,0,0,0-2.65-3.9,4.753,4.753,0,0,0-4.46.877,6.917,6.917,0,0,0-2.013,2.668,5.281,5.281,0,0,0-.517,3.25,3.006,3.006,0,0,0,3.5,2.465c.591-.1,1.173-.3,1.754-.462.194-.046.379-.1.619-.166-.065.185-.111.323-.157.462-.185.48-.378.96-.563,1.45a2.947,2.947,0,0,0,3.029,3.915c.646-.092,1.274-.3,1.911-.453.24-.055.471-.129.757-.212-.046.157-.083.268-.12.369-.194.517-.4,1.025-.573,1.551a2.8,2.8,0,0,0,.046,2.133,2.911,2.911,0,0,0,3.361,1.7c.776-.139,1.533-.379,2.3-.582.092-.028.185-.056.332-.092-.12.268-.212.471-.3.683-.194.471-.415.932-.582,1.413a2.994,2.994,0,0,0,1.755,3.915,4.471,4.471,0,0,0,1.514.268,6.9,6.9,0,0,0,4.478-1.607,4.8,4.8,0,0,0,1.81-3.343A4.05,4.05,0,0,0,1598.38,1246.474Z" transform="translate(-1571.558 -1200.524)"/>
</svg>
