<svg id="Group_3767" data-name="Group 3767" xmlns="http://www.w3.org/2000/svg" viewBox="0 0 67.364 61.764">
  <defs>
    <style>
      .cls-1 {
        fill: #444;
      }
    </style>
  </defs>
  <path id="Path_411" data-name="Path 411" class="cls-1" d="M963.406,1686.973c.085-.034.153-.076.238-.119a13.978,13.978,0,0,1,6.025-22.511c-.009-.042,0-.077-.009-.11a10.473,10.473,0,0,0-7.408-7.9c-.679-.212-1.409-.289-2.113-.433h-1.646c-.7.136-1.4.221-2.079.407a10.606,10.606,0,0,0,.238,20.483,2.418,2.418,0,0,1,.348.119,22.1,22.1,0,0,0-5.6,1.323,22.662,22.662,0,0,0-14.56,17.064c-.144.636-.229,1.281-.339,1.917v.348c1.154.17,2.308.373,3.47.492,3.1.322,6.2.6,9.3.908a.364.364,0,0,0,.4-.22A27.51,27.51,0,0,1,963.406,1686.973Z" transform="translate(-936.5 -1655.9)"/>
  <path id="Path_412" data-name="Path 412" class="cls-1" d="M1525.773,2168.02a.712.712,0,0,0-.7-.772,4,4,0,0,0-.45-.017h-6.135v-6.16a2.665,2.665,0,0,0-.017-.45.7.7,0,0,0-.7-.662c-.993-.009-1.994,0-2.987,0a.6.6,0,0,0-.611.407,1.8,1.8,0,0,0-.093.6c-.008,1.951,0,3.895,0,5.846v.416h-6.168a3.12,3.12,0,0,0-.484.025.694.694,0,0,0-.628.73v2.919a.655.655,0,0,0,.484.67,1.65,1.65,0,0,0,.543.076c1.96.009,3.92,0,5.88,0h.382v.433c0,1.935.009,3.869-.008,5.813a1.147,1.147,0,0,0,.492,1.052h3.436a1.1,1.1,0,0,0,.492-1.052c-.009-1.952-.009-3.9-.009-5.846v-.4h5.575c.305,0,.619.009.925-.009a.747.747,0,0,0,.781-.84Z" transform="translate(-1458.41 -2117.185)"/>
  <path id="Path_413" data-name="Path 413" class="cls-1" d="M1151.818,1809.625v-.45c0-2.164.008-4.327.008-6.5a1.157,1.157,0,0,1,1.23-1.256c.2-.009.416,0,.619,0h1.358a24.192,24.192,0,0,0-15.2-7.534,11.359,11.359,0,0,0,7.2-5.168,10.947,10.947,0,0,0,1.307-8.79,11.322,11.322,0,0,0-22.019.5,10.861,10.861,0,0,0,.848,7.229,11.338,11.338,0,0,0,7.84,6.229c-12.439,1.2-21.222,11.548-21.909,22.044a162.444,162.444,0,0,0,30.776,1.7,5.316,5.316,0,0,1-.136-.789c-.008-1.986-.017-3.963,0-5.948a1.152,1.152,0,0,1,1.29-1.264h6.788Z" transform="translate(-1098.115 -1761.675)"/>
</svg>
