<svg id="Group_3774" data-name="Group 3774" xmlns="http://www.w3.org/2000/svg" viewBox="0 0 77.049 73.13">
  <defs>
    <style>
      .cls-1 {
        fill: #444;
      }
    </style>
  </defs>
  <path id="Path_345" data-name="Path 345" class="cls-1" d="M4193.8,1784.4v38.821h65.726V1784.4Zm60.965,25.492a.428.428,0,0,1-.112.276c-.572.579-1.144,1.157-1.729,1.723a.29.29,0,0,1-.25.079,3.1,3.1,0,0,0-2.794.539,3.729,3.729,0,0,0-1.723,3.077,2.334,2.334,0,0,0,.118.7.3.3,0,0,1-.079.348c-.572.566-1.137,1.138-1.717,1.7a.643.643,0,0,1-.276.112.541.541,0,0,1-.145,0q-19.39,0-38.787.007a.674.674,0,0,1-.552-.237c-.519-.539-1.059-1.059-1.579-1.591a.343.343,0,0,1-.1-.263,3.2,3.2,0,0,0-.677-2.992,3.71,3.71,0,0,0-2.932-1.532,2.579,2.579,0,0,0-.7.112.326.326,0,0,1-.368-.086c-.56-.572-1.125-1.124-1.684-1.7a.46.46,0,0,1-.125-.3q-.01-6.076,0-12.158a.474.474,0,0,1,.1-.282c.572-.585,1.157-1.171,1.742-1.743a.329.329,0,0,1,.25-.079,3.143,3.143,0,0,0,2.874-.6,3.684,3.684,0,0,0,1.637-2.919,2.617,2.617,0,0,0-.118-.815.286.286,0,0,1,.085-.322q.839-.818,1.657-1.657a.539.539,0,0,1,.434-.171q8.136.01,16.273,0h3.184q9.7,0,19.4-.007a.65.65,0,0,1,.513.217c.525.546,1.071,1.072,1.6,1.611a.345.345,0,0,1,.1.289,2.773,2.773,0,0,0,.224,2.216,3.839,3.839,0,0,0,3.36,2.295,2.478,2.478,0,0,0,.717-.119.328.328,0,0,1,.368.086c.553.572,1.125,1.131,1.684,1.7a.464.464,0,0,1,.125.3Q4254.779,1803.8,4254.765,1809.893Z" transform="translate(-4182.477 -1750.09)"/>
  <path id="Path_346" data-name="Path 346" class="cls-1" d="M4035.362,1292.4c-.04-.335.19-.447.42-.572q3.826-2.081,7.64-4.175,8-4.38,15.991-8.752,5.237-2.86,10.468-5.72a.567.567,0,0,1,.388-.052c.75.2,1.5.414,2.242.644a.376.376,0,0,1,.224.211,3.64,3.64,0,0,0,2.531,2.446,3.093,3.093,0,0,0,3.452-.8c.014-.02.04-.026.06-.039.829.256,1.664.513,2.485.782a.586.586,0,0,1,.3.243q2.9,5.267,5.773,10.553a.559.559,0,0,1,.039.388c-.177.7-.394,1.407-.565,2.111-.072.3-.2.48-.525.467a.514.514,0,0,0-.237.066,3.777,3.777,0,0,0-1.868,2.177h11.46q-8.175-14.9-16.333-29.779-28.889,15.731-57.71,31.568c2.268,4.1,4.517,8.166,6.766,12.23.02-.006.033-.006.053-.013v-.283c0-3.051-.007-6.1,0-9.146a4.4,4.4,0,0,1,3.425-4.419,10.524,10.524,0,0,1,1.933-.138C4034.3,1292.386,4034.816,1292.4,4035.362,1292.4Z" transform="translate(-4021.6 -1262.6)"/>
  <path id="Path_347" data-name="Path 347" class="cls-1" d="M4460.1,1601.6a10.911,10.911,0,0,0-7.069-.986,12.946,12.946,0,0,0-9.007,6.056c-.263.414-.474.868-.724,1.328h21.679c-.006-.059-.006-.092-.013-.119A8.972,8.972,0,0,0,4460.1,1601.6Z" transform="translate(-4415.572 -1578.209)"/>
  <path id="Path_348" data-name="Path 348" class="cls-1" d="M4802.993,1564.476a3.905,3.905,0,0,0,3.676,4.208,4,4,0,0,0,4.064-3.63,3.888,3.888,0,0,0-3.958-4.123A3.753,3.753,0,0,0,4802.993,1564.476Z" transform="translate(-4751.607 -1541.312)"/>
  <path id="Path_349" data-name="Path 349" class="cls-1" d="M4534.407,1927.526a12.421,12.421,0,0,0-7.989-2.926,13.448,13.448,0,0,0-4.741.776,10.865,10.865,0,0,0-6.483,5.746,8.563,8.563,0,0,0-.381,6.312,9.944,9.944,0,0,0,4.406,5.55,12.933,12.933,0,0,0,10.145,1.591,11.338,11.338,0,0,0,6.805-4.425,8.783,8.783,0,0,0,1.671-6.674A9.48,9.48,0,0,0,4534.407,1927.526Z" transform="translate(-4481.983 -1881.072)"/>
  <path id="Path_350" data-name="Path 350" class="cls-1" d="M4933.365,2019.694a3.919,3.919,0,1,0,3.873,3.946A3.957,3.957,0,0,0,4933.365,2019.694Z" transform="translate(-4869.704 -1969.912)"/>
  <path id="Path_351" data-name="Path 351" class="cls-1" d="M4342.431,2019.7a3.922,3.922,0,1,0,3.913,3.938A3.964,3.964,0,0,0,4342.431,2019.7Z" transform="translate(-4317.663 -1969.919)"/>
</svg>
