<svg id="Group_3768" data-name="Group 3768" xmlns="http://www.w3.org/2000/svg" viewBox="0 0 72.895 75.808">
  <defs>
    <style>
      .cls-1 {
        fill: #444;
      }
    </style>
  </defs>
  <path id="Path_414" data-name="Path 414" class="cls-1" d="M23.23,1352.063a21.167,21.167,0,0,0-1.88-6.812,4.674,4.674,0,0,0-2.394-2.4.732.732,0,0,0-1.058.329c-.39.657-.771,1.325-1.192,1.963a3.077,3.077,0,0,0-.432,2.466c.339,1.51.627,3.042.935,4.562.164.832-.051,1.285-.647,1.408-.575.113-.935-.237-1.11-1.089,0-.021-.01-.051-.01-.072-.3-1.449-.606-2.9-.873-4.346a3.151,3.151,0,0,0-1.49-2.178,30.163,30.163,0,0,1-3.833-2.641,2.105,2.105,0,0,0-2.374-.432,5.745,5.745,0,0,0-4.223,4.233c-.185.74-.473,1.449-.678,2.188A61.657,61.657,0,0,0,0,1365.852a3.041,3.041,0,0,0,2.1,3.319h21.32c.647-.318,1.151-.709,1.079-1.562C24.073,1362.431,23.723,1357.242,23.23,1352.063Z" transform="translate(0.001 -1293.363)"/>
  <path id="Path_415" data-name="Path 415" class="cls-1" d="M500.783,1364.755c-.134-2.8-.113-5.62-.339-8.425a40.246,40.246,0,0,0-2.641-11.642,2.822,2.822,0,0,0-1.469-1.685c-1.356-.565-2.764-1.038-4.151-1.521-.473-.165-.606.113-.74.534-.7,2.158-1.449,4.3-2.189,6.432a.885.885,0,1,1-1.664-.6c.134-.421.277-.842.421-1.264.442-1.346.884-2.682,1.336-4.048H486.86c-.247,1.839-.493,3.648-.74,5.456-.113.8-.432,1.141-1.028,1.059s-.843-.473-.73-1.274c.277-1.973.545-3.956.843-5.929.062-.452-.113-.647-.524-.514-1.295.432-2.63.9-3.3,2.2a26.78,26.78,0,0,0-1.87,4.408,72.27,72.27,0,0,0-2.62,18.392,1.817,1.817,0,0,0,.945,1.623h20.879A3.064,3.064,0,0,0,500.783,1364.755Z" transform="translate(-427.892 -1292.163)"/>
  <path id="Path_416" data-name="Path 416" class="cls-1" d="M348.793,866.922a1.164,1.164,0,0,0,.658.7c.411.113.658-.216.73-.637.175-1.038.37-2.086.514-3.124a2.545,2.545,0,0,0-.144-.76h-2.076c-.082.257-.267.534-.226.781A28.192,28.192,0,0,0,348.793,866.922Z" transform="translate(-312.461 -863.1)"/>
  <path id="Path_417" data-name="Path 417" class="cls-1" d="M263.449,941.724c-.462-.627-.411-.812.2-1.274a20.087,20.087,0,0,0,3.154-2.641,11.315,11.315,0,0,0,.781-13.008c-2.343-3.833-5.7-6.216-10.3-6.124-7.48.154-13.049,7.686-11.251,14.94a10.608,10.608,0,0,0,5.24,6.843c.6.349.627.678.257,1.223a2.141,2.141,0,0,0-.36,1.069c-.041,1.623.1,3.267-.051,4.88a4.083,4.083,0,0,0,1.716,4.089,3.329,3.329,0,0,0,1.356.555c.421.072.688.082.843.575a2.084,2.084,0,0,0,.853,1.048,2.888,2.888,0,0,0,4.223-1.644,2.377,2.377,0,0,0,2.558-1.12,5.955,5.955,0,0,0,.606-.647,2.493,2.493,0,0,0,.462-1.11c.041-2.271.031-4.541.01-6.8A1.615,1.615,0,0,0,263.449,941.724Zm-3.216,8.518c-1.839.021-3.689.041-5.528-.021-.39-.01-.771-.36-1.161-.545l.092-.277c2.641-.38,5.292-.76,7.922-1.13A1.5,1.5,0,0,1,260.233,950.242Zm.236-3.093c-2.384.339-4.768.668-7.234,1.017v-1.6l8.343-1.2a1.491,1.491,0,0,1,.113.247C261.784,946.954,261.784,946.954,260.469,947.149Zm.8-3.062c-2.651.411-5.3.791-8.035,1.182v-1.788h8.631C261.589,943.769,261.445,944.056,261.27,944.087Zm.647-5.045a1.385,1.385,0,0,0-.853,1.408c.031.534.01,1.068.01,1.644h-2.548c.986-3.822,1.963-7.614,2.969-11.5-1.274.247-2.456.473-3.791.74.391-2.61.771-5.148,1.141-7.675l-.154-.062c-1.993,3.822-3.987,7.645-6.042,11.58,1.469-.206,2.805-.391,4.223-.6-.164,2.558-.319,5.035-.483,7.511h-2.579c0-.576-.031-1.12.01-1.654a1.323,1.323,0,0,0-.843-1.4,8.766,8.766,0,0,1-4.891-5.692c-1.849-6.72,3.894-12.546,9.093-12.618a9.513,9.513,0,0,1,8.333,4.655,9.231,9.231,0,0,1-1.418,12.268A14.506,14.506,0,0,1,261.918,939.042Z" transform="translate(-220.448 -912.964)"/>
  <path id="Path_418" data-name="Path 418" class="cls-1" d="M520.136,1159.809a12.767,12.767,0,0,0,3.391,6.853,4.232,4.232,0,0,0,6.216.051,8.531,8.531,0,0,0,1.325-1.582,14.854,14.854,0,0,0,2.281-6.268,6.75,6.75,0,1,0-13.45-.884C519.972,1158.586,520.013,1159.2,520.136,1159.809Z" transform="translate(-466.48 -1121.689)"/>
  <path id="Path_419" data-name="Path 419" class="cls-1" d="M76.044,1166.517a9.86,9.86,0,0,0,1.418-1.788,14.242,14.242,0,0,0,2.117-6.545,6.593,6.593,0,0,0-6.011-6.925c-3.524-.38-6.977,2.055-7.336,5.415a11.932,11.932,0,0,0,3.5,9.915C71.646,1168.541,74.091,1168.438,76.044,1166.517Z" transform="translate(-59.357 -1121.615)"/>
  <path id="Path_420" data-name="Path 420" class="cls-1" d="M486.85,1022.859c.966.154,1.942.288,2.9.5.719.164.884-.154.884-.75v-.514h0v-.3c-.01-.935-.1-1.007-1.038-.853-.914.154-1.839.318-2.754.462-.442.072-.74.216-.74.73S486.429,1022.787,486.85,1022.859Z" transform="translate(-436.154 -1004.672)"/>
  <path id="Path_421" data-name="Path 421" class="cls-1" d="M450.646,1123.836a5.662,5.662,0,0,0,.462-.616c-.185-.175-.308-.319-.452-.432-.863-.616-1.716-1.253-2.61-1.819a1.047,1.047,0,0,0-.894.01c-.38.216-.339.606-.082.956.421.575.822,1.171,1.233,1.757C449.393,1125.254,449.187,1125.315,450.646,1123.836Z" transform="translate(-400.957 -1094.388)"/>
  <path id="Path_422" data-name="Path 422" class="cls-1" d="M233.769,907.689c.873.6,1.716,1.243,2.62,1.8a.933.933,0,0,0,.873-.051.916.916,0,0,0,.092-.863c-.575-.914-1.223-1.788-1.849-2.672a3.838,3.838,0,0,0-.411-.4,2.2,2.2,0,0,0-.483.288c-.329.3-.637.617-.945.935C233.286,907.093,233.338,907.4,233.769,907.689Z" transform="translate(-209.428 -901.143)"/>
  <path id="Path_423" data-name="Path 423" class="cls-1" d="M447.977,911.636a4.618,4.618,0,0,0,.432-.257c.545-.38,1.089-.76,1.634-1.151,1.582-1.13,1.747-.843.134-2.425-.051-.051-.113-.144-.164-.144-.257.01-.637-.051-.74.093-.709.914-1.367,1.87-2,2.836A.725.725,0,0,0,447.977,911.636Z" transform="translate(-401.226 -903.077)"/>
  <path id="Path_424" data-name="Path 424" class="cls-1" d="M190.41,1022.206c.01,1.007.021,1.027,1,.873.945-.154,1.891-.318,2.846-.473.432-.072.74-.308.637-.729a1.026,1.026,0,0,0-.616-.668c-1.058-.247-2.127-.38-3.2-.575-.452-.082-.658.1-.668.545-.01.226,0,.442,0,.668h-.01C190.41,1021.96,190.41,1022.083,190.41,1022.206Z" transform="translate(-170.836 -1004.431)"/>
  <path id="Path_425" data-name="Path 425" class="cls-1" d="M236.409,1119.7c-.092.051-.267.144-.432.247-.545.38-1.089.76-1.634,1.151-1.593,1.13-1.778.832-.092,2.486.031.031.082.093.113.093.257-.02.627.041.74-.1.709-.914,1.367-1.87,2.014-2.826A.732.732,0,0,0,236.409,1119.7Z" transform="translate(-209.119 -1093.335)"/>
</svg>
