<svg xmlns="http://www.w3.org/2000/svg" viewBox="0 0 72.65 68.665">
  <defs>
    <style>
      .cls-1 {
        fill: #444;
      }
    </style>
  </defs>
  <g id="Group_3747" data-name="Group 3747" transform="translate(0.1 -0.031)">
    <path id="Path_129" data-name="Path 129" class="cls-1" d="M299.484,151.368v22.395h-4.132a4.762,4.762,0,0,0,1.289-3.1c.015-5.451.03-10.916,0-16.367a4.519,4.519,0,0,0-3.244-4.31,4.625,4.625,0,0,0-6.013,4.562c-.015,4.221,0,8.443,0,12.664v.9c-.77-.044-1.437-.089-2.1-.133-3.836-.281-7.672-.592-11.523-.815a3.422,3.422,0,0,0-3.732,3.584c-.015,7.332-.03,14.663.03,21.995a4.114,4.114,0,0,0,.711,2.118,3.256,3.256,0,0,0,3.807,1.215,3.4,3.4,0,0,0,2.414-3.273c.015-5.85,0-11.7,0-17.551v-.992c.889.059,1.659.118,2.518.178v21.24h3.1V176.977h17v18.766h3.051V151.368Z" transform="translate(-230.103 -127.569)"/>
    <path id="Path_130" data-name="Path 130" class="cls-1" d="M28.693,167.084c-2.933.1-5.865.281-8.8.37-1.57.059-3.14.015-4.784.015v-12.9a4.805,4.805,0,0,0-1.037-3.17,4.64,4.64,0,0,0-8.235,2.933c-.015,5.377-.015,10.768,0,16.144a4.6,4.6,0,0,0,.918,2.755c.1.148.193.3.3.459h-4.1V151.266H-.1v44.39H3V176.889H19.955V195.67h3.1V174.194h2.488v18.233a3.53,3.53,0,0,0,3.525,3.762,3.436,3.436,0,0,0,3.451-3.718v-21.7A3.4,3.4,0,0,0,28.693,167.084Z" transform="translate(0 -127.497)"/>
    <path id="Path_131" data-name="Path 131" class="cls-1" d="M151.468,15c-.637.992-1.3,2.014-1.985,3.051.118.03.178.059.207.044,2.977-.8,5.969-1.5,8.9-2.414a7.943,7.943,0,0,0,5.377-8,8.088,8.088,0,1,0-14.145,5.806C150.312,14.023,150.875,14.467,151.468,15Zm8.25-8.265a1.215,1.215,0,1,1-1.229,1.215A1.223,1.223,0,0,1,159.718,6.736Zm-3.821,0a1.215,1.215,0,1,1-1.215,1.274A1.39,1.39,0,0,1,155.9,6.736Zm-3.821,0a1.215,1.215,0,1,1,.074,2.429,1.173,1.173,0,0,1-1.2-1.14A1.15,1.15,0,0,1,152.075,6.736Z" transform="translate(-126.018 0)"/>
    <path id="Path_132" data-name="Path 132" class="cls-1" d="M127.2,221.462h34.881V217.7H127.2Z" transform="translate(-108.445 -185.429)"/>
    <path id="Path_133" data-name="Path 133" class="cls-1" d="M61.806,71.886A5.843,5.843,0,1,0,56,66.006,5.86,5.86,0,0,0,61.806,71.886Z" transform="translate(-47.79 -51.257)"/>
    <path id="Path_134" data-name="Path 134" class="cls-1" d="M360.775,71.885A5.843,5.843,0,1,0,355,65.975,5.86,5.86,0,0,0,360.775,71.885Z" transform="translate(-302.503 -51.256)"/>
  </g>
</svg>
