<?xml version="1.0" encoding="utf-8"?>
<!-- Generator: Adobe Illustrator 22.0.0, SVG Export Plug-In . SVG Version: 6.00 Build 0)  -->
<svg version="1.1" id="Layer_1" xmlns="http://www.w3.org/2000/svg" xmlns:xlink="http://www.w3.org/1999/xlink" x="0px" y="0px"
	 viewBox="0 0 230 117" style="enable-background:new 0 0 230 117;" xml:space="preserve">
<style type="text/css">
	.st0{fill:#EF5350;}
	.st1{fill:#52AFA5;}
	.st2{fill:#019CDE;}
	.st3{clip-path:url(#SVGID_2_);fill:#019CDE;}
	.st4{fill:#333333;}
	.st5{fill:#F0F7FB;}
	.st6{fill:#0075AA;}
	.st7{fill:#5B5B5B;}
	.st8{opacity:0.1;fill:#FFFFFF;enable-background:new    ;}
	.st9{opacity:0.1;}
	.st10{fill:none;}
	.st11{fill:#231F20;}
	.st12{font-family:'ArialMT';}
	.st13{font-size:2.8549px;}
	.st14{font-size:3.2357px;}
	.st15{opacity:0.1;fill:#231F20;enable-background:new    ;}
	.st16{fill:#A9D3E1;}
	.st17{fill:#FFFFFF;}
	.st18{fill:#4A6E88;}
	.st19{fill:none;stroke:#A9D3E1;stroke-width:0.4745;stroke-miterlimit:10;}
	.st20{fill:#BAD2DB;}
	.st21{fill:#FFD87D;}
	.st22{fill:#EEAF22;}
	.st23{fill:#FADD5F;}
	.st24{fill:#009CE3;}
	.st25{fill:#DF5D67;}
</style>
<g id="Background">
	<rect class="st0" width="230" height="117"/>
</g>
<g id="Layer_2_1_">
	<g>
		<circle class="st1" cx="116" cy="55.4" r="43.7"/>
		<g>
			<g>
				<g>
					<g>
						<path id="SVGID_3_" class="st2" d="M113,73.9L78.7,85.3c-1,0.4-2.1-0.2-2.5-1.2l-6.5-19.6c-0.4-1,0.2-2.1,1.2-2.5l34.3-11.4
							c1-0.4,2.1,0.2,2.5,1.2l6.5,19.6C114.6,72.4,114,73.5,113,73.9z"/>
					</g>
					<g>
						<defs>
							<path id="SVGID_1_" d="M113,73.9L78.7,85.3c-1,0.4-2.1-0.2-2.5-1.2l-6.5-19.6c-0.4-1,0.2-2.1,1.2-2.5l34.3-11.4
								c1-0.4,2.1,0.2,2.5,1.2l6.5,19.6C114.6,72.4,114,73.5,113,73.9z"/>
						</defs>
						<clipPath id="SVGID_2_">
							<use xlink:href="#SVGID_1_"  style="overflow:visible;"/>
						</clipPath>
						<circle class="st3" cx="105.4" cy="63.5" r="20"/>
					</g>
				</g>
			</g>
			<rect x="69.8" y="58.8" transform="matrix(0.949 -0.3153 0.3153 0.949 -14.638 31.414)" class="st4" width="39.9" height="4.3"/>
			
				<rect x="73.7" y="63.9" transform="matrix(0.949 -0.3153 0.3153 0.949 -16.0811 32.1672)" class="st5" width="35.3" height="3.7"/>
			
				<rect x="75.7" y="71.9" transform="matrix(0.949 -0.3153 0.3153 0.949 -18.5782 30.8591)" class="st6" width="20.8" height="1.8"/>
			
				<rect x="75.5" y="67.7" transform="matrix(0.949 -0.3153 0.3153 0.949 -17.4336 29.5712)" class="st7" width="14.5" height="1.8"/>
			
				<rect x="76.8" y="75.8" transform="matrix(0.949 -0.3153 0.3153 0.949 -19.9132 30.4095)" class="st6" width="14.5" height="1.8"/>
			<polygon class="st8" points="104.2,76.8 94.1,80.1 95.5,53.9 105.6,50.5 			"/>
		</g>
		<g class="st9">
			<g>
				<rect x="110.7" y="72.4" class="st10" width="26.7" height="3.3"/>
				<text transform="matrix(1 0 0 1 110.7124 74.4111)" class="st11 st12 st13">total</text>
			</g>
			<g>
				<rect x="104.1" y="24.6" class="st10" width="26.7" height="6.6"/>
				<text transform="matrix(1 0 0 1 112.0166 26.958)" class="st11 st12 st14">receipt</text>
			</g>
		</g>
		<g class="st9">
			<g>
				<rect x="106.1" y="71.4" class="st10" width="26.7" height="3.3"/>
				<text transform="matrix(1 0 0 1 106.0713 73.3984)" class="st11 st12 st13">total</text>
			</g>
			<g>
				<rect x="102.9" y="23.6" class="st10" width="26.7" height="6.6"/>
				<text transform="matrix(1 0 0 1 110.6973 25.9478)" class="st11 st12 st14">receipt</text>
			</g>
		</g>
		<polygon class="st15" points="134.2,36.5 134.2,17.3 134.2,15.7 133,15 131.9,15.7 130.7,15 129.5,15.7 128.4,15 127.1,15.7 
			125.9,15 124.8,15.7 123.6,15 122.4,15.7 121.3,15 120,15.7 118.8,15 117.7,15.7 116.5,15 115.2,15.7 114.1,15 112.9,15.7 
			111.7,15 110.6,15.7 109.4,15 108.1,15.7 107,15 105.8,15.7 104.6,15 103.5,15.7 102.3,15 101,15.7 99.9,15 98.7,15.7 98.7,17.3 
			98.7,36.5 98.7,47.9 98.7,51 98.7,51 100.9,51 104.1,51 104.1,83.9 104.1,84.2 104.1,85.6 105.3,86.4 106.6,85.6 107.7,86.4 
			108.9,85.6 110.1,86.4 111.2,85.6 112.4,86.4 113.7,85.6 114.8,86.4 116,85.6 117.2,86.4 118.3,85.6 119.5,86.4 120.8,85.6 
			121.9,86.4 123.1,85.6 124.3,86.4 125.4,85.6 126.6,86.4 127.9,85.6 129,86.4 130.2,85.6 131.4,86.4 132.5,85.6 133.7,86.4 
			135,85.6 136.1,86.4 137.3,85.6 138.5,86.4 139.6,85.6 139.6,84.2 139.6,83.9 139.6,36.5 		"/>
		<g>
			<path class="st5" d="M100.4,49.3V34.8h4.4V47c0,1.2-1,2.2-2.2,2.2C102.6,49.3,100.4,49.3,100.4,49.3z"/>
			<rect x="100.4" y="15.7" class="st5" width="35.5" height="30.6"/>
			<polygon class="st5" points="136,14 134.7,13.2 133.6,14 132.4,13.2 131.2,14 130.1,13.2 128.8,14 127.6,13.2 126.5,14 
				125.3,13.2 124.1,14 123,13.2 121.7,14 120.5,13.2 119.4,14 118.2,13.2 117,14 115.9,13.2 114.6,14 113.4,13.2 112.3,14 
				111.1,13.2 109.9,14 108.8,13.2 107.5,14 106.3,13.2 105.2,14 104,13.2 102.8,14 101.6,13.2 100.4,14 100.4,15.7 136,15.7 			"/>
			<g>
				<rect x="117.6" y="36.4" class="st16" width="6" height="1.2"/>
				<rect x="129.2" y="29.7" class="st16" width="4.4" height="1.2"/>
				<rect x="102.9" y="29.7" class="st16" width="10.2" height="1.2"/>
				<rect x="127.5" y="33.1" class="st16" width="6.1" height="1.2"/>
				<rect x="102.9" y="33.1" class="st16" width="15.3" height="1.2"/>
				<rect x="127.5" y="36.4" class="st16" width="6.1" height="1.2"/>
				<rect x="102.9" y="36.4" class="st16" width="13.5" height="1.2"/>
				<rect x="127.5" y="39.7" class="st16" width="6.1" height="1.2"/>
				<rect x="102.9" y="39.7" class="st16" width="10.2" height="1.2"/>
				<rect x="114.1" y="29.7" class="st16" width="10.2" height="1.2"/>
				<rect x="114.1" y="39.7" class="st16" width="10.2" height="1.2"/>
				<rect x="129.2" y="43" class="st16" width="4.4" height="1.2"/>
				<rect x="102.9" y="43" class="st16" width="15.3" height="1.2"/>
			</g>
			<rect x="105.8" y="34.8" class="st17" width="35.5" height="47.7"/>
			<polygon class="st17" points="105.8,83.9 107,84.7 108.3,83.9 109.4,84.7 110.6,83.9 111.8,84.7 112.9,83.9 114.1,84.7 
				115.4,83.9 116.5,84.7 117.7,83.9 118.9,84.7 120,83.9 121.3,84.7 122.5,83.9 123.6,84.7 124.8,83.9 126,84.7 127.1,83.9 
				128.4,84.7 129.6,83.9 130.7,84.7 131.9,83.9 133.1,84.7 134.2,83.9 135.5,84.7 136.7,83.9 137.8,84.7 139,83.9 140.2,84.7 
				141.3,83.9 141.3,82.3 105.8,82.3 			"/>
			<rect x="120.1" y="18.7" class="st16" width="13.5" height="1.2"/>
			<rect x="117" y="76.6" class="st16" width="13.5" height="1.2"/>
			<rect x="132.9" y="38.1" class="st16" width="6.1" height="1.2"/>
			<rect x="108.3" y="38.1" class="st16" width="13.5" height="1.2"/>
			<rect x="123.1" y="38.1" class="st16" width="6" height="1.2"/>
			<rect x="123.1" y="48" class="st16" width="6" height="1.2"/>
			<rect x="134.6" y="41.4" class="st16" width="4.4" height="1.2"/>
			<rect x="108.3" y="41.4" class="st16" width="10.2" height="1.2"/>
			<rect x="132.9" y="44.7" class="st16" width="6.1" height="1.2"/>
			<rect x="108.3" y="44.7" class="st16" width="15.3" height="1.2"/>
			<rect x="132.9" y="48" class="st16" width="6.1" height="1.2"/>
			<rect x="108.3" y="48" class="st16" width="13.5" height="1.2"/>
			<rect x="132.9" y="51.3" class="st16" width="6.1" height="1.2"/>
			<rect x="108.3" y="51.3" class="st16" width="10.2" height="1.2"/>
			<rect x="119.7" y="41.4" class="st16" width="10.2" height="1.2"/>
			<rect x="119.7" y="51.3" class="st16" width="10.2" height="1.2"/>
			<rect x="134.6" y="54.6" class="st16" width="4.4" height="1.2"/>
			<rect x="132.9" y="70.6" class="st16" width="6.1" height="1.2"/>
			<rect x="108.3" y="54.6" class="st16" width="15.3" height="1.2"/>
			<rect x="123.1" y="57.7" class="st16" width="6" height="1.2"/>
			<rect x="132.9" y="57.7" class="st16" width="6.1" height="1.2"/>
			<rect x="108.3" y="57.7" class="st16" width="13.5" height="1.2"/>
			<rect x="132.9" y="61" class="st16" width="6.1" height="1.2"/>
			<rect x="108.3" y="61" class="st16" width="10.2" height="1.2"/>
			<rect x="119.7" y="61" class="st16" width="10.2" height="1.2"/>
			<rect x="134.6" y="64.3" class="st16" width="4.4" height="1.2"/>
			<rect x="108.3" y="64.3" class="st16" width="15.3" height="1.2"/>
			<g>
				<rect x="108.3" y="70" class="st10" width="26.7" height="3.3"/>
				<text transform="matrix(1 0 0 1 108.2783 71.9756)" class="st18 st12 st13">total</text>
			</g>
			<g>
				<g>
					<rect x="105.1" y="22.2" class="st10" width="26.7" height="6.6"/>
					<text transform="matrix(1 0 0 1 112.9033 24.5239)" class="st18 st12 st14">receipt</text>
				</g>
				<line class="st19" x1="103" y1="26.5" x2="133.6" y2="26.5"/>
			</g>
			<line class="st19" x1="108.3" y1="68.4" x2="139" y2="68.4"/>
			<line class="st19" x1="108.3" y1="74.1" x2="139" y2="74.1"/>
			<polygon class="st20" points="105.8,34.8 105.8,49.3 100.4,49.3 			"/>
		</g>
		<g class="st9">
			<path class="st11" d="M146.5,29.3c1.5-2.6,0.6-5.8-2-7.4c-2.6-1.5-5.8-0.6-7.4,2c-1.5,2.6-0.6,5.8,2,7.4
				C141.7,32.6,145,31.7,146.5,29.3z"/>
			
				<ellipse transform="matrix(0.9951 -9.869668e-02 9.869668e-02 0.9951 -3.5479 14.7771)" class="st11" cx="147.6" cy="43.2" rx="5.4" ry="5.4"/>
			<ellipse class="st11" cx="154.1" cy="32.8" rx="5.4" ry="5.4"/>
		</g>
		<g>
			<ellipse class="st21" cx="143.2" cy="25.5" rx="5.4" ry="5.4"/>
			<ellipse class="st22" cx="143.2" cy="25.5" rx="4.3" ry="4.3"/>
			<g>
				<path class="st21" d="M141.2,28.3l0.5-0.7c-0.5-0.2-0.9-0.6-1-1l0.5-0.4c0.1,0.4,0.5,0.7,0.9,1c0.5,0.4,1.1,0.2,1.3-0.2
					c0.2-0.4,0.1-0.9-0.4-1.3c-0.6-0.7-0.9-1.3-0.5-2.1c0.4-0.6,1.1-0.9,1.8-0.6l0.5-0.7l0.5,0.2l-0.5,0.7c0.5,0.2,0.7,0.6,0.9,0.9
					l-0.5,0.4c-0.1-0.2-0.4-0.5-0.9-0.9c-0.6-0.4-1-0.1-1.2,0.1c-0.2,0.4-0.1,0.7,0.5,1.5c0.6,0.7,0.7,1.3,0.4,2.1
					c-0.4,0.6-1.1,0.9-2,0.6l-0.5,0.7L141.2,28.3z"/>
			</g>
		</g>
		<g>
			<ellipse transform="matrix(0.965 -0.2621 0.2621 0.965 -5.8698 40.516)" class="st21" cx="148.9" cy="42.3" rx="5.4" ry="5.4"/>
			<circle class="st22" cx="148.9" cy="42.3" r="4.3"/>
			<g>
				<path class="st21" d="M149.8,45.6l-0.4-0.9c-0.5,0.1-1,0.2-1.3,0.1v-0.6c0.4,0.1,0.9,0.1,1.3-0.1c0.6-0.2,0.9-0.7,0.6-1.2
					c-0.1-0.5-0.6-0.6-1.3-0.6c-1,0-1.6-0.1-2-0.9c-0.2-0.7,0-1.3,0.7-1.8l-0.4-0.9l0.5-0.2l0.4,0.7c0.5-0.1,0.9-0.1,1.2-0.1v0.6
					c-0.2,0-0.6-0.1-1.1,0.1c-0.6,0.2-0.7,0.7-0.6,1.1s0.5,0.5,1.3,0.5c1,0,1.6,0.2,1.8,1c0.2,0.6,0,1.5-0.7,1.8l0.4,0.9L149.8,45.6
					z"/>
			</g>
		</g>
		<g>
			<path class="st21" d="M160.3,29.9c1.1,2.7-0.2,5.9-3.1,6.9c-2.7,1.1-5.9-0.2-6.9-3.1c-1.1-2.7,0.2-5.9,3.1-6.9
				C156.2,25.9,159.2,27.2,160.3,29.9z"/>
			<path class="st22" d="M159.3,30.3c0.9,2.2-0.2,4.8-2.5,5.6c-2.2,0.9-4.8-0.2-5.6-2.5s0.2-4.8,2.5-5.6
				C156,27,158.5,28.1,159.3,30.3z"/>
			<g>
				<path class="st21" d="M156.3,35.2l-0.4-0.9c-0.5,0.1-1,0.2-1.3,0.1v-0.6c0.4,0.1,0.9,0.1,1.3-0.1c0.6-0.2,0.9-0.7,0.6-1.2
					c-0.1-0.5-0.6-0.6-1.3-0.6c-1,0-1.6-0.1-2-0.9c-0.2-0.7,0-1.3,0.7-1.8l-0.4-0.9l0.5-0.2l0.4,0.7c0.5-0.1,0.9-0.1,1.2-0.1v0.6
					c-0.2,0-0.6-0.1-1.1,0.1c-0.6,0.2-0.7,0.7-0.6,1.1c0.1,0.4,0.5,0.5,1.3,0.5c1,0,1.6,0.2,1.8,1c0.2,0.6,0,1.5-0.7,1.8l0.4,0.9
					L156.3,35.2z"/>
			</g>
		</g>
		<g>
			<g>
				<g>
					<g>
						<path id="SVGID_9_" class="st6" d="M106.3,101.3l-35.5-6.7c-1-0.2-1.7-1.2-1.5-2.2L73.2,72c0.2-1,1.2-1.7,2.2-1.5l35.5,6.7
							c1,0.2,1.7,1.2,1.5,2.2l-3.9,20.3C108.4,100.8,107.4,101.6,106.3,101.3z"/>
					</g>
				</g>
			</g>
			<polygon class="st8" points="97.1,99.6 86.7,97.6 100.7,75.3 111.2,77.3 			"/>
			<rect x="76.2" y="80.9" transform="matrix(0.1872 -0.9823 0.9823 0.1872 -20.6635 144.8406)" class="st5" width="2" height="8"/>
			
				<rect x="96.6" y="90.3" transform="matrix(0.1872 -0.9823 0.9823 0.1872 -11.4056 170.9457)" class="st5" width="2" height="4.2"/>
			
				<rect x="91.2" y="89.2" transform="matrix(0.1872 -0.9823 0.9823 0.1872 -14.7053 164.7756)" class="st5" width="2" height="4.2"/>
			<rect x="84.9" y="82.5" transform="matrix(0.1872 -0.9823 0.9823 0.1872 -15.1364 154.6857)" class="st5" width="2" height="8"/>
			<rect x="103.1" y="85.9" transform="matrix(0.1872 -0.9823 0.9823 0.1872 -3.7774 175.2925)" class="st5" width="2" height="8"/>
			<rect x="93.7" y="84.2" transform="matrix(0.1872 -0.9823 0.9823 0.1872 -9.6711 164.743)" class="st5" width="2" height="8"/>
			
				<rect x="99.9" y="70.8" transform="matrix(0.1872 -0.9823 0.9823 0.1872 3.7894 163.7308)" class="st2" width="1.8" height="17.5"/>
			
				<rect x="78.2" y="85.1" transform="matrix(0.1872 -0.9823 0.9823 0.1872 -26.3946 152.7472)" class="st2" width="1.8" height="14.5"/>
			<path class="st23" d="M79.1,82.8l-3.8-0.7c-0.9-0.1-1.5-1.1-1.3-2l0.5-2.3c0.1-0.9,1.1-1.5,2-1.3l3.8,0.7c0.9,0.1,1.5,1.1,1.3,2
				l-0.5,2.3C80.9,82.4,80.1,83.1,79.1,82.8z"/>
			<g>
				<circle class="st24" cx="104.6" cy="97.6" r="1.8"/>
				<path class="st25" d="M104.2,97.5c-0.2,1-1.2,1.7-2.2,1.5c-1-0.2-1.7-1.2-1.5-2.2c0.2-1,1.2-1.7,2.2-1.5
					C103.7,95.6,104.5,96.5,104.2,97.5z"/>
			</g>
		</g>
	</g>
</g>
</svg>
