<?xml version="1.0" encoding="utf-8"?>
<!-- Generator: Adobe Illustrator 22.0.0, SVG Export Plug-In . SVG Version: 6.00 Build 0)  -->
<svg version="1.1" id="Layer_1" xmlns="http://www.w3.org/2000/svg" xmlns:xlink="http://www.w3.org/1999/xlink" x="0px" y="0px"
	 viewBox="0 0 230 117" style="enable-background:new 0 0 230 117;" xml:space="preserve">
<style type="text/css">
	.st0{fill:#EF5350;}
	.st1{fill:none;stroke:#0C84C4;stroke-width:1.2586;stroke-miterlimit:10;}
	.st2{fill:#FFFFFF;stroke:#0C84C4;stroke-width:1.2586;stroke-miterlimit:10;}
	.st3{fill:#B47D57;}
	.st4{fill:#DCC3B1;}
	.st5{fill:#FFFFFF;}
	.st6{fill:#A15D2D;}
	.st7{fill:#D6422B;}
	.st8{fill:#676E71;}
	.st9{font-family:'ArialMT';}
	.st10{font-size:4.1061px;}
	.st11{fill:#313B40;}
	.st12{clip-path:url(#SVGID_2_);}
	.st13{opacity:0.3;fill:#D7DFE3;enable-background:new    ;}
	.st14{fill:#90A6B2;}
	.st15{fill:#6E8C9C;}
	.st16{opacity:0.3;fill:#909598;enable-background:new    ;}
	.st17{fill:none;stroke:#FFFFFF;stroke-width:0.3432;stroke-linecap:round;stroke-miterlimit:10;}
	.st18{fill:#56788B;}
	.st19{fill:#80E5F4;}
	.st20{fill:#214D66;}
	.st21{fill:#0C84C4;}
	.st22{clip-path:url(#SVGID_5_);fill:#81C900;}
	.st23{clip-path:url(#SVGID_7_);fill:#81C900;}
	.st24{clip-path:url(#SVGID_9_);fill:#08A8F5;}
	.st25{clip-path:url(#SVGID_11_);fill:#81C900;}
	.st26{clip-path:url(#SVGID_13_);fill:#81C900;}
	.st27{clip-path:url(#SVGID_15_);fill:#81C900;}
	.st28{clip-path:url(#SVGID_17_);fill:#81C900;}
	.st29{clip-path:url(#SVGID_19_);fill:#81C900;}
	.st30{fill:#BDC0C2;}
	.st31{fill:#AA6D42;}
	.st32{fill:#F8B392;}
	.st33{opacity:0.3;fill:#FFFFFF;enable-background:new    ;}
	.st34{fill:none;stroke:#5A6266;stroke-width:0.6866;stroke-linecap:round;stroke-miterlimit:10;}
</style>
<g id="Background">
	<rect class="st0" width="230" height="117"/>
</g>
<g id="Layer_2_1_">
	<g>
		<g>
			<line class="st1" x1="115" y1="20.4" x2="115" y2="95.9"/>
			<line class="st1" x1="87" y1="32.6" x2="142.8" y2="83.5"/>
			<line class="st1" x1="142.8" y1="32.6" x2="87" y2="83.5"/>
		</g>
		<g>
			<circle class="st2" cx="114.9" cy="18.1" r="8.3"/>
			<g>
				<rect x="109.9" y="14.5" class="st3" width="9.9" height="7"/>
				<rect x="113.9" y="14.5" class="st4" width="2" height="2.7"/>
			</g>
			<g>
				<rect x="116.3" y="18.5" class="st5" width="3.2" height="2"/>
				<rect x="116.5" y="18.8" class="st6" width="2.4" height="0.1"/>
				<rect x="116.5" y="19.1" class="st6" width="2.4" height="0.1"/>
				<rect x="116.5" y="19.5" class="st6" width="1.8" height="0.1"/>
				<rect x="116.5" y="19.9" class="st6" width="1.5" height="0.1"/>
			</g>
		</g>
		<g>
			<circle class="st2" cx="145" cy="31.4" r="8.3"/>
			<g>
				<path class="st7" d="M148.2,36.1h-6.5c-0.6,0-1.3-0.5-1.3-1.3v-5.7c0-0.6,0.5-1.3,1.3-1.3h6.5c0.6,0,1.3,0.5,1.3,1.3v5.7
					C149.4,35.5,148.9,36.1,148.2,36.1z"/>
				<path class="st5" d="M147.9,35.5h-6c-0.6,0-1.1-0.5-1.1-1.1v-3.9h8.1v3.9C149.1,35.1,148.6,35.5,147.9,35.5z"/>
				<g>
					<path class="st8" d="M142.8,28.9L142.8,28.9c-0.3,0-0.5-0.3-0.5-0.5v-1.7c0-0.3,0.3-0.5,0.5-0.5l0,0c0.3,0,0.5,0.3,0.5,0.5v1.7
						C143.3,28.6,143.1,28.9,142.8,28.9z"/>
					<path class="st8" d="M147,28.9L147,28.9c-0.3,0-0.5-0.3-0.5-0.5v-1.7c0-0.3,0.3-0.5,0.5-0.5l0,0c0.3,0,0.5,0.3,0.5,0.5v1.7
						C147.5,28.6,147.3,28.9,147,28.9z"/>
				</g>
				<text transform="matrix(1 0 0 1 142.126 34.5659)" class="st7 st9 st10">25</text>
			</g>
		</g>
		<g>
			<ellipse class="st2" cx="84.9" cy="31.4" rx="8.3" ry="8.3"/>
			<g>
				<g>
					<rect x="79.5" y="27.4" class="st11" width="0.8" height="5.8"/>
					<rect x="81.1" y="27.4" class="st11" width="0.5" height="5.8"/>
					<rect x="88.3" y="27.4" class="st11" width="0.6" height="5.8"/>
					<rect x="89.3" y="27.4" class="st11" width="0.4" height="5.8"/>
				</g>
				<path class="st11" d="M83.5,29.5v-2.2h-1.3v5.7h0.9C82.5,31.9,82.6,30.5,83.5,29.5z"/>
				<path class="st11" d="M86.4,28.8v-1.4H85v1.4C85.5,28.5,86,28.6,86.4,28.8z"/>
				<path class="st11" d="M84.6,28.8v-1.4H84v1.8C84.1,29,84.4,28.9,84.6,28.8z"/>
				<path class="st11" d="M87.5,29.4v-2h-0.8v1.5C87,29,87.4,29.1,87.5,29.4z"/>
				<g>
					<g>
						<g>
							<g>
								<g>
									<defs>
										<path id="SVGID_1_" d="M87.2,30c0.8,0.9,0.8,2.3-0.1,3.1c-0.9,0.8-2.3,0.8-3.1-0.1c-0.8-0.9-0.8-2.3,0.1-3.1
											C85,29.1,86.4,29.1,87.2,30z"/>
									</defs>
									<clipPath id="SVGID_2_">
										<use xlink:href="#SVGID_1_"  style="overflow:visible;"/>
									</clipPath>
									<g class="st12">
										<path class="st11" d="M84.6,29.6c-0.1,0.1-0.4,0.1-0.5,0.3c-0.1,0.1-0.3,0.3-0.4,0.4v2.4c0,0.1,0.1,0.1,0.1,0.3
											c0.1,0.3,0.4,0.4,0.6,0.5v-3.8H84.6z"/>
										<path class="st11" d="M85.1,33.7c0.6,0.1,1.3,0,1.8-0.4v-3.4c-0.5-0.4-1.1-0.5-1.8-0.4V33.7z"/>
										<path class="st11" d="M87.4,32.8c0.5-0.8,0.5-1.8,0-2.5V32.8z"/>
										<path class="st13" d="M87.2,30c0.8,0.9,0.8,2.3-0.1,3.1c-0.9,0.8-2.3,0.8-3.1-0.1c-0.8-0.9-0.8-2.3,0.1-3.1
											C85,29.1,86.4,29.1,87.2,30z"/>
									</g>
								</g>
							</g>
							<g>
								<path class="st14" d="M89.8,36.1L89.8,36.1c-0.3,0.3-0.5,0.3-0.8,0l-1.9-2c-0.1-0.3-0.1-0.5,0-0.6l0,0
									c0.3-0.1,0.5-0.1,0.6,0l1.9,2C90,35.6,90,36,89.8,36.1z"/>
								<path class="st15" d="M88.1,33.6l-0.1-0.1c-0.1-0.3-0.5-0.3-0.8,0c-0.3,0.1-0.3,0.5,0,0.8l0.1,0.1c0.1-0.1,0.3-0.3,0.4-0.3
									C87.9,33.8,88.1,33.7,88.1,33.6z"/>
								<path class="st14" d="M83.6,29.4c-1.1,1.1-1.3,2.9-0.3,4.2c1.1,1.1,2.9,1.3,4.2,0.3c1.1-1.1,1.3-2.9,0.3-4.2
									S84.9,28.2,83.6,29.4z M87,33.2C86.1,34,84.7,34,84,33.1c-0.8-0.9-0.8-2.3,0.1-3.1c0.9-0.8,2.3-0.8,3.1,0.1
									C88.1,30.9,87.9,32.3,87,33.2z"/>
							</g>
						</g>
						<path class="st16" d="M84.2,30.2c0.9-0.8,2.3-0.8,3.1,0.1c0.1,0.1,0.1,0.3,0.3,0.4c-0.1-0.3-0.3-0.4-0.4-0.6
							c-0.8-0.9-2.2-1-3.1-0.1c-0.8,0.8-0.9,1.9-0.4,2.8C83.3,31.8,83.6,30.8,84.2,30.2z"/>
					</g>
					<path class="st17" d="M86,29.9c0.1,0,0.3,0.1,0.4,0.1c0.4,0.3,0.6,0.6,0.8,1"/>
				</g>
			</g>
		</g>
		<g>
			<circle class="st2" cx="145" cy="85.6" r="8.3"/>
			<g>
				<path class="st18" d="M146.3,83.2c2.4,0,3.9,1.3,3.9,2.9c0,0.9-0.4,1.8-1.4,2.3l0.8,2.3l-2.7-1.7c-0.3,0-0.5,0-0.8,0
					c-2.4,0-3.9-1.3-3.9-2.9C142.3,84.4,143.9,83.2,146.3,83.2z"/>
				<g>
					<rect x="144.1" y="85.1" class="st5" width="5.2" height="0.3"/>
				</g>
				<g>
					<rect x="144.1" y="86" class="st5" width="5.2" height="0.3"/>
				</g>
				<g>
					<rect x="145.8" y="86.8" class="st5" width="3.6" height="0.3"/>
				</g>
			</g>
			<g>
				<path class="st19" d="M143.2,80.7c-2.4,0-3.9,1.3-3.9,2.9c0,0.9,0.4,1.8,1.4,2.3l-0.8,2.3l2.7-1.7c0.3,0,0.5,0,0.8,0
					c2.4,0,3.9-1.3,3.9-2.9C147.3,82,145.6,80.7,143.2,80.7z"/>
				<rect x="140.4" y="82.7" class="st5" width="5.2" height="0.3"/>
				<rect x="140.4" y="83.5" class="st5" width="5.2" height="0.3"/>
				<rect x="140.4" y="84.4" class="st5" width="3.6" height="0.3"/>
			</g>
		</g>
		<g>
			<path class="st11" d="M93.3,70.4c-7.9-0.5-13.3-3.1-16.7-6.1c-2.4-2.3-3.6-5.1-3.6-8.4c0-2.5,1-4.7,2.9-6.5
				c5.3-4.8,16.4-4.2,18.6-4.1l-0.6,8.9c0,0-2.9-0.1-6.1,0.1c-4.2,0.4-5.6,1-5.7,1.5c-0.3,0.5,0.1,1.1,0.8,1.7
				c3.3,3.1,14.2,3.3,20.6,2.8v10.3C103.2,70.6,95,70.6,93.3,70.4z"/>
			<path class="st20" d="M126.7,70.6V60.3c6.4,0.5,17.4,0.3,20.6-2.8c0.6-0.6,0.9-1.1,0.8-1.7c-0.1-0.4-1.5-1.1-5.7-1.5
				c-3.2-0.3-6.1-0.1-6.1-0.1l-0.6-8.9c2.2-0.1,13.2-0.8,18.6,4.1c1.9,1.8,2.9,3.9,2.9,6.5c0,3.2-1.1,6.1-3.6,8.4
				c-3.3,3.1-8.9,5.6-16.7,6.1C135,70.6,126.8,70.6,126.7,70.6z"/>
			<g>
				<g>
					<g>
						
							<ellipse id="SVGID_3_" transform="matrix(0.5339 -0.8455 0.8455 0.5339 4.0375 124.4553)" class="st21" cx="114.9" cy="58.6" rx="28.6" ry="28.6"/>
					</g>
					<g>
						<defs>
							
								<ellipse id="SVGID_4_" transform="matrix(0.5339 -0.8455 0.8455 0.5339 4.0375 124.4553)" cx="114.9" cy="58.6" rx="28.6" ry="28.6"/>
						</defs>
						<clipPath id="SVGID_5_">
							<use xlink:href="#SVGID_4_"  style="overflow:visible;"/>
						</clipPath>
						<path class="st22" d="M115,30.5c0.3,0.5,0.5,1.3,0.1,2.5c-0.9,2.3-2.7,5.2-5.3,5.7c-4.2,0.6-2.7,2.5-4.2,0.6
							c-1.7-1.9,0.6-2.7,0-4.1c-0.6-1.5-2.8-2.7-3.8-2.2C100.6,33.7,112.5,24.1,115,30.5z"/>
					</g>
					<g>
						<defs>
							
								<ellipse id="SVGID_6_" transform="matrix(0.5339 -0.8455 0.8455 0.5339 4.0375 124.4553)" cx="114.9" cy="58.6" rx="28.6" ry="28.6"/>
						</defs>
						<clipPath id="SVGID_7_">
							<use xlink:href="#SVGID_6_"  style="overflow:visible;"/>
						</clipPath>
						<path class="st23" d="M103.6,37.4c-0.3-0.5,1.3-1.3,0.8-2.3c-0.5-1-2.3-0.9-2.4-0.4c-0.1,0.5-2.2,1.1-1.3,2.4s1.7,1.1,1.4,1.9
							C101.9,39.8,105.2,40.4,103.6,37.4z"/>
					</g>
					<g>
						<defs>
							
								<ellipse id="SVGID_8_" transform="matrix(0.5339 -0.8455 0.8455 0.5339 4.0375 124.4553)" cx="114.9" cy="58.6" rx="28.6" ry="28.6"/>
						</defs>
						<clipPath id="SVGID_9_">
							<use xlink:href="#SVGID_8_"  style="overflow:visible;"/>
						</clipPath>
						<path class="st24" d="M98.7,35.5"/>
					</g>
					<g>
						<defs>
							
								<ellipse id="SVGID_10_" transform="matrix(0.5339 -0.8455 0.8455 0.5339 4.0375 124.4553)" cx="114.9" cy="58.6" rx="28.6" ry="28.6"/>
						</defs>
						<clipPath id="SVGID_11_">
							<use xlink:href="#SVGID_10_"  style="overflow:visible;"/>
						</clipPath>
						<path class="st25" d="M104.6,63.1c-1.4-0.3-1.5-0.4-2.5-0.4c-0.6,0-0.9,0.6-0.9,1.1c0,0.1,0,0.1,0,0.3s-0.1,0.3-0.1,0.4
							c0,0.1,0.1,0.3,0.3,0.4c0.4,0.3,1.5-0.5,1.9-0.8c0.4-0.3,0.9,0.6,1.7,1.3c0.1,0.1,0.4,0.3,0.6,0.1c0.1-0.1,0.1-0.3,0.3-0.3
							c0.1-0.1,0.3-0.1,0.3-0.3c0.3-0.3,0-0.8-0.1-1c-0.1-0.3-0.5-0.5-0.8-0.6C105,63.2,104.8,63.1,104.6,63.1z"/>
					</g>
					<g>
						<defs>
							
								<ellipse id="SVGID_12_" transform="matrix(0.5339 -0.8455 0.8455 0.5339 4.0375 124.4553)" cx="114.9" cy="58.6" rx="28.6" ry="28.6"/>
						</defs>
						<clipPath id="SVGID_13_">
							<use xlink:href="#SVGID_12_"  style="overflow:visible;"/>
						</clipPath>
						<path class="st26" d="M104.4,66.9c0,0-0.3-0.9-0.6-1c-0.4,0-1.3-0.3-1.7,0.3c-0.3,0.5-0.8,1.4-0.4,1.7
							c0.3,0.3,1.3,0.4,1.9,0.3C104.1,67.9,104.6,67.4,104.4,66.9z"/>
					</g>
					<g>
						<defs>
							
								<ellipse id="SVGID_14_" transform="matrix(0.5339 -0.8455 0.8455 0.5339 4.0375 124.4553)" cx="114.9" cy="58.6" rx="28.6" ry="28.6"/>
						</defs>
						<clipPath id="SVGID_15_">
							<use xlink:href="#SVGID_14_"  style="overflow:visible;"/>
						</clipPath>
						<path class="st27" d="M147.8,53.3c-0.5-1.5-3.3-8.4-3.7-9c-0.4-0.6-2.5-2.5-2.8-2.7c-0.3,0-4.3-3.2-5.8-3.7
							c0.5-0.9,1.1-1.9,0.9-2.5c-0.4-0.8,0.6-3.4-3.4-3.4c-4.1,0-4.6,0.1-4.6,0.1l-0.5,0.5c0,0-1.7-0.6-1.7,0.5c0,1.1-0.3,2.2-1,2.4
							c-0.8,0.1-2.5-0.1-2.8,1.4c-0.3,1.5-0.6,2.2-1,3.1c-0.4,1,0.3,1.5,1.1,0.5c0.9-1,0.8-2.2,1.4-2.7c0.6-0.4,1-0.6,1.7-0.6
							s0.6,0.1,1.4-0.3c0.8-0.4,1.3-1.7,2-1.1c0.5,0.3,1.4,1.4,1.9,2c-2.2,0.1-4.6,0.8-5.3,2.5c-1.3,3.4-3.1,8.5-0.5,8.4
							c1.1-0.1,2.3-0.9,3.1-1.8c0.8-0.8,1.4-1.5,2-2.4c0.1-0.1,0.3-0.3,0.4-0.4c0.1,0,0.3-0.1,0.4-0.1c0.9-0.1,2.2-0.3,2.8,0.5
							c0.8,0.8,2.2,1.4,2.2,2.5c0,1.1-1.4,3.3-1.4,3.3s-3.8,0-3.8-1.1s-2.3,0.3-2.2,1.7c0.1,1.4,0.5,2.5-0.6,2.5s-2.3-1.7-2.7,0.5
							c-0.4,2.3-1.5,3.4,0,4.3c1.5,0.8,2.5,0.5,4.3,0c1.8-0.5,2-1.1,3.1-1.3c1.1-0.1,2.5,1.1,3.2,1.9c0.6,0.8,1,0.6,1.4,1.9
							s3.4,3.1,4.2,3.1s-1.1,6.2-1.9,7c-0.6,0.9-3.3,2.4-4.3,2.7c-1,0.1-3.4,0.3-4.8,0.6c-1.3,0.4-1.7,4.3-1.1,6.7
							c0.5,2.4,3.6,2.7,4.4,2.3c0.8-0.4,6.2-4.7,7.8-6.4c1.4-1.7,5.5-6.9,6-9.3s0.1-7.9,0.1-7.9S148.3,54.8,147.8,53.3z"/>
					</g>
					<g>
						<defs>
							
								<ellipse id="SVGID_16_" transform="matrix(0.5339 -0.8455 0.8455 0.5339 4.0375 124.4553)" cx="114.9" cy="58.6" rx="28.6" ry="28.6"/>
						</defs>
						<clipPath id="SVGID_17_">
							<use xlink:href="#SVGID_16_"  style="overflow:visible;"/>
						</clipPath>
						<path class="st28" d="M122,46.6c0.3-0.4,0.4-0.9,0.4-1.4c0.1-0.9,0-1.8-0.8-2.2c-0.9-0.4-1.8-0.8-1.9-1.7
							c-0.1-0.8-1-2.4-1.4-1.1c-0.4,1.3-0.3,2.5,0.3,2.9c0.6,0.4,0.8,1,0.6,1.9c0,0.9,0.1,3.1,1.1,2.8
							C121.2,47.8,121.7,47.3,122,46.6z"/>
					</g>
					<g>
						<defs>
							
								<ellipse id="SVGID_18_" transform="matrix(0.5339 -0.8455 0.8455 0.5339 4.0375 124.4553)" cx="114.9" cy="58.6" rx="28.6" ry="28.6"/>
						</defs>
						<clipPath id="SVGID_19_">
							<use xlink:href="#SVGID_18_"  style="overflow:visible;"/>
						</clipPath>
						<path class="st29" d="M94.4,36c0,0,6.5,5.3,4.4,8.6c-2,3.3-3.6,6.7-2.8,8c0.8,1.3,3.2,3.3,2.7,5.5c-0.4,1.9-1.7,2.8-2,2.8
							c-0.4,0,0-2.2-0.8-3.1c-1-1-4.1-0.6-4.7,0.3c-0.6,0.9-1.3,3.9-1,6.1c0.1,1.3,1,7.1,5.1,5.1c1.5-0.8,1.3-0.6,2.2-1.1
							c0.9-0.4,0.4-3.6,1.5-3.6c1,0,1.4,0.3,0.9,1.7c-0.4,1.4-1.7,2.8-1.3,3.7c0.4,0.8,1.1,1.7,2.2,1.9c1,0.1,2.5,0.5,3.4,1.9
							c0.9,1.4,1.7,2.5,1.7,2.5s1.8-2.3,3.8-2.8c2.5-0.8,4.3-0.8,7.2,2.3c1.1,1.1,2,3.2,1.5,5.7c-0.5,2.5-1.4,5-1.5,6.2
							c-0.1,1.3-17.9,1.1-22.4-5.1c-4.4-6.1-8.9-11.2-9-12.3c-0.1-1.1-0.4-8.9-0.4-8.9l1.4-7.6C86.3,53.5,91,37.1,94.4,36z"/>
					</g>
				</g>
				<g>
					<path class="st30" d="M127.8,62.4c-0.4,0-0.8,0-1.1,0l0,0c-0.3,0-0.4,0.1-0.5,0.3l-0.1,0.1h-2.4c-0.4,0-0.8,0.4-0.8,0.8v0.3
						h-6.7c-0.1-0.1-0.3-0.1-0.4-0.1c-0.3-0.1-0.6-0.1-1-0.1c-0.1,0-0.3,0-0.5,0c-2.2,0.1-4.3,0.1-6.4,0.3h-0.5v-0.3
						c0-0.4-0.4-0.8-0.8-0.8h-2.4l-0.1-0.1c-0.1-0.1-0.4-0.3-0.5-0.3l0,0c-0.4,0-0.8,0-1.1,0c-8.1,0-13-0.6-15.8-1.5
						c0.4,4.6,1.8,8.8,4.1,12.5c0.9,0.1,1.8,0.3,2.7,0.3c1.7,0.1,8.8,0.1,10,0.1c0.1,0,0.3,0,0.3,0c0.4,0,0.6-0.3,0.8-0.6h2.3
						c0.4,0,0.8-0.4,0.8-0.8v-0.1h0.5l1.1,1c-0.4,0.8-0.3,1.8,0.4,2.3c0.3,0.3,0.6,0.4,1,0.5c0,0.5,0.3,0.9,0.6,1.3s0.8,0.5,1.3,0.5
						c0.1,0.4,0.3,0.6,0.5,0.9c0.3,0.3,0.6,0.5,1,0.5c0.1,0.4,0.3,0.6,0.5,0.9c0.4,0.3,0.8,0.5,1.3,0.5c0.4,0,0.8-0.1,1.1-0.4
						l0.4,0.4c0.4,0.4,0.9,0.5,1.4,0.5c0.5,0,1-0.3,1.4-0.6c0.3-0.4,0.5-0.8,0.5-1.1c0.4-0.1,0.8-0.3,1.1-0.6
						c0.4-0.4,0.5-0.8,0.5-1.3c0.5,0,0.9-0.3,1.1-0.6c0.4-0.4,0.6-0.9,0.6-1.4c0.4-0.1,0.8-0.3,1-0.6c0.5-0.5,0.6-1.3,0.5-2h0.8
						c0.1,0.4,0.4,0.6,0.8,0.6c0,0,0.1,0,0.3,0l0,0c1.3,0,8.4,0,10-0.1c0.9,0,1.8-0.1,2.5-0.3c2.3-3.7,3.7-7.9,4.1-12.5
						C140.7,61.8,135.8,62.4,127.8,62.4z"/>
					<path class="st30" d="M86.3,57.5c0.1-0.1,0.3-0.4,0.3-0.6c0-0.8,0-1.7,0-2.4C86.4,55.4,86.4,56.5,86.3,57.5z"/>
					<path class="st30" d="M143.6,57.4c0-0.5,0-1-0.1-1.5c0,0.4,0,0.8,0,1.1C143.5,57.1,143.5,57.2,143.6,57.4z"/>
				</g>
			</g>
			<g>
				<rect x="114.3" y="62.2" class="st31" width="10" height="7"/>
				<rect x="114.4" y="62.2" class="st6" width="3.7" height="7"/>
				<path class="st32" d="M124,70.6l-0.3-0.3c-0.9-0.9-1-1-1.9-1.9c-1.3-1.3-2.5-2.5-3.8-3.8c-0.6-0.6-1.3-1.3-1.9-1.9
					c-0.3-0.3-0.5-0.5-0.9-0.6c-0.4-0.1-0.8-0.1-1.1-0.1c-2.8,0.1-5.6,0.3-8.5,0.3v7h2.3l8.6,7.8l0,0l0.9,0.9c0.5,0.4,1.1,0.4,1.7,0
					c0.4-0.5,0.4-1.1,0-1.7l-0.3-0.3l0,0l0.3,0.3c0.5,0.5,1.3,0.5,1.7,0c0.5-0.5,0.5-1.3,0-1.7l-0.4-0.3l0,0l0.3,0.3
					c0.5,0.5,1.3,0.5,1.8,0c0.5-0.5,0.5-1.3,0-1.8l-0.4-0.3l0,0l0.1,0.1c0.5,0.5,1.3,0.5,1.8,0C124.5,71.8,124.5,71,124,70.6z"/>
				<rect x="102.5" y="61.2" class="st5" width="3.9" height="8.9"/>
				<g>
					<path class="st11" d="M103.3,60.8c-6.5,0-17.4-0.3-20.6-3.3c-0.6-0.6-0.9-1.1-0.8-1.7c0.1-0.4,1-0.9,3.8-1.3c0-1.1,0-2.4,0-3.6
						c0-1.8,0.1-3.7,0.4-5.5c-3.7,0.4-7.6,1.5-10.2,3.8c-1.9,1.8-2.9,4.1-3.1,6.6c0,3.2,1.1,6.1,3.6,8.4c3.3,3.1,8.9,5.7,16.7,6.2
						c1.8,0.1,10,0.1,10.2,0.1V60.8z"/>
				</g>
				<path class="st11" d="M105.5,68.3c0,0.4-0.3,0.6-0.6,0.6s-0.6-0.3-0.6-0.6c0-0.4,0.3-0.6,0.6-0.6S105.5,67.9,105.5,68.3z"/>
				<rect x="123.6" y="61.2" class="st5" width="3.9" height="8.9"/>
				<g>
					<path class="st20" d="M126.7,60.8c6.5,0,17.4-0.3,20.6-3.3c0.6-0.6,0.9-1.1,0.8-1.7c-0.1-0.4-1-0.9-3.8-1.3c0-1.1,0-2.4,0-3.6
						c0-1.8-0.1-3.7-0.4-5.5c3.7,0.4,7.6,1.5,10.2,3.8c1.9,1.8,2.9,3.9,2.9,6.5c0,3.2-1.1,6.4-3.6,8.6c-3.3,3.1-8.9,5.5-16.7,6
						c-1.8,0.1-10,0.1-10.2,0.1v-9.8H126.7z"/>
				</g>
				<path class="st20" d="M124.5,68.3c0,0.4,0.3,0.6,0.6,0.6s0.6-0.3,0.6-0.6c0-0.4-0.3-0.6-0.6-0.6S124.5,67.9,124.5,68.3z"/>
				<g>
					<path class="st31" d="M112.3,71.8l-0.9,0.9c-0.5,0.5-1.1,0.5-1.7,0l0,0c-0.5-0.5-0.5-1.1,0-1.7l0.9-0.9c0.5-0.5,1.1-0.5,1.7,0
						l0,0C112.7,70.6,112.7,71.3,112.3,71.8z"/>
					<path class="st31" d="M113.9,73.6l-0.9,0.9c-0.5,0.5-1.1,0.5-1.7,0l0,0c-0.5-0.5-0.5-1.1,0-1.7l0.9-0.9c0.5-0.5,1.1-0.5,1.7,0
						l0,0C114.4,72.4,114.4,73.1,113.9,73.6z"/>
					<path class="st31" d="M115.4,75l-0.8,0.8c-0.4,0.4-1.1,0.5-1.5,0l0,0c-0.4-0.4-0.5-1.1,0-1.5l0.8-0.8c0.4-0.4,1.1-0.5,1.5,0
						l0,0C115.8,74,115.8,74.6,115.4,75z"/>
					<path class="st31" d="M116.9,76.4l-0.8,0.8c-0.4,0.4-1,0.4-1.4,0l0,0c-0.4-0.4-0.4-1,0-1.4l0.8-0.8c0.4-0.4,1-0.4,1.4,0l0,0
						C117.3,75.4,117.3,76,116.9,76.4z"/>
				</g>
				<path class="st31" d="M112.5,67c-0.6,0.5-0.8,1.5-0.3,2.2c0.5,0.6,1.5,0.8,2.2,0.3l5.6-4.6c0.6-0.5,0.5-1.3,0-2l0,0
					c-0.3-0.3-0.4-0.5-0.6-0.8h-1.3L112.5,67z"/>
			</g>
			<ellipse transform="matrix(0.6849 -0.7286 0.7286 0.6849 0.4156 90.3422)" class="st33" cx="104.7" cy="44.7" rx="11.9" ry="9"/>
		</g>
		<g>
			<circle class="st2" cx="114.9" cy="98.9" r="8.3"/>
			<path class="st7" d="M114.9,94.6c-1.7,0-3.1,1.4-3.1,3.1s3.1,5.6,3.1,5.6s3.1-3.9,3.1-5.6S116.7,94.6,114.9,94.6z M114.9,99.2
				c-0.8,0-1.4-0.6-1.4-1.4c0-0.8,0.6-1.4,1.4-1.4c0.8,0,1.4,0.6,1.4,1.4C116.4,98.4,115.8,99.2,114.9,99.2z"/>
		</g>
		<g>
			<circle class="st2" cx="84.9" cy="85.6" r="8.3"/>
			<g>
				<g>
					
						<rect x="83.1" y="82.8" transform="matrix(0.9032 -0.4292 0.4292 0.9032 -28.2031 45.0517)" class="st3" width="5.5" height="4.6"/>
					
						<rect x="84.5" y="82.9" transform="matrix(0.9032 -0.4292 0.4292 0.9032 -27.7216 44.661)" class="st4" width="1.4" height="1.8"/>
				</g>
				<g>
					<polyline class="st34" points="79.2,82.5 80.4,82 83.9,89.4 90.2,86.3 					"/>
					<path class="st11" d="M86.7,89.9c0.3,0.6,0,1.4-0.6,1.7c-0.6,0.3-1.4,0-1.7-0.6c-0.3-0.6,0-1.4,0.6-1.7S86.4,89.3,86.7,89.9z"
						/>
					<path class="st8" d="M86,90.2c0.1,0.3,0,0.6-0.3,0.8c-0.3,0.1-0.6,0-0.8-0.3c-0.1-0.3,0-0.6,0.3-0.8
						C85.5,89.8,85.9,89.9,86,90.2z"/>
				</g>
			</g>
		</g>
	</g>
</g>
</svg>
