<?xml version="1.0" encoding="utf-8"?>
<!-- Generator: Adobe Illustrator 22.0.0, SVG Export Plug-In . SVG Version: 6.00 Build 0)  -->
<svg version="1.1" id="Layer_1" xmlns="http://www.w3.org/2000/svg" xmlns:xlink="http://www.w3.org/1999/xlink" x="0px" y="0px"
	 viewBox="0 0 230 117" style="enable-background:new 0 0 230 117;" xml:space="preserve">
<style type="text/css">
	.st0{fill:#EF5350;}
	.st1{fill:none;}
	.st2{fill:#5A6E7F;}
	.st3{fill:#97D5C9;}
	.st4{fill:#5CBFAB;}
</style>
<g id="Background">
	<rect class="st0" width="230" height="117"/>
</g>
<g id="Layer_2_1_">
	<g>
		<path class="st1" d="M90.4,34.3c-8.4,0.7-14.5,8.1-13.7,16.4s8.1,14.5,16.4,13.7s14.5-8.1,13.7-16.4C106,39.7,98.7,33.6,90.4,34.3
			z"/>
		<path class="st1" d="M141.7,69.4c-4.8,3-6.3,9.2-3.6,14c2.8,5.1,9.4,6.9,14.5,3.9c4.9-3,6.6-9.4,3.7-14.3
			C153.2,67.9,146.6,66.2,141.7,69.4z"/>
		<path class="st2" d="M126.5,61.2c0.9-2.7,1.5-5.7,1.8-8.7l-6-2.8c0-0.9,0-1.9-0.1-3c0-0.3,0-0.6-0.1-1l5.7-3.6
			c-0.6-3-1.5-5.8-2.7-8.4l-6.6,0.4c-0.6-1.2-1.3-2.2-2.1-3.3l3.1-5.8c-1.9-2.2-4.2-4.2-6.6-5.8l-5.5,3.7c-1.2-0.6-2.2-1.2-3.4-1.8
			l-0.3-6.6c-2.7-0.9-5.7-1.5-8.7-1.8l-2.8,6c-0.9,0-1.9,0-3,0.1c-0.3,0-0.7,0-1,0.1l-3.6-5.8c-3,0.6-5.8,1.5-8.4,2.7l0.4,6.6
			c-1.2,0.6-2.2,1.3-3.3,2.1l-5.8-3.1c-2.2,1.9-4.2,4.2-5.8,6.6l3.7,5.5c-0.6,1.2-1.2,2.2-1.8,3.4l-6.6,0.3C56.2,40,55.6,43,55.3,46
			l6,2.8c0,0.9,0,1.9,0.1,3c0,0.3,0,0.6,0.1,1l-6,3.7c0.6,3,1.5,5.8,2.7,8.4l6.6-0.4c0.6,1.2,1.3,2.2,2.1,3.3l-3.1,5.8
			c1.9,2.2,4.2,4.2,6.6,5.8l5.5-3.7c1.2,0.6,2.2,1.2,3.4,1.8l0.3,6.6c2.7,0.9,5.7,1.5,8.7,1.8l2.8-6c0.9,0,1.9,0,3-0.1
			c0.3,0,0.6,0,1-0.1l3.6,5.7c3-0.6,5.8-1.5,8.4-2.7l-0.4-6.6c1.2-0.6,2.2-1.3,3.3-2.1l5.8,3.1c2.2-1.9,4.2-4.2,5.8-6.6l-3.7-5.5
			c0.6-1.2,1.2-2.2,1.8-3.4L126.5,61.2z M91.7,71c-11.9,0-21.6-9.7-21.6-21.6s9.7-21.6,21.6-21.6s21.6,9.7,21.6,21.6
			S103.6,71,91.7,71z"/>
		<path class="st2" d="M71.7,49.4c0,11,8.9,20,20,20s20-8.9,20-20s-8.9-20-20-20C80.7,29.3,71.7,38.4,71.7,49.4z M106.8,48
			c0.7,8.4-5.4,15.7-13.7,16.4s-15.7-5.4-16.4-13.7S82,35.1,90.4,34.3C98.7,33.6,106,39.7,106.8,48z"/>
		<path class="st2" d="M129.9,78.2c-0.1,9.5,7.3,17.3,16.9,17.6c9.5,0.1,17.3-7.3,17.6-16.9c0.1-9.5-7.3-17.3-16.9-17.6
			C138,61.2,130.2,68.8,129.9,78.2z M156.1,73c3,4.9,1.3,11.5-3.7,14.3c-5.1,3-11.6,1.2-14.5-3.9c-2.7-4.8-1-11.2,3.6-14
			C146.6,66.2,153.2,67.9,156.1,73z"/>
		<path class="st2" d="M174.6,81.3c0.1-1.9,0.1-4,0-6l-4.6-1c-0.3-1.2-0.6-2.4-1-3.6l3.4-3.4c-0.4-0.9-0.9-1.8-1.3-2.7
			c-0.4-0.9-1-1.6-1.6-2.5l-4.6,1.3c-0.9-0.9-1.8-1.8-2.7-2.7l1.3-4.6c-1.6-1.2-3.4-2.2-5.2-3l-3.3,3.4c-1.2-0.4-2.4-0.7-3.7-0.9
			L150,51c-1.9-0.1-4-0.1-6,0l-1.2,4.6c-1.2,0.3-2.4,0.6-3.6,1l-3.4-3.4c-0.9,0.4-1.8,0.9-2.7,1.3c-0.9,0.4-1.6,1-2.5,1.6l1.3,4.6
			c-0.9,0.9-1.8,1.8-2.7,2.7l-4.6-1.3c-1.2,1.6-2.2,3.4-3,5.2l3.4,3.3c-0.4,1.2-0.7,2.4-0.9,3.7l-4.6,1.2c-0.1,1.9-0.1,4,0,6l4.6,1
			c0.3,1.2,0.6,2.4,1,3.6l-3.4,3.4c0.4,0.9,0.9,1.8,1.3,2.7c0.4,0.9,1,1.8,1.6,2.5l4.6-1.3c0.9,0.9,1.8,1.8,2.7,2.7l-1.3,4.6
			c1.6,1.2,3.4,2.2,5.2,3l3.3-3.4c1.2,0.4,2.4,0.7,3.7,0.9l1.2,4.6c1.9,0.1,4,0.1,6,0l1-4.6c1.2-0.3,2.4-0.6,3.6-1l3.4,3.4
			c0.9-0.4,1.8-0.9,2.7-1.3c0.9-0.4,1.6-1,2.5-1.6l-1.3-4.6c0.9-0.9,1.8-1.8,2.7-2.7l4.6,1.3c1.2-1.6,2.2-3.4,3-5.2l-3.4-3.3
			c0.4-1.2,0.7-2.4,0.9-3.6L174.6,81.3z M146.8,96.5c-9.8-0.1-17.7-8.4-17.6-18.3c0.1-9.8,8.4-17.7,18.3-17.6
			c9.8,0.1,17.7,8.4,17.6,18.3C164.8,88.8,156.6,96.7,146.8,96.5z"/>
		<path class="st3" d="M70.1,49.4c0,11.9,9.7,21.6,21.6,21.6s21.6-9.7,21.6-21.6s-9.7-21.6-21.6-21.6S70.1,37.5,70.1,49.4z
			 M111.7,49.4c0,11-8.9,20-20,20s-20-8.9-20-20s8.9-20,20-20C102.8,29.3,111.7,38.4,111.7,49.4z"/>
		<path class="st4" d="M129.2,78.2c-0.1,9.8,7.6,18,17.6,18.3c9.8,0.1,18-7.6,18.3-17.6c0.1-9.8-7.6-18-17.6-18.3
			C137.7,60.4,129.4,68.3,129.2,78.2z M164.4,78.9c-0.1,9.4-8.1,17-17.6,16.9c-9.5-0.1-17-8.1-16.9-17.6s8.1-17,17.6-16.9
			C156.9,61.6,164.5,69.4,164.4,78.9z"/>
	</g>
</g>
</svg>
