<?xml version="1.0" encoding="utf-8"?>
<!-- Generator: Adobe Illustrator 22.0.0, SVG Export Plug-In . SVG Version: 6.00 Build 0)  -->
<svg version="1.1" id="Layer_1" xmlns="http://www.w3.org/2000/svg" xmlns:xlink="http://www.w3.org/1999/xlink" x="0px" y="0px"
	 viewBox="0 0 230 117" style="enable-background:new 0 0 230 117;" xml:space="preserve">
<style type="text/css">
	.st0{fill:#EF5552;}
	.st1{fill:#F5BE57;}
	.st2{fill:#D5D6DC;}
	.st3{fill:#314859;}
	.st4{fill:#E66454;}
	.st5{fill:#ECF0F3;}
	.st6{fill:#3B566A;}
	.st7{fill:#FCD463;}
</style>
<g id="Background">
	<rect x="0" y="0" class="st0" width="230" height="117"/>
</g>
<g>
	<path class="st1" d="M107.2,48.1h15.5v21.1h-15.5V48.1z"/>
	<path class="st2" d="M127.5,98.4V66l-2.5-1.4l-10,2l-10-2l-0.4,0.2v33.5H127.5z"/>
	<path class="st3" d="M144.9,98.4V85c0-4-1.5-7.8-4.1-10.7c-1.2-1.3-2.6-2.4-4.2-3.3l-10-5.5l-1.6-0.9l-1,0.2
		c-0.6,4.6-2.5,18.6-6.9,33.6H144.9z"/>
	<path class="st3" d="M112.8,98.4c-4.3-15-6.3-29-6.9-33.6l-1-0.2l-1.6,0.9l-10,5.5c-1.6,0.9-3,2-4.1,3.3c-2.7,2.9-4.1,6.8-4.1,10.7
		v13.4H112.8z"/>
	<path class="st4" d="M110.9,98.4h8.2l-1.9-24.6l2-3.5l-2.1-3.6l-2.1-0.1l-2.1,0.1l-2.1,3.6l2,3.5L110.9,98.4z"/>
	<path class="st5" d="M122.8,60.7l-7.8,5.9l6.4,8.3l3.6-10.3L122.8,60.7z"/>
	<path class="st5" d="M107.2,60.7l7.8,5.9l-6.4,8.3L105,64.6L107.2,60.7z"/>
	<path class="st6" d="M104.2,83.9c0.9,4,3.5,9.7,6,14.5h2.6c-4.3-15-6.3-29-6.9-33.6c-0.1-1-0.2-1.5-0.2-1.5l-2.4,2.2l0,0l-0.5,12.6
		l2.2,2.2L104.2,83.9z"/>
	<path class="st6" d="M119.8,98.4c2.5-4.8,5.1-10.5,6-14.5l-0.8-3.7l2.2-2.2l-0.5-12.6l-2.4-2.2c0,0-0.1,0.5-0.2,1.5
		c-0.6,4.6-2.5,18.6-6.9,33.6H119.8z"/>
	<path class="st1" d="M102.1,38.2c-1.2,0.3-1.7,2.7-1,5.4c0.6,2.7,2.1,4.7,3.3,4.4c1.2-0.3,1.7-2.7,1-5.4
		C104.8,39.9,103.3,37.9,102.1,38.2z"/>
	<path class="st1" d="M127.6,38.2c1.2,0.3,1.7,2.7,1,5.4c-0.6,2.7-2.1,4.7-3.3,4.4c-1.2-0.3-1.7-2.7-1-5.4
		C124.9,39.9,126.4,37.9,127.6,38.2z"/>
	<ellipse class="st7" cx="114.8" cy="41.7" rx="11.6" ry="16.9"/>
	<path class="st6" d="M128.9,28.8c-0.1-0.3-0.3-0.7-0.6-0.7s-1.4-1.9-2-2.7c-0.3-0.5-0.7-0.9-1.1-1.4c-0.5-0.6-1-1.3-1.6-1.9
		c-0.2-0.2-0.3-0.4-0.5-0.6l0,0c0,0-2.9-4.3-12.2-2.4c-9.3,1.8-10.9,13-10.2,15.7c0,0,0,0,0,0c0,0.3,0,0.6,0,0.9
		c0.1,0.9,0.2,1.8,0.5,2.7c0.6,2.1,1.8,4,1.8,6.2c0,0.4,0,0.7,0.1,1.1c0.1,0.4,0.4,0.7,0.8,0.6c0.3,0,0.6-0.3,0.6-0.7
		c0.1-0.3,0-0.6,0-1c-0.8-5.1,0.3-10.5,3.1-14.9c0.6-0.9,1.3-1.8,2.4-2c0.8-0.1,1.6,0.2,2.3,0.5c1.3,0.4,2.7,0.3,3.9-0.1
		c1.1-0.4,2.2-1.1,3.3-1c0.9,0.1,1.8,0.6,2.4,1.3c0.6,0.7,1,1.6,1.3,2.5c1.7,4.6,2.2,9.7,1.5,14.6c-0.1,0.6,0,1.3,0.5,1.4
		c0.4,0.1,0.7-0.3,0.8-0.7c0.1-0.4,0-1.3,0.4-1.7c0.3-0.4,0.5-0.9,0.6-1.5C127.3,42.1,130.5,36.4,128.9,28.8z"/>
</g>
</svg>
