<?xml version="1.0" encoding="utf-8"?>
<!-- Generator: Adobe Illustrator 22.0.0, SVG Export Plug-In . SVG Version: 6.00 Build 0)  -->
<svg version="1.1" id="Layer_1" xmlns="http://www.w3.org/2000/svg" xmlns:xlink="http://www.w3.org/1999/xlink" x="0px" y="0px"
	 viewBox="0 0 230 116" style="enable-background:new 0 0 230 116;" xml:space="preserve">
<style type="text/css">
	.st0{fill:#EF5350;}
	.st1{fill:#511D21;}
	.st2{fill:#40060B;}
	.st3{opacity:0.4;fill:#511D21;}
	.st4{opacity:0.4;fill:#E0D7D8;}
	.st5{fill:#3C3D44;}
	.st6{fill:#080A12;}
	.st7{opacity:0.3;fill:#414248;}
	.st8{fill:#43454B;}
	.st9{fill:none;stroke:#B6A0A2;stroke-linecap:round;stroke-linejoin:round;stroke-miterlimit:10;}
	.st10{opacity:0.4;fill:#414248;}
	.st11{fill:#414248;}
</style>
<g id="Background">
	<rect class="st0" width="230" height="116"/>
</g>
<g>
	<g>
		<g>
			<polygon class="st1" points="76.3,97.7 73.4,97.7 72.4,79.5 77.1,79.5 			"/>
			<path class="st2" d="M76.3,97.9h-2.9c-0.1,0-0.2-0.1-0.2-0.2l-1-18.2c0,0,0-0.1,0.1-0.1c0,0,0.1,0,0.1,0h4.7c0.1,0,0.1,0,0.1,0
				c0,0,0.1,0.1,0.1,0.1l-0.8,18.2C76.5,97.8,76.4,97.9,76.3,97.9z M73.6,97.5h2.6l0.8-17.9h-4.3L73.6,97.5z"/>
		</g>
		<path class="st3" d="M75.8,79.5c0,1.4-0.1,2.7-0.1,4.1c0,1,0.1,2.1,0.1,3.1c0,1.1-0.2,2.1-0.3,3.2c-0.1,1,0.2,2,0,3
			c-0.2,1-0.6,1.9-0.7,2.9c-0.1,0.9-0.9,1.1-1.5,1.4l0,0.6h2.9l0.8-18.2H75.8z"/>
		<path class="st4" d="M73.7,94.5c0.3-0.7,0.4-1.5,0.3-2.3c-0.1-1.2-0.2-2.4-0.3-3.7c-0.1-2.5-0.1-5-0.2-7.5h-0.8l0.7,13.9
			C73.6,94.6,73.7,94.3,73.7,94.5z"/>
	</g>
	<g>
		<g>
			<polygon class="st1" points="159,97.7 156.1,97.7 155.1,79.5 159.8,79.5 			"/>
			<path class="st2" d="M159,97.9h-2.9c-0.1,0-0.2-0.1-0.2-0.2l-1-18.2c0,0,0-0.1,0.1-0.1c0,0,0.1,0,0.1,0h4.7c0.1,0,0.1,0,0.1,0
				c0,0,0.1,0.1,0.1,0.1l-0.8,18.2C159.2,97.8,159.1,97.9,159,97.9z M156.3,97.5h2.5l0.8-17.9h-4.3L156.3,97.5z"/>
		</g>
		<path class="st3" d="M158.5,79.5c0,1.4-0.1,2.7-0.1,4.1c0,1,0.1,2.1,0.1,3.1c0,1.1-0.2,2.1-0.3,3.2c-0.1,1,0.2,2,0,3
			c-0.2,1-0.6,1.9-0.7,2.9c-0.1,0.9-0.9,1.1-1.5,1.4l0,0.6h2.9l0.8-18.2H158.5z"/>
		<path class="st4" d="M156.4,94.5c0.3-0.7,0.4-1.5,0.3-2.3c-0.1-1.2-0.2-2.4-0.3-3.7c-0.1-2.5-0.1-5-0.2-7.5h-0.8l0.7,13.9
			C156.3,94.6,156.4,94.3,156.4,94.5z"/>
	</g>
	<g>
		<g>
			<g>
				<path class="st5" d="M158.9,27.8c-0.9-5.3-12.2-6.3-12.2-6.3l0,0c0.4,6.6,0.4,18.6-0.9,40.7c0,0.2,0,0.5,0,0.7
					c4.7,0,7.7,0,7.7,0l5.4-33.3C159,29,159,28.4,158.9,27.8z"/>
				<path class="st6" d="M153.5,63.1h-7.7c-0.1,0-0.1,0-0.1,0c0,0-0.1-0.1-0.1-0.1l0-0.7c1.2-18.8,1.5-32.5,0.9-40.7
					c0,0,0-0.1,0.1-0.1c0,0,0.1,0,0.2,0c0,0,2.9,0.3,5.8,1.2c3.9,1.2,6.2,3,6.5,5.3c0,0.6,0,1.2,0,1.9L153.7,63
					C153.7,63.1,153.6,63.1,153.5,63.1z M146,62.8h7.3l5.4-33.2c0.1-0.6,0.1-1.3,0-1.8c-0.8-4.7-10.2-5.9-11.8-6.1
					c0.5,8.2,0.2,21.8-0.9,40.6L146,62.8z"/>
			</g>
			<g>
				<path class="st5" d="M146.8,21.6c-36.4-7.3-63.5,0-63.5,0c-0.4,6.6-0.4,18.6,0.9,40.7c0,0.2,0,0.5,0,0.7c14.7,0,46.8,0,61.6,0
					c0-0.2,0-0.5,0-0.7C147.2,40.2,147.2,28.2,146.8,21.6z"/>
				<path class="st6" d="M145.8,63.1H84.2c-0.1,0-0.2-0.1-0.2-0.2l0-0.7c-1.2-18.9-1.5-32.6-0.9-40.8c0-0.1,0.1-0.1,0.1-0.1
					c0.1,0,12.2-3.3,30.9-3.3c10.9,0,21.9,1.1,32.7,3.3c0.1,0,0.1,0.1,0.2,0.1c0.5,8.2,0.2,21.9-0.9,40.8l0,0.7
					C146,63.1,145.9,63.1,145.8,63.1z M84.4,62.8h61.2l0-0.5c1.1-18.8,1.5-32.4,0.9-40.6c-10.7-2.1-21.6-3.2-32.5-3.2
					c-17.6,0-29.3,2.9-30.6,3.2c-0.5,8.2-0.2,21.8,0.9,40.6L84.4,62.8z"/>
			</g>
			<path class="st7" d="M146.8,21.6c-5.3-1.1-10.4-1.8-15.2-2.3c3.7,1.2,6.8,3.2,8.8,6.2c1.9,2.8,2.5,7.3,2.6,10.4
				c0.2,3.6-0.7,7.2-2.9,10.4c-4.4,6.3-13,8.8-21.5,8.9c-7.2,0.1-16.2,0.4-23-1.9c-4.2-1.4-8.3-4.2-9.6-7.8c-1.1-3-1.5-6.1-1.7-9.3
				c-0.2-2.8-0.7-5.7-0.3-8.5c0.5-3,2.1-5.4,4.6-7.3c-3.5,0.6-5.4,1.1-5.4,1.1c-0.4,6.6-0.4,18.6,0.9,40.7c0,0.2,0,0.5,0,0.7h61.6
				c0-0.2,0-0.5,0-0.7C147.2,40.2,147.2,28.2,146.8,21.6z"/>
			<path class="st7" d="M146.3,21.9c-1.5-1.2-4.7-1.3-6.7-1.6c1.1,0.2,2.8,3.2,3.3,4c0.9,1.4,1.5,2.9,1.9,4.5
				c0.9,3.6,0.7,7.4,0.6,11c-0.1,5,0.7,11.2-3.9,15.1c-7.1,6.1-20.4,3.2-29.5,3.4c-9,0.3-23.2,1.7-28.3-6.1c0.2,3.1,0.3,6.4,0.6,10
				c0,0.2,0,0.5,0,0.7h61.6c0-0.2,0-0.5,0-0.7c0.8-12.8,1-25.7,1.3-38.5C147.2,23,146.9,22.4,146.3,21.9z"/>
			<g>
				<path class="st8" d="M83.3,21.6L83.3,21.6c-3.5,0-11.8,2-12.1,5.7c-0.2,3.3,0.8,6.8,1.4,10.1c1.2,7.4,2.3,14.9,3.5,22.4
					c0,0.2,0.4,3.3,0.5,3.3c0,0,3,0,7.7,0c0-0.2,0-0.5,0-0.7C82.9,40.2,82.8,28.2,83.3,21.6z"/>
				<path class="st6" d="M84.2,63.1h-7.7c-0.2,0-0.2,0-0.7-3.2l-0.1-0.8c-1.1-7.2-2.2-14.6-3.4-21.8c-0.1-0.9-0.3-1.8-0.5-2.7
					c-0.5-2.4-1-5-0.9-7.4c0.2-3.9,9-5.8,12.3-5.8c0.1,0,0.1,0,0.1,0c0,0,0.1,0.1,0.1,0.1c-0.5,8.2-0.2,21.9,0.9,40.7l0,0.7
					c0,0,0,0.1-0.1,0.1C84.4,63.1,84.3,63.1,84.2,63.1z M76.7,62.8H84l0-0.5c-1.1-18.7-1.5-32.4-0.9-40.6
					c-3.6,0.1-11.4,2.1-11.6,5.5c-0.1,2.4,0.4,4.9,0.9,7.3c0.2,0.9,0.4,1.8,0.5,2.7c1.2,7.3,2.3,14.7,3.4,21.8l0.1,0.5
					c0,0,0,0.1,0,0.3C76.5,61.6,76.6,62.5,76.7,62.8z"/>
			</g>
			<path class="st7" d="M158.9,27.8c-0.9-5.3-12.2-6.3-12.2-6.3l0,0c0.4,6.6,0.4,18.6-0.9,40.7c0,0.2,0,0.5,0,0.7c4.7,0,7.7,0,7.7,0
				l5.4-33.3C159,29,159,28.4,158.9,27.8z M154.9,34.5c-0.1,3-0.3,6-0.8,9c-0.4,2-1,4.4-3.2,5.6c-1.2,0.7-2.8,1.8-2.8-0.1
				c0.1-6.4,0.5-12.8,0.5-19.1c0-1.5-0.1-3.5,0.7-4.9c1.2-1.9,3.7-0.6,4.5,0.7c1.1,1.6,1,3.5,1.1,5.3
				C154.9,32,154.9,33.2,154.9,34.5z"/>
			<path class="st7" d="M84.2,62.3c-1.4-22.1-1.4-34.1-0.9-40.7h0c-1.1,0-2.7,0.2-4.3,0.6c0.1,0.1,0.3,0.1,0.4,0.2
				c2,1.2,1.9,3.3,2,5.1c0.3,3,0.7,5.9,0.9,8.9c0.2,2.2,0.1,4.4,0.3,6.6c0.1,1.4,0.4,3.1-0.4,4.4c-0.8,1.3-2.1,1.2-3.7,1
				c-1.3-0.2-2.1,0.2-2.9,0.9c-0.2,0.2-0.4,0.3-0.6,0.3c-0.1,0-0.3,0.1-0.5,0.1c0.5,3.4,1,6.7,1.5,10.1c0,0.2,0.4,3.3,0.5,3.3h7.7
				C84.2,62.8,84.2,62.5,84.2,62.3z"/>
		</g>
		<g>
			<g>
				<path class="st9" d="M138.3,54.9"/>
			</g>
		</g>
		<g>
			<g>
				<path class="st5" d="M151.4,65.9c0.1-0.3-0.1-0.9-0.8-1.7c-2.8-3.5-17.9-5.5-35.4-5.2c-17.5-0.3-32.6,1.7-35.4,5.2
					c-0.7,0.8-0.9,1.4-0.8,1.7c0,0.2,0,0.3,0,0.4c-0.1,0-0.1,0-0.2,0c0,0,0,0,0,0.1v5.9c0,1.2,0.9,2.1,2,2.1h68.6c1.1,0,2-1,2-2.1
					v-5.8c-0.1,0-0.2,0-0.3,0C151.4,66.5,151.5,66.3,151.4,65.9z"/>
				<path class="st6" d="M149.4,74.6H80.8c-1.2,0-2.2-1-2.2-2.3v-5.9c0,0,0-0.1,0-0.1c0-0.1,0.1-0.2,0.2-0.2h0c0-0.1,0-0.1,0-0.2
					c-0.1-0.4,0.1-1,0.8-1.8c2.6-3.2,15.4-5.3,32.5-5.3c1,0,2.1,0,3.1,0c1,0,2.1,0,3.1,0c17.1,0,29.9,2.1,32.5,5.3
					c0.7,0.8,0.9,1.4,0.8,1.8c0,0.2,0,0.3,0,0.5c0,0,0.1,0.1,0.1,0.1v5.8C151.6,73.6,150.6,74.6,149.4,74.6z M79,66.5l0,5.8
					c0,1.1,0.8,2,1.8,2h68.6c1,0,1.8-0.9,1.8-2v-5.7l-0.2,0c-0.1,0-0.2-0.1-0.2-0.2c0-0.1,0.1-0.2,0.2-0.2c0.1,0,0.1,0,0.1,0
					c0,0,0.1-0.1,0-0.3c0,0,0-0.1,0-0.1c0.1-0.3-0.1-0.8-0.7-1.6c-2.5-3.1-15.4-5.2-32.2-5.2c-1,0-2.1,0-3.1,0
					C97,58.9,82.6,61,79.9,64.3c-0.6,0.7-0.8,1.3-0.7,1.6c0,0,0,0.1,0,0.1c0,0.2,0,0.2,0,0.3c0,0,0,0.1,0,0.1
					C79.1,66.4,79.1,66.5,79,66.5L79,66.5z"/>
			</g>
			<path class="st10" d="M151.4,65.9c0.1-0.2,0-0.5-0.2-0.9c-0.3,0.5-0.9,0.9-1.8,1.2c-1.4,0.5-3,0.6-4.5,0.7
				c-2.1,0.2-4.1,0.4-6.2,0.5c-8.7,0.4-17.4,0.1-26.1,0.2c-6.3,0-12.6-0.1-18.9-0.2c-3.5-0.1-7.6,0-10.9-1.1
				c-1.1-0.4-2.2-0.9-2.5-1.9c-0.1-0.2-0.1-0.4-0.1-0.6c-0.1,0.1-0.2,0.2-0.3,0.4c-0.7,0.8-0.9,1.4-0.8,1.7c0,0.2,0,0.3,0,0.4
				c-0.1,0-0.1,0-0.2,0c0,0,0,0,0,0.1v5.9c0,1.2,0.9,2.1,2,2.1h68.6c1.1,0,2-1,2-2.1v-5.8c-0.1,0-0.2,0-0.3,0
				C151.4,66.5,151.5,66.3,151.4,65.9z"/>
			<path class="st10" d="M150.7,69c-5.2,3.5-12.6,3.6-19.2,4.1c-8.6,0.6-17.3,0.4-25.9,0.3c-7.2-0.1-14.7,0-21.7-1.5
				c-1.9-0.4-4.3-1.1-5.2-2.6v3.1c0,1.2,0.9,2.1,2,2.1h68.6c1.1,0,2-1,2-2.1v-3.9C151.2,68.6,150.9,68.8,150.7,69z"/>
			<path class="st10" d="M86.6,61.7c0,0,29.3-5.2,56.5,0C143.1,61.7,105.8,59.1,86.6,61.7z"/>
			<path class="st10" d="M81.9,65h67C148.9,65,109.3,68.1,81.9,65z"/>
		</g>
		<g>
			<g>
				<path class="st5" d="M150.9,65.1c0,0-0.1,0-0.1,0c0.4,0.5,0.5,0.9,0.5,0.9s-0.3,3.5-0.6,7.9H79.4c-0.3-4.5-0.6-7.9-0.6-7.9
					s0-0.3,0.5-0.9c-0.1,0-0.1,0-0.1,0c-8.6,7.8-13.3,7.6-13.3,7.6l0.8,4.3c0,0,0.6,3,1.9,3.4c1.3,0.4,11.4,0.3,11.4,0.3h70.2
					c0,0,0.3,0,0.3,0s10.1,0.1,11.4-0.3c0.5-0.2,1-0.8,1.3-1.5l1.1-6.1C164.2,72.7,159.5,72.9,150.9,65.1z"/>
				<path class="st6" d="M150.2,80.8c0,0-0.1,0-0.1,0H79.9c0,0-0.9,0-2.1,0c-3.8,0-8.5-0.1-9.3-0.3c-1.3-0.4-1.9-3.2-2-3.5l-0.8-4.3
					c0,0,0-0.1,0.1-0.1c0,0,0.1-0.1,0.2-0.1c0,0,0,0,0,0c0.5,0,5.1-0.2,13.1-7.5c0,0,0.1-0.1,0.1-0.1l0.1,0c0.1,0,0.1,0,0.2,0.1
					c0,0.1,0,0.1,0,0.2C79,65.6,79,65.9,79,65.9c0,0,0.3,3.4,0.6,7.7h70.9c0.3-4.3,0.6-7.7,0.6-7.8h0c0,0-0.1-0.3-0.4-0.8
					c0-0.1,0-0.1,0-0.2c0-0.1,0.1-0.1,0.2-0.1l0.1,0c0.1,0,0.1,0,0.1,0.1c8,7.3,12.6,7.5,13.1,7.5c0.1,0,0.1,0,0.2,0.1
					c0,0,0.1,0.1,0.1,0.1l-1.1,6.1c-0.4,0.9-0.9,1.5-1.4,1.7c-0.9,0.3-5.6,0.3-9.3,0.3c-1.2,0-2,0-2.1,0
					C150.4,80.8,150.3,80.8,150.2,80.8z M150.1,80.5C150.2,80.5,150.2,80.5,150.1,80.5c0.2,0,0.2,0,0.2,0c0,0,0.9,0,2.2,0
					c5.2,0,8.6-0.1,9.2-0.3c0.3-0.1,0.7-0.4,1.2-1.4l1.1-5.9c-1-0.1-5.4-0.7-12.5-7.1c0,0.1,0,0.1,0,0.1c0,0-0.3,3.5-0.6,7.9
					c0,0.1-0.1,0.2-0.2,0.2H79.4c-0.1,0-0.2-0.1-0.2-0.2c-0.3-4.5-0.6-7.9-0.6-7.9c0,0,0-0.1,0-0.2c-7.1,6.3-11.5,7-12.5,7.1
					l0.7,4.1c0.2,1,0.9,3,1.8,3.3c0.6,0.2,4,0.3,9.2,0.3c1.3,0,2.1,0,2.1,0H150.1z"/>
			</g>
		</g>
		<path class="st10" d="M124.5,19.2c0,0-25-0.8-34.2,2.3c0,0-4.6,1-5,7c-0.4,6,1.4,14.3,1.4,14.3s-3.8-17.4,3.6-20.1
			C97.7,20.1,124.5,19.2,124.5,19.2z"/>
		<path class="st10" d="M151.4,25.2c0,0-1.2-0.4-1.6,1.8c-0.4,2.2-0.8,20.9-0.8,20.9s0.2,1.5,1.2-0.2
			C151.3,46,152.7,24.5,151.4,25.2z"/>
		<path class="st10" d="M75.2,24.7c0,0-2.8,0.6-2.4,3.7c0.4,3,3.1,19.1,3.1,19.1s0.4,0.8,0.8-0.4C77,45.8,76.9,23.7,75.2,24.7z"/>
		<g>
			<g>
				<path class="st11" d="M78.1,50.1c-1.7-0.3-3.8,0.4-5.4,0.8c-2.1,0.5-4.2,1.1-6.2,1.9c-1.8,0.6-3.8,1.4-4.7,2.9
					c-0.5,0.9-0.8,1.9-0.9,2.9c-0.1,1.9-0.1,3.7,0.1,5.6c0.2,2.3,0.7,5.3,2.5,7.1c1.6,1.7,3.5,1.3,5.6,0.6c2.2-0.9,5.6-2.8,10-6.8
					c0,0,0,0,0.1,0c0.6-0.7,1.9-1.9,4.8-3.1C84,61.9,85.9,51.5,78.1,50.1z"/>
				<path class="st6" d="M66.2,72.6L66.2,72.6c-1.1,0-2.1-0.4-2.9-1.3c-1.4-1.5-2.2-3.9-2.5-7.2c-0.2-2-0.2-3.8-0.1-5.6
					c0.1-1,0.4-2,0.9-2.9c0.9-1.6,3.1-2.3,4.8-2.9c1.9-0.7,3.9-1.3,6.3-1.9c0.3-0.1,0.6-0.1,0.9-0.2c1.1-0.3,2.4-0.7,3.7-0.7
					c0.3,0,0.7,0,0.9,0.1c7.8,1.5,6,11.9,6,12c0,0.1,0,0.1-0.1,0.1c-2.9,1.2-4.2,2.3-4.7,3.1c0,0-0.1,0.1-0.2,0.1l0,0
					c-4.5,4.1-8,6-10,6.8C68.2,72.3,67.2,72.6,66.2,72.6z M77.2,50.2c-1.1,0-2.4,0.3-3.5,0.7c-0.3,0.1-0.6,0.2-0.9,0.2
					c-2.3,0.6-4.3,1.2-6.2,1.9c-1.7,0.6-3.7,1.3-4.6,2.8c-0.5,0.9-0.8,1.8-0.9,2.8c-0.1,1.8-0.1,3.6,0.1,5.6
					c0.3,3.2,1.1,5.6,2.5,7.1c0.7,0.8,1.5,1.1,2.5,1.1c0.9,0,1.9-0.3,2.8-0.6c2.1-0.8,5.5-2.7,10-6.8c0,0,0.1-0.1,0.1-0.1l0,0
					c0.6-0.7,1.9-1.8,4.7-3.1c0.1-1,1.4-10.2-5.7-11.5C77.8,50.2,77.5,50.2,77.2,50.2z"/>
			</g>
			<path class="st10" d="M78.1,50.1c-1.7-0.3-3.8,0.4-5.4,0.8c-2,0.5-4,1.1-6,1.8c0.9,0.2,1.7,0.5,2.4,1c2.6,1.8,3.4,4.6,3.8,7.2
				c0.5,3.3-0.7,7.4-2,10c1.7-1.1,5.8-3.8,8.1-5.9c0,0,0,0,0.1,0c0.6-0.7,1.9-1.9,4.8-3.1C84,61.9,85.9,51.5,78.1,50.1z"/>
			<path class="st10" d="M78.1,50.1c-0.9-0.2-1.8-0.1-2.8,0.2c0.6,0,1.1,0,1.6,0.1c1.4,0.3,2.4,1.2,3,2.2c1.5,2.3,1.6,5,0.7,7.5
				c-1,2.9-3,5.7-5.6,8.1c1.5-1,2.9-2.2,4-3.2c0,0,0,0,0.1,0c0.6-0.7,1.9-1.9,4.8-3.1C84,61.9,85.9,51.5,78.1,50.1z"/>
			<path class="st10" d="M69.2,57.4c-0.4-1-1.2-1.9-2.5-2.4c-2.2-0.9-4.2,0.4-4.9,2.1c-0.6,1.5-0.5,2.9-0.4,4.5
				c0.2,2.5,0.8,5.1,1.8,7.5c0.3,0.7,1,1.8,1.9,2.1c1.2,0.3,2.2-0.8,2.8-1.4c0.7-0.7,1.1-1.7,1.3-2.6c0.5-2.3,0.6-4.9,0.5-7.2
				C69.7,59.1,69.6,58.2,69.2,57.4z"/>
		</g>
		<g>
			<g>
				<path class="st5" d="M151.9,50.1c1.7-0.3,3.8,0.4,5.4,0.8c2.1,0.5,4.2,1.1,6.2,1.9c1.8,0.6,3.8,1.4,4.7,2.9
					c0.5,0.9,0.8,1.9,0.9,2.9c0.1,1.9,0.1,3.7-0.1,5.6c-0.2,2.3-0.7,5.3-2.5,7.1c-1.6,1.7-3.5,1.3-5.6,0.6c-2.2-0.9-5.6-2.8-10-6.8
					c0,0-0.1,0-0.1,0c-0.6-0.7-1.9-1.9-4.8-3.1C146,61.9,144.1,51.5,151.9,50.1z"/>
				<path class="st6" d="M163.8,72.6c-1,0-2-0.3-2.9-0.6c-2.1-0.8-5.5-2.7-10-6.8l0,0c-0.1,0-0.1,0-0.2-0.1
					c-0.6-0.7-1.8-1.8-4.7-3.1c-0.1,0-0.1-0.1-0.1-0.1c0-0.1-1.8-10.5,6-12c0.3-0.1,0.6-0.1,0.9-0.1c1.2,0,2.5,0.4,3.7,0.7
					c0.3,0.1,0.6,0.2,0.9,0.2c2.3,0.6,4.4,1.2,6.3,1.9c1.7,0.6,3.8,1.3,4.8,2.9c0.5,0.9,0.8,1.9,0.9,2.9c0.1,1.8,0.1,3.7-0.1,5.6
					c-0.3,3.3-1.1,5.7-2.5,7.2C165.9,72.2,164.9,72.6,163.8,72.6z M150.9,64.8L150.9,64.8c0.1,0,0.1,0,0.2,0.1
					c4.5,4.1,7.9,5.9,10,6.8c0.9,0.3,1.9,0.6,2.8,0.6c1,0,1.8-0.4,2.5-1.1c1.4-1.4,2.2-3.8,2.5-7.1c0.2-1.9,0.2-3.8,0.1-5.6
					c-0.1-1-0.4-1.9-0.9-2.8c-0.9-1.5-2.9-2.2-4.6-2.8c-1.9-0.7-3.9-1.3-6.2-1.9c-0.3-0.1-0.6-0.2-0.9-0.2c-1.1-0.3-2.4-0.7-3.5-0.7
					c-0.3,0-0.6,0-0.9,0.1c-7.1,1.3-5.9,10.6-5.7,11.5C149,63,150.3,64.1,150.9,64.8z"/>
			</g>
			<path class="st10" d="M151.9,50.1c1.7-0.3,3.8,0.4,5.4,0.8c2,0.5,4,1.1,6,1.8c-0.9,0.2-1.7,0.5-2.4,1c-2.6,1.8-3.4,4.6-3.8,7.2
				c-0.5,3.3,0.7,7.4,2,10c-1.7-1.1-5.8-3.8-8.1-5.9c0,0-0.1,0-0.1,0c-0.6-0.7-1.9-1.9-4.8-3.1C146,61.9,144.1,51.5,151.9,50.1z"/>
			<path class="st10" d="M151.9,50.1c0.9-0.2,1.8-0.1,2.8,0.2c-0.6,0-1.1,0-1.6,0.1c-1.4,0.3-2.4,1.2-3,2.2c-1.5,2.3-1.6,5-0.7,7.5
				c1,2.9,3,5.7,5.6,8.1c-1.4-1-2.9-2.2-4-3.2c0,0-0.1,0-0.1,0c-0.6-0.7-1.9-1.9-4.8-3.1C146,61.9,144.1,51.5,151.9,50.1z"/>
			<path class="st10" d="M160.2,60c-0.1,2.4,0,4.9,0.5,7.2c0.2,0.9,0.6,1.8,1.3,2.6c0.6,0.7,1.6,1.7,2.8,1.4c1-0.2,1.6-1.4,1.9-2.1
				c1-2.4,1.5-5,1.8-7.5c0.2-1.5,0.2-3-0.4-4.5c-0.7-1.7-2.7-3-4.9-2.1c-1.3,0.5-2,1.4-2.5,2.4C160.4,58.2,160.3,59.1,160.2,60z"/>
		</g>
		<path class="st10" d="M150.9,65.1c0,0-0.1,0-0.1,0c0.4,0.5,0.5,0.9,0.5,0.9s-0.3,3.5-0.6,7.9H79.4c-0.3-4.5-0.6-7.9-0.6-7.9
			s0-0.3,0.5-0.9c-0.1,0-0.1,0-0.1,0c-8.6,7.8-13.3,7.6-13.3,7.6l0.8,4.3c0,0,0.6,3,1.9,3.4c1.3,0.4,11.4,0.3,11.4,0.3h70.2
			c0,0,0.3,0,0.3,0s10.1,0.1,11.4-0.3c0.5-0.2,1-0.8,1.3-1.5l1.1-6.1C164.2,72.7,159.5,72.9,150.9,65.1z M143.1,79.5H74.5
			c0,0-4.2,0.1-4.7-2.7c-0.5-2.4,1.4-4,3.4-5.4c0.1-0.1,0.2-0.1,0.3-0.2c1-0.8,2.9-2.4,3.6-0.8c0.9,1.8,0,4.8,0,4.8h75.2
			c0,0-0.8-5.2,0.9-5.5c1.8-0.2,5.6,2.6,5.7,5.5C159.1,78.1,152.1,79.2,143.1,79.5z"/>
	</g>
	<path class="st10" d="M79.6,76.3c0,0-0.9-0.3-1.5,0.7c0,0-0.2,0.4,1.5,0.5h68.8c0,0,2.5,0.2,3-0.7c0.5-0.8-3.8-0.5-6.8-0.5
		C141.7,76.3,79.6,76.3,79.6,76.3z"/>
</g>
</svg>
