<?xml version="1.0" encoding="utf-8"?>
<!-- Generator: Adobe Illustrator 22.0.0, SVG Export Plug-In . SVG Version: 6.00 Build 0)  -->
<svg version="1.1" id="Layer_1" xmlns="http://www.w3.org/2000/svg" xmlns:xlink="http://www.w3.org/1999/xlink" x="0px" y="0px"
	 viewBox="0 0 230 117" style="enable-background:new 0 0 230 117;" xml:space="preserve">
<style type="text/css">
	.st0{fill:#EF5350;}
	.st1{fill:none;stroke:#000000;stroke-width:0.4903;stroke-miterlimit:10;stroke-dasharray:1.1767,1.1767;}
	.st2{fill:none;stroke:#000000;stroke-width:0.4903;stroke-miterlimit:10;}
	.st3{fill:#FFFFFF;}
	.st4{fill:#FFFFFF;stroke:#26BDCF;stroke-width:0.4903;stroke-miterlimit:10;}
	.st5{fill:none;stroke:#FFFFFF;stroke-width:0.4903;stroke-miterlimit:10;stroke-dasharray:1.1767,1.1767;}
	.st6{fill:none;stroke:#000000;stroke-width:0.3922;stroke-miterlimit:10;}
	.st7{fill:none;stroke:#000000;stroke-width:0.4511;stroke-miterlimit:10;}
	.st8{fill:none;stroke:#000000;stroke-width:0.4903;stroke-linejoin:round;stroke-miterlimit:10;}
	.st9{fill:none;stroke:#000000;stroke-width:0.5883;stroke-miterlimit:10;}
	.st10{fill:#26BDCF;stroke:#000000;stroke-width:0.4903;stroke-miterlimit:10;}
	.st11{fill:#FFFFFF;stroke:#000000;stroke-width:0.4903;stroke-miterlimit:10;}
	.st12{fill:none;stroke:#000000;stroke-width:0.5295;stroke-miterlimit:10;}
	.st13{fill:#26BDCF;}
	.st14{fill:#FFFFFF;stroke:#000000;stroke-width:0.4903;}
	.st15{fill:#26BDCF;stroke:#000000;stroke-width:0.4903;}
	.st16{fill:none;stroke:#000000;stroke-width:0.4903;}
	.st17{fill:#23BED0;}
	.st18{clip-path:url(#SVGID_4_);}
	.st19{fill:#FFFFFF;stroke:#000000;stroke-width:0.5883;stroke-miterlimit:10;}
	.st20{clip-path:url(#SVGID_6_);}
</style>
<g id="Background">
	<rect class="st0" width="230" height="117"/>
</g>
<g id="Layer_2_1_">
	<g>
		<path class="st1" d="M157.3,48.8H67.8c-4.9,0-8.8,4.3-8.8,9.6v0.4c0,5.3,3.9,9.6,8.8,9.6H122"/>
		<g>
			<g>
				<g>
					<polygon points="144.5,26.1 143,28 143,27.4 144.5,25.4 146.1,27.4 146.1,28 					"/>
				</g>
				<path class="st2" d="M144.5,26.1c0,10,0,20.2,0,30.2"/>
			</g>
			<g>
				<g>
					<polygon points="140.2,31.1 138.6,33 138.6,32.4 140.2,30.3 141.8,32.4 141.8,33 					"/>
				</g>
				<path class="st2" d="M140.2,31.1c0.1,8.4,0.1,16.8,0,25.2"/>
			</g>
		</g>
		<g>
			<g>
				<polygon points="63.4,91.7 65.4,93.2 64.6,93.2 62.6,91.7 64.6,90.1 65.4,90.1 				"/>
			</g>
			<path class="st1" d="M64.6,91.7h89.5c4.9,0,8.8-4.3,8.8-9.6v-0.4c0-5.3-3.9-9.6-8.8-9.6H99.9"/>
		</g>
		<g>
			<path class="st3" d="M62.4,65.7c0,2.8-0.3,3.8-0.4,4.2c-0.3,0.7-0.8,1.3-2.6,1.3c-1.2,0-1.8-0.4-2.4-1.2
				c-0.3-0.4-0.7-1.3-0.7-3.5v-1.6L46.5,66v1.3c0,8.4,4.5,12.9,12.7,12.9c6.6,0,10.9-2.6,12.7-7.7c0.7-1.7,0.9-4.1,0.9-7.2V41.6
				H62.6v24.2H62.4z"/>
			<path class="st3" d="M95.2,40.9c-5.6,0-10.2,1.7-13.7,5c-3.7,3.7-5.5,8.7-5.5,14.8c0,5.8,1.7,10.5,5,14c3.4,3.5,8.3,5.4,14.2,5.4
				c6,0,10.8-1.8,14.2-5.5c3.3-3.5,5-8.3,5-14s-1.7-10.6-5-14C106,42.7,101.2,40.9,95.2,40.9z M103.9,60.5c0,3.2-0.7,5.8-2,7.6
				c-1.4,2.1-3.7,3.2-6.6,3.2c-2.9,0-5.1-1.1-6.7-3.2c-1.3-2-2.1-4.5-2.1-7.6s0.7-5.8,2-7.6c1.4-2.1,3.7-3,6.7-3c3,0,5.3,0.9,6.7,3
				C103.2,54.7,103.9,57.2,103.9,60.5z"/>
			<path class="st3" d="M145.5,59.2c0.7-0.5,1.3-1.2,1.7-2c1.1-1.6,1.6-3.4,1.6-5.4c0-3.5-1.6-6.3-4.6-8.3c-1.4-0.9-3.3-1.6-5.6-1.8
				c-1.1-0.1-2.9-0.1-5.5-0.1h-16v37.9h13.9c4.5,0,7.5-0.1,9.1-0.3c2.2-0.3,4.1-0.9,5.6-2c3.3-2.2,5-5.4,5-9.5
				C150.7,63.9,148.9,61,145.5,59.2z M132.9,70.7h-5.4v-6.6h4.5c4.2,0,5.6,0.3,6,0.4c1.4,0.5,2.1,1.3,2.1,2.9c0,1.8-0.8,2.6-2.5,3
				C137.2,70.7,136,70.7,132.9,70.7z M136.1,55.3c-0.4,0-1.7,0.1-5.3,0.1h-3.4v-5.3h2.8c4.3,0,5.6,0.1,6.2,0.1
				c2,0.3,2.5,1.2,2.5,2.5C138.9,54,138.5,55.1,136.1,55.3z"/>
			<path class="st3" d="M178.4,57.4c-1.3-0.7-3.9-1.4-8.1-2.5c-4.6-1.2-5.9-2-6.3-2.2l0,0c-0.5-0.4-0.5-0.8-0.5-1.1
				c0-0.4,0.1-0.8,0.5-1.1c0.9-0.7,2.4-1.1,4.2-1.1c1.7,0,3,0.3,3.7,0.8c0.8,0.5,1.3,1.6,1.6,3l0.3,1.2l10.1-0.4v-1.4
				c-0.1-4.2-1.8-7.4-5-9.5c-2.6-1.7-6.2-2.6-10.4-2.6c-3,0-5.5,0.4-7.7,1.3c-2.1,0.9-3.8,2.1-5,3.8c-1.3,1.8-2,3.8-2,6
				c0,3.2,1.3,5.9,3.8,8.1c1.8,1.6,4.7,2.8,8.9,3.8c3,0.8,5,1.2,5.8,1.4c2.4,0.8,2.4,1.8,2.4,2.2c0,1.2-0.5,1.8-1.7,2.5
				c-1.1,0.5-2.5,0.9-4.1,0.9c-3.8,0-5.9-1.7-6.6-5.5L162,64l-10,0.9l0.1,1.4c0.5,4.3,2.2,7.7,5,10c2.8,2.2,6.6,3.3,11.4,3.3
				c3.3,0,6.2-0.5,8.5-1.4c2.4-0.9,4.2-2.4,5.5-4.3c1.3-2,2.1-4.2,2.1-6.6C184.7,63.1,182.6,59.6,178.4,57.4z"/>
		</g>
		<path class="st4" d="M190.6,38.5c-0.1-0.3-0.1-0.5-0.1-0.8c0-1.2,1.1-2.2,2.2-2.2c1.1,0,1.8,0.7,2.1,1.6c0.3-0.4,0.7-0.7,1.2-0.7
			c0.8,0,1.4,0.7,1.4,1.4c0,0.3,0,0.4-0.1,0.7h0.8c0.5,0,1.1,0.4,1.1,1.1c0,0.5-0.4,1.1-1.1,1.1h-7.4c-0.5,0-1.1-0.4-1.1-1.1
			C189.8,39.1,190.1,38.7,190.6,38.5z"/>
		<path class="st4" d="M23.7,76.9c-0.1-0.3-0.1-0.5-0.1-0.8c0-1.2,1.1-2.2,2.2-2.2c1.1,0,1.8,0.7,2.1,1.6c0.3-0.4,0.7-0.7,1.2-0.7
			c0.8,0,1.4,0.7,1.4,1.4c0,0.3,0,0.4-0.1,0.7h0.8c0.5,0,1.1,0.4,1.1,1.1c0,0.5-0.4,1.1-1.1,1.1h-7.4c-0.5,0-1.1-0.4-1.1-1.1
			C22.9,77.4,23.1,77,23.7,76.9z"/>
		<g>
			<rect x="148.7" y="100.4" class="st3" width="2.6" height="2.6"/>
			<g>
				<path d="M149.5,103c0,0-0.1,0-0.1-0.1l-0.4-0.5c-0.1-0.1-0.1-0.3,0-0.4s0.3-0.1,0.4,0l0.3,0.3l0.7-1.1c0.1-0.1,0.3-0.1,0.4,0
					s0.1,0.3,0,0.4l-0.9,1.3C149.7,103,149.5,103,149.5,103L149.5,103L149.5,103z"/>
			</g>
			<g>
				<rect x="152.2" y="100.9" width="10.9" height="0.4"/>
				<rect x="152.2" y="102.2" width="7.1" height="0.4"/>
			</g>
		</g>
		<g>
			<rect x="104.6" y="85" class="st3" width="2.6" height="2.6"/>
			<g>
				<path d="M105.3,87.6c0,0-0.1,0-0.1-0.1l-0.4-0.5c-0.1-0.1-0.1-0.3,0-0.4c0.1-0.1,0.3-0.1,0.4,0l0.3,0.3l0.7-1.1
					c0.1-0.1,0.3-0.1,0.4,0c0.1,0.1,0.1,0.3,0,0.4l-0.9,1.3C105.4,87.6,105.3,87.6,105.3,87.6L105.3,87.6L105.3,87.6z"/>
			</g>
			<g>
				<rect x="107.9" y="85.5" width="10.9" height="0.4"/>
				<rect x="107.9" y="87" width="7.1" height="0.4"/>
			</g>
		</g>
		<g>
			<rect x="26.7" y="51" class="st3" width="2.6" height="2.6"/>
			<rect x="26.7" y="55" class="st3" width="2.6" height="2.6"/>
			<g>
				<rect x="26.7" y="47.1" class="st3" width="2.6" height="2.6"/>
				<g>
					<path d="M27.3,49.7c0,0-0.1,0-0.1-0.1L26.8,49c-0.1-0.1-0.1-0.3,0-0.4c0.1-0.1,0.3-0.1,0.4,0l0.3,0.3l0.7-1.1
						c0.1-0.1,0.3-0.1,0.4,0c0.1,0.1,0.1,0.3,0,0.4l-0.9,1.3C27.6,49.7,27.5,49.7,27.3,49.7C27.5,49.7,27.5,49.7,27.3,49.7
						L27.3,49.7z"/>
				</g>
				<g>
					<rect x="30.1" y="47.6" width="10.9" height="0.4"/>
					<rect x="30.1" y="48.9" width="7.1" height="0.4"/>
				</g>
			</g>
			<g>
				<rect x="30.1" y="51.5" width="10.9" height="0.4"/>
				<rect x="30.1" y="52.9" width="7.1" height="0.4"/>
			</g>
			<g>
				<rect x="30.1" y="55.3" width="10.9" height="0.4"/>
				<rect x="30.1" y="56.7" width="7.1" height="0.4"/>
			</g>
		</g>
		<g>
			<rect x="187.5" y="74.5" class="st3" width="2.6" height="2.6"/>
			<rect x="187.5" y="78.6" class="st3" width="2.6" height="2.6"/>
			<g>
				<rect x="187.5" y="70.6" class="st3" width="2.6" height="2.6"/>
				<g>
					<path d="M188.1,73.2c0,0-0.1,0-0.1-0.1l-0.4-0.5c-0.1-0.1-0.1-0.3,0-0.4c0.1-0.1,0.3-0.1,0.4,0l0.3,0.3l0.7-1.1
						c0.1-0.1,0.3-0.1,0.4,0c0.1,0.1,0.1,0.3,0,0.4l-0.9,1.3C188.3,73.2,188.3,73.2,188.1,73.2L188.1,73.2L188.1,73.2z"/>
				</g>
				<g>
					<rect x="190.8" y="71.1" width="10.9" height="0.4"/>
					<rect x="190.8" y="72.5" width="7.1" height="0.4"/>
				</g>
			</g>
			<g>
				<rect x="190.8" y="75" width="10.9" height="0.4"/>
				<rect x="190.8" y="76.4" width="7.1" height="0.4"/>
			</g>
			<g>
				<rect x="190.8" y="78.8" width="10.9" height="0.4"/>
				<rect x="190.8" y="80.3" width="7.1" height="0.4"/>
			</g>
		</g>
		<path class="st5" d="M44.5,52.1c10.8,0,21.8,0.3,32.4-0.3c4.2-0.3,7.1-3.9,7.6-8.1c0.3-1.8-0.3-3.4-0.5-5.3
			c-0.8-2.4-2.4-3.9-4.5-5.3c-2.6-1.3-5.8-0.8-8.7-0.8"/>
		<path class="st5" d="M159.1,36.7c-10.8,0-21.8-0.3-32.4,0.3c-4.2,0.3-7.1,3.9-7.6,8.1c-0.3,1.8,0.3,3.4,0.5,5.3
			c0.8,2.4,2.4,3.9,4.5,5.3c2.6,1.3,5.8,0.8,8.7,0.8"/>
		<g>
			<polygon class="st3" points="70.9,32.4 72.9,30.8 72.1,30.8 70.1,32.4 72.1,34 72.9,34 			"/>
		</g>
		<path class="st4" d="M82.7,21.1c-0.1-0.3-0.1-0.5-0.1-0.8c0-1.2,1.1-2.2,2.2-2.2c1.1,0,1.8,0.7,2.1,1.6c0.3-0.4,0.7-0.7,1.2-0.7
			c0.8,0,1.4,0.7,1.4,1.4c0,0.3,0,0.4-0.1,0.7h0.8c0.5,0,1.1,0.4,1.1,1.1c0,0.5-0.4,1.1-1.1,1.1h-7.4c-0.5,0-1.1-0.4-1.1-1.1
			C81.9,21.6,82.2,21.2,82.7,21.1z"/>
		<g>
			<g>
				<path class="st3" d="M49.5,34.3c0,2.8-2.2,5.1-5,5.1s-5-2.2-5-5.1c0-2.8,2.2-5.1,5-5.1C47.3,29.2,49.5,31.5,49.5,34.3z"/>
				<line class="st6" x1="39.5" y1="34.3" x2="49.4" y2="34.3"/>
				<path class="st6" d="M47.7,30.4c-0.8,0.9-2,1.6-3.3,1.6s-2.5-0.7-3.3-1.6"/>
				<path class="st6" d="M41.2,38.2c0.8-1.1,2-1.7,3.3-1.7s2.5,0.7,3.3,1.7"/>
				<path class="st6" d="M47,34.3c0-2.2-1.1-4.2-2.5-5c-1.4,0.8-2.5,2.8-2.5,5c0,2.2,1.1,4.2,2.5,5C46,38.5,47,36.6,47,34.3z"/>
			</g>
			<line class="st6" x1="44.5" y1="29.2" x2="44.5" y2="39.3"/>
		</g>
		<g>
			<g>
				<line class="st7" x1="55.9" y1="100.4" x2="67" y2="100.4"/>
				<line class="st7" x1="50.4" y1="100.4" x2="54.1" y2="100.4"/>
			</g>
			<g>
				<line class="st7" x1="55.9" y1="103.7" x2="67" y2="103.7"/>
				<line class="st7" x1="50.4" y1="103.7" x2="54.1" y2="103.7"/>
			</g>
			<g>
				<line class="st7" x1="55.9" y1="102.1" x2="67" y2="102.1"/>
				<line class="st7" x1="50.4" y1="102.1" x2="54.1" y2="102.1"/>
			</g>
		</g>
		<g>
			<g>
				<line class="st7" x1="177.4" y1="23.6" x2="188.4" y2="23.6"/>
				<line class="st7" x1="171.9" y1="23.6" x2="175.5" y2="23.6"/>
			</g>
			<g>
				<line class="st7" x1="177.4" y1="26.9" x2="188.4" y2="26.9"/>
				<line class="st7" x1="171.9" y1="26.9" x2="175.5" y2="26.9"/>
			</g>
			<g>
				<line class="st7" x1="177.4" y1="25.3" x2="188.4" y2="25.3"/>
				<line class="st7" x1="171.9" y1="25.3" x2="175.5" y2="25.3"/>
			</g>
		</g>
		<g>
			<g>
				<line class="st6" x1="58.4" y1="21.6" x2="64.2" y2="21.6"/>
				<line class="st6" x1="55.6" y1="21.6" x2="57.4" y2="21.6"/>
			</g>
			<g>
				<line class="st6" x1="58.4" y1="24.4" x2="64.2" y2="24.4"/>
				<line class="st6" x1="55.6" y1="24.4" x2="57.4" y2="24.4"/>
			</g>
			<g>
				<line class="st6" x1="58.4" y1="23.1" x2="64.2" y2="23.1"/>
				<line class="st6" x1="55.6" y1="23.1" x2="57.4" y2="23.1"/>
			</g>
		</g>
		<g>
			<rect x="39.5" y="88.7" class="st6" width="3.8" height="3.8"/>
			<line class="st6" x1="39.5" y1="88.7" x2="43.2" y2="92.5"/>
		</g>
		<g>
			<line class="st6" x1="93.8" y1="98.1" x2="99.5" y2="98.1"/>
			<line class="st6" x1="93.8" y1="99.7" x2="99.5" y2="99.7"/>
		</g>
		<g>
			<g>
				<rect x="171.2" y="87.2" class="st6" width="3.8" height="3.8"/>
				<line class="st6" x1="171.2" y1="87.2" x2="175" y2="91.1"/>
			</g>
			<g>
				<line class="st6" x1="176.2" y1="88.3" x2="182" y2="88.3"/>
				<line class="st6" x1="176.2" y1="90" x2="182" y2="90"/>
			</g>
		</g>
		<g>
			<line class="st6" x1="81.2" y1="14" x2="82.9" y2="15.8"/>
			<line class="st6" x1="82.9" y1="14" x2="81.2" y2="15.8"/>
		</g>
		<g>
			<line class="st6" x1="165.8" y1="20.6" x2="167.5" y2="22.3"/>
			<line class="st6" x1="167.5" y1="20.6" x2="165.8" y2="22.3"/>
		</g>
		<g>
			<line class="st6" x1="196.3" y1="98.1" x2="198" y2="100"/>
			<line class="st6" x1="198" y1="98.1" x2="196.3" y2="100"/>
		</g>
		<g>
			<line class="st6" x1="28.4" y1="81.5" x2="30.1" y2="83.3"/>
			<line class="st6" x1="30.1" y1="81.5" x2="28.4" y2="83.3"/>
		</g>
		<g>
			<g>
				<rect x="135.2" y="13.3" class="st6" width="2.9" height="2.9"/>
				<line class="st6" x1="135.2" y1="13.3" x2="138.1" y2="16.2"/>
			</g>
			<g>
				<line class="st6" x1="139" y1="14.1" x2="143.9" y2="14.1"/>
				<line class="st6" x1="139" y1="15.4" x2="143.9" y2="15.4"/>
			</g>
		</g>
		<g>
			<path class="st6" d="M56.7,38.4c0,0.9-0.8,1.7-1.7,1.7c-0.9,0-1.7-0.7-1.7-1.7c0-0.9,0.8-1.7,1.7-1.7
				C55.9,36.7,56.7,37.5,56.7,38.4z"/>
			<polyline class="st6" points="54,38.2 54.8,38.9 57.1,37 			"/>
		</g>
		<g>
			<path class="st6" d="M139.3,87.8c0,0.9-0.8,1.7-1.7,1.7c-0.9,0-1.7-0.8-1.7-1.7s0.8-1.7,1.7-1.7
				C138.6,86.1,139.3,86.9,139.3,87.8z"/>
			<polyline class="st6" points="136.5,87.4 137.5,88.3 139.8,86.3 			"/>
		</g>
		<g>
			<path class="st6" d="M206.8,46.7c0,0.9-0.8,1.7-1.7,1.7s-1.7-0.8-1.7-1.7s0.8-1.7,1.7-1.7C206,45,206.8,45.8,206.8,46.7z"/>
			<polyline class="st6" points="204,46.3 204.8,47.2 207.2,45.1 			"/>
		</g>
		<g>
			<path class="st6" d="M37.6,69.8c0,0.9-0.8,1.7-1.7,1.7s-1.7-0.8-1.7-1.7s0.8-1.7,1.7-1.7S37.6,68.9,37.6,69.8z"/>
			<polyline class="st6" points="34.7,69.4 35.6,70.2 38,68.2 			"/>
		</g>
		<g>
			<path class="st6" d="M182.7,35c0,0.9-0.8,1.7-1.7,1.7c-0.9,0-1.7-0.8-1.7-1.7s0.8-1.7,1.7-1.7C182,33.4,182.7,34.1,182.7,35z"/>
			<polyline class="st6" points="180,34.7 180.8,35.5 183.1,33.6 			"/>
		</g>
		<g>
			<g>
				<path class="st2" d="M166.6,67.3c-2-1.7-5-1.6-6.8,0.1c-1.8,1.8-1.7,4.6,0.1,6.3"/>
				<path class="st2" d="M167.7,68.7c-0.1-0.3-0.3-0.5-0.5-0.7"/>
			</g>
			<g>
				<g>
					<path class="st2" d="M154.3,70.8c0,5,4.1,9.1,9.1,9.1c5,0,9.1-4.1,9.1-9.1s-4.1-9.1-9.1-9.1C158.3,61.8,154.3,65.9,154.3,70.8z
						"/>
					<path class="st2" d="M157,70.8c0,3.4,2.8,6.2,6.2,6.2c3.4,0,6.2-2.8,6.2-6.2c0-3.4-2.8-6.2-6.2-6.2
						C159.8,64.5,157,67.4,157,70.8z"/>
					<path class="st2" d="M160.2,70.8c0,1.7,1.4,3.2,3.2,3.2c1.7,0,3.2-1.4,3.2-3.2c0-1.7-1.4-3.2-3.2-3.2
						C161.5,67.7,160.2,69.1,160.2,70.8z"/>
					<g>
						<g>
							<polygon class="st8" points="157.3,64.8 157.7,62.7 154.5,59.7 154.1,61.7 							"/>
							<polygon class="st8" points="157.2,64.8 155.1,65.2 152,62 154,61.7 							"/>
						</g>
					</g>
				</g>
				<line class="st8" x1="163.5" y1="71" x2="152.9" y2="60.5"/>
			</g>
		</g>
		<line class="st9" x1="62.4" y1="41.6" x2="72.6" y2="41.6"/>
		<g>
			<g>
				<path class="st2" d="M87.7,67.8c-4.2-4.2-4.2-11,0-15.2c4.2-4.2,11-4.2,15.2,0s4.2,11,0,15.2S91.9,72,87.7,67.8z"/>
				<g>
					<path class="st2" d="M103.6,53.4l1.2-1.4h0.4c0.3,0,0.5-0.1,0.8-0.4c0.5-0.5,0.5-1.4,0-2c-0.5-0.5-1.4-0.5-2,0
						c-0.3,0.3-0.4,0.5-0.4,0.8v0.4l-1.4,1.2c0.3,0.3,0.5,0.4,0.7,0.7C103.2,52.9,103.5,53.1,103.6,53.4z"/>
					<path class="st2" d="M96.1,49.6l-0.1-2l0.3-0.3c0.1-0.3,0.3-0.5,0.3-0.8c0-0.8-0.7-1.4-1.4-1.4s-1.4,0.7-1.4,1.4
						c0,0.3,0.1,0.7,0.3,0.8l0.3,0.3l-0.1,2C94.7,49.6,95.5,49.6,96.1,49.6z"/>
					<path class="st2" d="M88.2,52.2l-1.7-1.4v-0.4c0-0.3-0.1-0.5-0.4-0.8c-0.5-0.5-1.4-0.5-2,0c-0.5,0.5-0.5,1.4,0,2
						c0.3,0.3,0.5,0.4,0.8,0.4h0.4l1.6,1.8c0.3-0.4,0.7-0.8,0.9-1.1C87.8,52.6,88.1,52.3,88.2,52.2z"/>
					<path class="st2" d="M84.7,59.6l-2.5,0.3l-0.3-0.3c-0.3-0.1-0.5-0.3-0.8-0.3c-0.8,0-1.4,0.7-1.4,1.4s0.7,1.4,1.4,1.4
						c0.3,0,0.7-0.1,0.8-0.3l0.3-0.3l2.6,0.3C84.6,60.9,84.6,60.2,84.7,59.6z"/>
					<path class="st2" d="M87.1,67l-1.7,2.1H85c-0.3,0-0.5,0.1-0.8,0.4c-0.5,0.5-0.5,1.4,0,2c0.5,0.5,1.4,0.5,2,0
						c0.3-0.3,0.4-0.5,0.4-0.8v-0.4l2.1-1.7c-0.3-0.3-0.5-0.4-0.8-0.7C87.5,67.6,87.2,67.3,87.1,67z"/>
					<path class="st2" d="M101.9,68.9l1.7,1.4v0.4c0,0.3,0.1,0.5,0.4,0.8c0.5,0.5,1.4,0.5,2,0c0.5-0.5,0.5-1.4,0-2
						c-0.3-0.3-0.5-0.4-0.8-0.4h-0.4l-1.4-1.7c-0.1,0.1-0.3,0.3-0.4,0.4C102.5,68.2,102.3,68.6,101.9,68.9z"/>
					<path class="st2" d="M109.1,59.2c-0.3,0-0.7,0.1-0.8,0.3l-0.3,0.3l-2-0.1c0,0.7,0,1.3,0,2l2-0.1l0.3,0.3
						c0.3,0.1,0.5,0.3,0.8,0.3c0.8,0,1.4-0.7,1.4-1.4C110.6,59.8,109.9,59.2,109.1,59.2z"/>
				</g>
				<g>
					<line class="st2" x1="100.1" y1="53.6" x2="96.8" y2="58.4"/>
					<line class="st2" x1="94.8" y1="52.2" x2="95.2" y2="58"/>
					<line class="st2" x1="90.2" y1="55" x2="93.9" y2="58.6"/>
					<line class="st2" x1="87.5" y1="59.6" x2="93.2" y2="60.1"/>
					<line class="st2" x1="88.9" y1="64.8" x2="93.6" y2="61.5"/>
					<line class="st2" x1="93.4" y1="68.1" x2="94.9" y2="62.4"/>
					<line class="st2" x1="98.6" y1="67" x2="96.5" y2="62.3"/>
					<line class="st2" x1="102.8" y1="63.6" x2="97.6" y2="61.1"/>
					<line class="st2" x1="103.2" y1="58.1" x2="97.7" y2="59.6"/>
				</g>
				<g>
					<path class="st2" d="M91.9,53.4c3.7-2.1,8.4-0.9,10.5,2.8c2.1,3.7,0.9,8.4-2.8,10.5"/>
					<path class="st10" d="M89.8,55.2c0.3-0.4,0.7-0.7,1.1-1.1"/>
				</g>
			</g>
			<g>
				<path class="st11" d="M97.4,73.9V60.3c0-1.3-1.1-2.5-2.5-2.5c-1.3,0-2.5,1.1-2.5,2.5v13.5"/>
			</g>
			<line class="st2" x1="90.3" y1="74.9" x2="95.9" y2="74.9"/>
			<line class="st2" x1="96.5" y1="74.9" x2="98.2" y2="74.9"/>
		</g>
		<g>
			<g>
				<path class="st12" d="M124.5,54v-9.7c0.1,0,0.1,0,0.3,0c3.5,0,6.6-2.5,7.2-5.8h0.1l0.1-0.1c1.8-1.3,2.9-3.4,2.9-5.6
					c0-3.8-3.2-7-7.1-7c-0.1,0-0.1,0-0.3,0c-0.1-3.8-3.3-6.8-7-6.8c-0.9,0-1.8,0.1-2.6,0.5c-1.7-2.4-4.3-3.7-7.2-3.7
					c-3.3,0-6.3,1.7-7.9,4.6c-0.9-0.7-2-0.9-3-0.9c-2.9,0-5.4,2.4-5.4,5.4c0,0.1,0,0.3,0,0.5c-3.8,0.1-6.7,3.3-6.8,7
					c0,4.5,2.4,6.4,8.5,6.3c7.6,0,15.1,0,15.1,0c1.3,1.7,3.3,2.8,5.6,2.8c0.1,0,0.1,0,0.3,0v38.1"/>
				<g>
					<path class="st12" d="M106.7,23.7c0,0-2.1,0.4-3,1.4c-0.9,1.1-0.8,2.9-0.8,2.9"/>
					<path class="st12" d="M104.3,24.6c0,0-0.9-1.6-1.1-2.9c-0.3-1.3,0.8-2.5,0.8-2.5"/>
				</g>
				<g>
					<path class="st12" d="M99.3,25.2c0,0-1.6,0.4-2.2,1.2c-0.7,0.9-0.5,2.2-0.5,2.2"/>
					<path class="st12" d="M96.4,27.5c0,0-1.7-1.6-1.6-2.9c0-1.3,0.5-2.4,0.5-2.4"/>
				</g>
				<path class="st12" d="M105.4,32.8c0,0-0.9-2.4-3.9-1.2c-2,0.8-1.7,2.9-1.7,2.9"/>
				<path class="st12" d="M114.1,32.8c0,0-3,0-3,3.9c0,2.5,2.2,3.5,2.2,3.5"/>
				<path class="st12" d="M132.6,27.4c0,0-2.8-2.9-7.1-0.8c-3.3,1.6-2.2,5.4-2.2,5.4"/>
				<g>
					<path class="st12" d="M120.1,19c0,0-0.7,0-2.8,1.1c-3,1.6-4.1,5.6-4.1,5.6"/>
					<path class="st12" d="M110.6,26.6c0,0,1.7-1.3,3-1.2c1.3,0.1,2.6,1.6,2.6,1.6"/>
				</g>
			</g>
			<g>
				<path class="st12" d="M117.6,21.9c2.6-2.5,7-1.3,8,2.1"/>
				<path class="st12" d="M116.6,23.3c0.1-0.3,0.3-0.5,0.5-0.8"/>
			</g>
			<g>
				<path class="st12" d="M90.9,35.5c-2.5-2.6-1.3-7,2.1-8"/>
				<path class="st12" d="M92.3,36.6c-0.3-0.1-0.5-0.3-0.8-0.5"/>
			</g>
		</g>
		<line class="st12" x1="124.3" y1="56.1" x2="124.3" y2="58.5"/>
		<path class="st13" d="M62.6,68.9c-0.5,1.8-2.4,2.8-4.2,2.2c-1.8-0.5-2.8-2.5-2.4-4.9c0.4-1.8,2.4-1.3,4.2-1.6
			C62.5,64.4,63.2,67.2,62.6,68.9z"/>
		<g>
			<g>
				<line class="st2" x1="49.1" y1="80.9" x2="42.2" y2="80.9"/>
				<line class="st2" x1="53.1" y1="80.9" x2="51.5" y2="80.9"/>
			</g>
			<g>
				<line class="st2" x1="65.7" y1="80.9" x2="67.2" y2="80.9"/>
			</g>
			<g>
				<line class="st2" x1="58.6" y1="81.7" x2="60.1" y2="81.7"/>
			</g>
			<g>
				
					<rect x="52.1" y="59" transform="matrix(0.9338 -0.3577 0.3577 0.9338 -18.4158 24.4913)" class="st11" width="9.7" height="6"/>
				
					<rect x="49.7" y="62.5" transform="matrix(0.9338 -0.3578 0.3578 0.9338 -19.6295 22.5447)" class="st11" width="2.9" height="3.5"/>
				
					<rect x="47.9" y="62.8" transform="matrix(0.9338 -0.3577 0.3577 0.9338 -20.0442 21.7725)" class="st11" width="1.8" height="4.5"/>
				
					<rect x="61.1" y="55.1" transform="matrix(0.9338 -0.3578 0.3578 0.9338 -16.8994 27.0374)" class="st11" width="7.1" height="8.3"/>
				
					<rect x="67.7" y="52.4" transform="matrix(0.9338 -0.3577 0.3577 0.9338 -15.9775 28.4959)" class="st11" width="2.8" height="10"/>
			</g>
			<g>
				<g>
					<g>
						<path class="st14" d="M62.5,66.8c-0.5,1.8-2.4,2.8-4.2,2.2c-1.8-0.5-2.8-2.4-2.2-4.2c0.5-1.8,2.4-2.8,4.2-2.2
							C62,63.2,63,65.1,62.5,66.8z"/>
					</g>
					<g>
						<path class="st14" d="M61.1,66.4c-0.3,0.9-1.3,1.6-2.4,1.3c-0.9-0.3-1.6-1.3-1.3-2.4c0.3-0.9,1.3-1.6,2.4-1.3
							C60.8,64.4,61.3,65.5,61.1,66.4z"/>
					</g>
				</g>
				<g>
					<line class="st2" x1="59.2" y1="68.9" x2="59.2" y2="81.5"/>
					<g>
						<line class="st2" x1="57.3" y1="68.3" x2="52.7" y2="80.9"/>
						<line class="st2" x1="61.3" y1="68.3" x2="65.9" y2="80.9"/>
					</g>
				</g>
			</g>
		</g>
		<g>
			<g>
				<rect x="187.3" y="46.8" class="st15" width="1.2" height="17.1"/>
				<line class="st16" x1="184.7" y1="63.9" x2="191" y2="63.9"/>
			</g>
			<g>
				<polygon class="st15" points="195.5,49 181,49 181,52.6 195.5,52.6 197.3,50.9 				"/>
				<g>
					<rect x="185.4" y="50.8" class="st16" width="8.3" height="0.1"/>
					<rect x="183.1" y="50.8" class="st16" width="0.8" height="0.1"/>
				</g>
			</g>
			<g>
				<polygon class="st15" points="180.3,54 194.7,54 194.7,57.4 180.3,57.4 178.4,55.7 				"/>
				<g>
					<rect x="182" y="55.7" class="st16" width="8.3" height="0.1"/>
					<rect x="191.9" y="55.7" class="st15" width="0.8" height="0.1"/>
				</g>
			</g>
		</g>
		<g>
			<g>
				<g>
					<path id="SVGID_1_" class="st17" d="M169.1,34.2c0,3-2.5,5.5-5.5,5.5s-5.5-2.5-5.5-5.5s2.5-5.5,5.5-5.5
						C166.7,28.7,169.1,31.2,169.1,34.2z"/>
				</g>
				<g>
					<defs>
						<circle id="SVGID_2_" cx="163.6" cy="34.2" r="5.5"/>
					</defs>
					<clipPath id="SVGID_4_">
						<use xlink:href="#SVGID_2_"  style="overflow:visible;"/>
					</clipPath>
					<g class="st18">
						<path class="st19" d="M165.7,33.2c0,1.2-0.9,2.1-2.1,2.1c-1.2,0-2.1-0.9-2.1-2.1c0-1.2,0.9-2.1,2.1-2.1
							C164.8,31.2,165.7,32.1,165.7,33.2z"/>
						<path class="st19" d="M167.3,42.6c0,1.1-0.8,1.8-1.8,1.8H162c-1.1,0-1.8-0.8-1.8-1.8v-5.5c0-1.1,0.8-1.8,1.8-1.8h3.4
							c1.1,0,1.8,0.8,1.8,1.8V42.6z"/>
						<g>
							<line class="st9" x1="161.7" y1="37.1" x2="161.7" y2="43.5"/>
							<line class="st9" x1="165.6" y1="37.1" x2="165.6" y2="43.5"/>
						</g>
					</g>
				</g>
			</g>
		</g>
		<g>
			<g>
				<g>
					<path id="SVGID_3_" class="st17" d="M82.9,81.1c0,3-2.5,5.5-5.5,5.5c-3,0-5.5-2.5-5.5-5.5c0-3,2.5-5.5,5.5-5.5
						C80.4,75.6,82.9,77.9,82.9,81.1z"/>
				</g>
				<g>
					<defs>
						<circle id="SVGID_5_" cx="77.3" cy="81.1" r="5.5"/>
					</defs>
					<clipPath id="SVGID_6_">
						<use xlink:href="#SVGID_5_"  style="overflow:visible;"/>
					</clipPath>
					<g class="st20">
						<path class="st19" d="M79.4,80c0,1.2-0.9,2.1-2.1,2.1c-1.2,0-2.1-0.9-2.1-2.1s0.9-2.1,2.1-2.1C78.5,77.9,79.4,78.8,79.4,80z"
							/>
						<path class="st19" d="M80.9,89.5c0,1.1-0.8,1.8-1.8,1.8h-3.4c-1.1,0-1.8-0.8-1.8-1.8V84c0-1.1,0.8-1.8,1.8-1.8h3.4
							c1.1,0,1.8,0.8,1.8,1.8V89.5z"/>
						<g>
							<line class="st9" x1="75.5" y1="83.8" x2="75.5" y2="90.3"/>
							<line class="st9" x1="79.3" y1="83.8" x2="79.3" y2="90.3"/>
						</g>
					</g>
				</g>
			</g>
		</g>
	</g>
</g>
</svg>
