<?xml version="1.0" encoding="utf-8"?>
<!-- Generator: Adobe Illustrator 22.0.0, SVG Export Plug-In . SVG Version: 6.00 Build 0)  -->
<svg version="1.1" id="Layer_1" xmlns="http://www.w3.org/2000/svg" xmlns:xlink="http://www.w3.org/1999/xlink" x="0px" y="0px"
	 viewBox="0 0 230 117" style="enable-background:new 0 0 230 117;" xml:space="preserve">
<style type="text/css">
	.st0{fill:#EF5350;}
	.st1{fill:#FFFFFF;}
	.st2{font-family:'Metropolis-Bold';}
	.st3{font-size:32.2678px;}
	.st4{fill:#003781;}
	.st5{fill:#FF6171;}
	.st6{fill:#84D0F0;}
	.st7{fill:#FFB445;}
	.st8{fill:#7ED2F2;}
	.st9{fill:#00345A;}
	.st10{fill:#A2DBF7;}
</style>
<g id="Background">
	<rect class="st0" width="230" height="117"/>
</g>
<g id="Layer_2_1_">
	<g>
		<g>
			<g>
				<g>
					<g>
						<text transform="matrix(1 0 0 1 41.3613 64.3467)" class="st1 st2 st3">PROJECT</text>
					</g>
				</g>
			</g>
		</g>
		<g>
			<ellipse class="st1" cx="141.7" cy="30" rx="7.3" ry="7.3"/>
			<path class="st4" d="M141.6,30l3.4,6.6c2.4-1.2,4.1-3.7,4.1-6.6c0-0.4,0-0.6-0.1-1c-1.8-0.1-4.2-0.1-4.2-0.1L141.6,30z"/>
			<path class="st5" d="M141.6,22.7V30h7.3C149,25.9,145.7,22.7,141.6,22.7z"/>
		</g>
		<path class="st4" d="M165,54.2h-0.5c-0.1-0.1-0.1-0.4-0.2-0.5l0.2-0.5c0.1-0.2,0.1-0.5-0.1-0.6l-0.5-0.4c-0.1-0.1-0.2-0.1-0.2-0.1
			c-0.1,0-0.2,0-0.2,0.1l-0.4,0.4c-0.1-0.1-0.4-0.1-0.5-0.1l-0.1-0.5c-0.1-0.2-0.2-0.4-0.5-0.4l-0.6,0.1c-0.2,0-0.4,0.2-0.4,0.5v0.5
			c-0.1,0.1-0.4,0.1-0.5,0.2l-0.5-0.2c-0.1,0-0.1-0.1-0.2,0c-0.1,0-0.2,0.1-0.4,0.1l-0.4,0.5c-0.1,0.1-0.1,0.4,0,0.6l0.4,0.4
			c-0.1,0.1-0.1,0.4-0.1,0.5l-0.5,0.1c-0.2,0-0.4,0.2-0.4,0.5l0.1,0.6c0,0.2,0.2,0.4,0.5,0.4h0.5c0.1,0.1,0.1,0.4,0.2,0.5l-0.2,0.5
			c-0.1,0.2-0.1,0.5,0.1,0.6l0.5,0.4c0.1,0.1,0.2,0.1,0.4,0.1s0.2,0,0.2-0.1l0.4-0.4c0.1,0.1,0.4,0.1,0.5,0.1l0.1,0.5
			c0.1,0.2,0.2,0.4,0.5,0.4l0.6-0.1c0.2,0,0.4-0.2,0.4-0.5v-0.5c0.1-0.1,0.4-0.1,0.5-0.2l0.5,0.2c0.1,0,0.1,0.1,0.2,0
			c0.1,0,0.2-0.1,0.4-0.1l0.4-0.5c0.1-0.1,0.1-0.4,0-0.6l-0.4-0.4c0.1-0.1,0.1-0.4,0.1-0.5l0.5-0.1c0.2,0,0.4-0.2,0.4-0.5l-0.1-0.6
			C165.5,54.5,165.3,54.2,165,54.2z M162,56.6c-0.7,0.1-1.3-0.5-1.4-1.2c-0.1-0.7,0.5-1.3,1.2-1.4c0.7-0.1,1.3,0.5,1.4,1.2
			C163.2,55.9,162.8,56.6,162,56.6z"/>
		<path class="st1" d="M164.6,49.2h-0.4c0-0.1-0.1-0.2-0.1-0.2l0.1-0.2c0.1-0.1,0-0.2-0.1-0.4l-0.2-0.2l-0.1-0.1
			c-0.1,0-0.1,0-0.1,0.1l-0.2,0.2c-0.1,0-0.2-0.1-0.4-0.1l-0.1-0.2c0-0.1-0.1-0.2-0.2-0.2h-0.4c-0.1,0-0.2,0.1-0.2,0.2v0.4
			c-0.1,0-0.2,0.1-0.2,0.1l-0.2-0.1h-0.1c-0.1,0-0.1,0-0.1,0.1l-0.2,0.2c-0.1,0.1-0.1,0.2,0,0.4l0.2,0.2c0,0.1-0.1,0.2-0.1,0.4
			l-0.2,0.1c-0.1,0-0.2,0.1-0.2,0.2v0.4c0,0.1,0.1,0.2,0.2,0.2h0.4c0,0.1,0.1,0.2,0.1,0.2l-0.1,0.2c-0.1,0.1,0,0.2,0.1,0.4l0.2,0.2
			c0,0,0.1,0.1,0.2,0c0,0,0.1,0,0.1-0.1l0.2-0.2c0.1,0,0.2,0.1,0.2,0.1l0.1,0.2c0,0.1,0.1,0.2,0.2,0.2h0.4c0.1,0,0.2-0.1,0.2-0.2
			v-0.4c0.1,0,0.2-0.1,0.2-0.1l0.2,0.1h0.1c0.1,0,0.1,0,0.1-0.1l0.2-0.2c0.1-0.1,0.1-0.2,0-0.4l-0.2-0.2c0-0.1,0.1-0.2,0.1-0.4
			l0.2-0.1c0.1,0,0.2-0.1,0.2-0.2v-0.4C164.8,49.3,164.7,49.2,164.6,49.2z M162.9,50.6c-0.5,0-0.8-0.2-0.8-0.7
			c0-0.5,0.2-0.8,0.7-0.8c0.5,0,0.8,0.2,0.8,0.7C163.6,50.2,163.2,50.5,162.9,50.6z"/>
		<g>
			<path class="st4" d="M57.2,85.3H43.2c-0.5,0-0.7-0.4-0.7-0.7v-8.4c0-0.5,0.4-0.7,0.7-0.7h13.9c0.5,0,0.7,0.4,0.7,0.7v8.4
				C57.9,85.1,57.5,85.3,57.2,85.3z"/>
			<g>
				<polyline class="st4" points="56.9,75.8 57.2,76.2 50.3,81 43.1,76.2 43.5,75.8 				"/>
			</g>
			<path class="st1" d="M50.3,81l6.7-4.7v-5.4H43.5v5.6C46,78.2,50.3,81,50.3,81z"/>
			<rect x="45" y="72.2" class="st6" width="10.7" height="0.6"/>
			<rect x="45" y="74" class="st6" width="10.7" height="0.6"/>
			<rect x="45" y="75.8" class="st6" width="10.7" height="0.6"/>
		</g>
		<g>
			<g>
				<rect x="84.6" y="30.2" class="st4" width="2.6" height="6.6"/>
				<rect x="80.9" y="32.3" class="st7" width="2.6" height="4.6"/>
				<rect x="88.4" y="26" class="st5" width="2.6" height="10.8"/>
				<rect x="92.1" y="22.9" class="st1" width="2.6" height="13.9"/>
			</g>
			<rect x="80.9" y="36.8" class="st4" width="14" height="0.4"/>
		</g>
		<g>
			<rect x="90.2" y="77.3" class="st1" width="17.5" height="12.4"/>
			<g>
				<g>
					<path class="st8" d="M94.4,78.8c0,0.5-0.4,0.8-0.8,0.8c-0.5,0-0.8-0.4-0.8-0.8S93,78,93.5,78C94,78.1,94.4,78.5,94.4,78.8z"/>
					<path class="st4" d="M93.6,79L93.6,79c-0.2,0-0.5-0.2-0.5-0.5v-1.9c0-0.2,0.2-0.5,0.5-0.5l0,0c0.2,0,0.5,0.2,0.5,0.5v1.8
						C94.1,78.7,93.9,79,93.6,79z"/>
				</g>
				<g>
					<path class="st8" d="M98,78.8c0,0.5-0.4,0.8-0.8,0.8c-0.5,0-0.8-0.4-0.8-0.8s0.4-0.8,0.8-0.8C97.6,78.1,98,78.5,98,78.8z"/>
					<path class="st4" d="M97.1,79L97.1,79c-0.2,0-0.5-0.2-0.5-0.5v-1.9c0-0.2,0.2-0.5,0.5-0.5l0,0c0.2,0,0.5,0.2,0.5,0.5v1.8
						C97.6,78.7,97.4,79,97.1,79z"/>
				</g>
				<g>
					<path class="st8" d="M101.4,78.8c0,0.5-0.4,0.8-0.8,0.8c-0.5,0-0.8-0.4-0.8-0.8s0.4-0.8,0.8-0.8
						C101.1,78.1,101.4,78.5,101.4,78.8z"/>
					<path class="st4" d="M100.7,79L100.7,79c-0.2,0-0.5-0.2-0.5-0.5v-1.9c0-0.2,0.2-0.5,0.5-0.5l0,0c0.2,0,0.5,0.2,0.5,0.5v1.8
						C101.2,78.7,101,79,100.7,79z"/>
				</g>
				<g>
					<path class="st8" d="M105,78.8c0,0.5-0.4,0.8-0.8,0.8c-0.5,0-0.8-0.4-0.8-0.8s0.4-0.8,0.8-0.8C104.7,78.1,105,78.5,105,78.8z"
						/>
					<path class="st4" d="M104.2,79L104.2,79c-0.2,0-0.5-0.2-0.5-0.5v-1.9c0-0.2,0.2-0.5,0.5-0.5l0,0c0.2,0,0.5,0.2,0.5,0.5v1.8
						C104.7,78.7,104.6,79,104.2,79z"/>
				</g>
			</g>
			<g>
				<rect x="91.2" y="81.4" class="st8" width="1.6" height="1.6"/>
				<rect x="94" y="81.4" class="st8" width="1.6" height="1.6"/>
				<rect x="96.8" y="81.4" class="st8" width="1.6" height="1.6"/>
				<rect x="99.5" y="81.4" class="st5" width="1.6" height="1.6"/>
				<rect x="102.3" y="81.4" class="st8" width="1.6" height="1.6"/>
				<rect x="105" y="81.4" class="st8" width="1.6" height="1.6"/>
			</g>
			<g>
				<rect x="91.2" y="83.6" class="st8" width="1.6" height="1.6"/>
				<rect x="94" y="83.6" class="st8" width="1.6" height="1.6"/>
				<rect x="96.8" y="83.6" class="st7" width="1.6" height="1.6"/>
				<rect x="99.5" y="83.6" class="st7" width="1.6" height="1.6"/>
				<rect x="102.3" y="83.6" class="st8" width="1.6" height="1.6"/>
				<rect x="105" y="83.6" class="st8" width="1.6" height="1.6"/>
			</g>
			<g>
				<rect x="91.2" y="85.9" class="st8" width="1.6" height="1.6"/>
				<rect x="94" y="85.9" class="st8" width="1.6" height="1.6"/>
				<rect x="96.8" y="85.9" class="st8" width="1.6" height="1.6"/>
				<rect x="99.5" y="85.9" class="st8" width="1.6" height="1.6"/>
				<rect x="102.3" y="85.9" class="st8" width="1.6" height="1.6"/>
				<rect x="105" y="85.9" class="st8" width="1.6" height="1.6"/>
			</g>
			<path class="st4" d="M107.7,77.3l3.6,9.8h-3.6C107.7,87.1,107.7,77.2,107.7,77.3z"/>
		</g>
		<g>
			<path class="st1" d="M164.3,30.8l-7.8,1.3c-0.8,0.1-1.4,1-1.3,1.9l0.6,3.7c0.1,0.8,1,1.4,1.9,1.3l0,0l0.4,1.8l1.4-2l6-1.1
				c0.8-0.1,1.4-1,1.3-1.9l-0.6-3.7C166.1,31.3,165.3,30.7,164.3,30.8z"/>
			<g>
				
					<rect x="156.9" y="33" transform="matrix(0.9855 -0.1696 0.1696 0.9855 -3.3032 27.7902)" class="st4" width="8.3" height="0.5"/>
				
					<rect x="157.1" y="34.7" transform="matrix(0.9855 -0.1696 0.1696 0.9855 -3.5857 27.856)" class="st4" width="8.3" height="0.5"/>
				
					<rect x="157.4" y="36.5" transform="matrix(0.9855 -0.1696 0.1696 0.9855 -3.9006 27.781)" class="st4" width="6.6" height="0.5"/>
			</g>
		</g>
		<g>
			<path class="st1" d="M149.6,74.6l7.9-0.6c0.8-0.1,1.6-0.8,1.6-1.8l-0.2-3.8c-0.1-1-0.8-1.6-1.8-1.6l0,0l-0.1-1.8l-1.7,1.9
				l-6.1,0.5c-0.8,0.1-1.6,0.8-1.6,1.8l0.2,3.8C147.9,74,148.6,74.8,149.6,74.6z"/>
			<g>
				
					<rect x="149" y="72.4" transform="matrix(0.9975 -7.010578e-02 7.010578e-02 0.9975 -4.7121 10.918)" class="st4" width="8.3" height="0.5"/>
				
					<rect x="148.9" y="70.7" transform="matrix(0.9975 -7.010578e-02 7.010578e-02 0.9975 -4.5947 10.9058)" class="st4" width="8.3" height="0.5"/>
				
					<rect x="150.4" y="69" transform="matrix(0.9975 -7.010487e-02 7.010487e-02 0.9975 -4.479 10.9485)" class="st4" width="6.6" height="0.5"/>
			</g>
		</g>
		<g>
			<path class="st1" d="M60.3,30.8l7.8,1.3c0.8,0.1,1.4,1,1.3,1.9l-0.6,3.7c-0.1,0.8-1,1.4-1.9,1.3l0,0l-0.4,1.8l-1.4-2l-6-1.1
				c-0.8-0.1-1.4-1-1.3-1.9l0.6-3.7C58.6,31.3,59.4,30.7,60.3,30.8z"/>
			<g>
				
					<rect x="63.3" y="30.1" transform="matrix(0.1696 -0.9855 0.9855 0.1696 19.038 91.007)" class="st4" width="0.5" height="8.3"/>
				
					<rect x="63" y="31.7" transform="matrix(0.1696 -0.9855 0.9855 0.1696 17.1593 92.0394)" class="st4" width="0.5" height="8.3"/>
			</g>
		</g>
		<g>
			<polygon class="st7" points="124,35.6 122.6,39.6 122.6,39.7 122.6,39.7 122.6,39.7 122.6,40.6 122.6,40.6 122.6,56.6 
				125.6,56.6 125.6,39.7 125.6,39.7 125.6,39.6 			"/>
			<g>
				<path class="st5" d="M122.6,56.6v1c0,0.7,0.6,1.3,1.3,1.3h0.4c0.7,0,1.3-0.6,1.3-1.3v-1H122.6z"/>
				<path class="st1" d="M124,35.6l-1.6,4l0,0c0.8,0,2.2,0,3.1,0L124,35.6z"/>
				<path class="st9" d="M123.4,37.2c0.1,0.1,0.5,0.2,0.7,0.2c0.2,0,0.5-0.1,0.6-0.2l-0.7-1.7L123.4,37.2z"/>
			</g>
		</g>
		<g>
			<path class="st1" d="M73.7,83.2L73.7,83.2C73.2,83,73,82.4,73.1,82l2.5-8l1.8,0.6l-2.5,8C74.7,83,74.2,83.3,73.7,83.2z"/>
			<path class="st1" d="M77.3,74.9l-1.9-0.6c-0.2-0.1-0.4-0.4-0.4-0.6l0,0c0.1-0.2,0.4-0.4,0.6-0.4l1.9,0.6c0.2,0.1,0.4,0.4,0.4,0.6
				l0,0C77.9,74.9,77.6,75,77.3,74.9z"/>
			<path class="st4" d="M76.8,73.7l0.4,0.1l0.5,0.1c0.2,0.1,0.4,0.4,0.4,0.6l0,0c-0.1,0.2-0.4,0.4-0.6,0.4l-2-0.6
				c-0.2-0.1-0.4-0.4-0.4-0.6l0,0c0.1-0.2,0.4-0.4,0.6-0.4l0.5,0.1"/>
			<path class="st4" d="M80.6,61.4c-3.4-1.1-7,0.8-8,4.2c-1.1,3.4,0.8,7,4.2,8c3.4,1.1,7-0.8,8-4.2C85.8,66.1,83.9,62.5,80.6,61.4z
				 M83.4,69.1c-0.8,2.6-3.7,4.2-6.4,3.4c-2.6-0.8-4.2-3.7-3.4-6.4s3.7-4.2,6.4-3.4C82.8,63.6,84.4,66.5,83.4,69.1z"/>
		</g>
		<g>
			<polygon class="st7" points="179.6,84.6 170.6,83.3 172.2,71.8 183.7,73.6 182.4,82.4 			"/>
			<polygon class="st4" points="179.6,84.6 182.4,82.4 179.9,81.7 			"/>
		</g>
		<g>
			<polygon class="st1" points="177.3,91.2 169.2,95.4 163.8,85 174.2,79.7 178.4,87.6 			"/>
			<polygon class="st4" points="177.3,91.2 178.4,87.6 176,88.6 			"/>
		</g>
		<g>
			<g>
				<ellipse class="st4" cx="97.6" cy="53.6" rx="7.2" ry="7.2"/>
				<circle class="st1" cx="97.6" cy="53.5" r="6.5"/>
				<g>
					<rect x="97.5" y="47.6" class="st4" width="0.2" height="1"/>
					<rect x="97.5" y="58.7" class="st4" width="0.2" height="1"/>
				</g>
				<g>
					<rect x="102.6" y="53.4" class="st4" width="1" height="0.2"/>
					<rect x="91.6" y="53.4" class="st4" width="1" height="0.2"/>
				</g>
				<g>
					
						<rect x="100.9" y="57.4" transform="matrix(0.7885 -0.6151 0.6151 0.7885 -14.231 74.3904)" class="st4" width="0.2" height="1"/>
					
						<rect x="94.1" y="48.8" transform="matrix(0.7885 -0.6151 0.6151 0.7885 -10.3717 68.3778)" class="st4" width="0.2" height="1"/>
				</g>
				<g>
					
						<rect x="99.3" y="58.3" transform="matrix(0.9454 -0.3259 0.3259 0.9454 -13.736 35.6168)" class="st4" width="0.2" height="1"/>
					
						<rect x="95.7" y="47.9" transform="matrix(0.9454 -0.3258 0.3258 0.9454 -10.5257 33.8665)" class="st4" width="0.2" height="1"/>
				</g>
				<g>
					
						<rect x="102.1" y="56.3" transform="matrix(0.581 -0.8139 0.8139 0.581 -3.3744 106.9405)" class="st4" width="0.2" height="1"/>
					<rect x="93" y="49.9" transform="matrix(0.581 -0.8139 0.8139 0.581 -2.0088 96.877)" class="st4" width="0.2" height="1"/>
				</g>
				<g>
					
						<rect x="102.7" y="54.8" transform="matrix(0.328 -0.9447 0.9447 0.328 16.8399 134.2934)" class="st4" width="0.2" height="1"/>
					
						<rect x="92.2" y="51.3" transform="matrix(0.328 -0.9447 0.9447 0.328 13.1229 122.0263)" class="st4" width="0.2" height="1"/>
				</g>
				<g>
					
						<rect x="93.7" y="57.8" transform="matrix(0.6151 -0.7885 0.7885 0.6151 -9.4389 96.605)" class="st4" width="1" height="0.2"/>
					
						<rect x="100.5" y="49.1" transform="matrix(0.6151 -0.7885 0.7885 0.6151 9.800173e-02 98.558)" class="st4" width="1" height="0.2"/>
				</g>
				<g>
					
						<rect x="95.3" y="58.7" transform="matrix(0.3258 -0.9454 0.9454 0.3258 9.0091 130.2062)" class="st4" width="1" height="0.2"/>
					
						<rect x="98.9" y="48.2" transform="matrix(0.3258 -0.9454 0.9454 0.3258 21.3043 126.5722)" class="st4" width="1" height="0.2"/>
				</g>
				<g>
					
						<rect x="92.7" y="56.7" transform="matrix(0.8139 -0.581 0.581 0.8139 -15.6617 64.7026)" class="st4" width="1" height="0.2"/>
					
						<rect x="101.6" y="50.2" transform="matrix(0.814 -0.5809 0.5809 0.814 -10.2566 68.641)" class="st4" width="1" height="0.2"/>
				</g>
				<g>
					
						<rect x="91.9" y="55.3" transform="matrix(0.9447 -0.328 0.328 0.9447 -13.0755 33.3653)" class="st4" width="1" height="0.2"/>
					
						<rect x="102.3" y="51.6" transform="matrix(0.9447 -0.328 0.328 0.9447 -11.2826 36.5601)" class="st4" width="1" height="0.2"/>
				</g>
				<g>
					<polygon class="st4" points="94.7,56 94.6,55.8 97.5,53.5 97.5,50.6 97.6,50.6 97.6,53.5 					"/>
				</g>
			</g>
			<g>
				<rect x="97.4" y="43.9" class="st4" width="0.5" height="1.6"/>
				<rect x="97.4" y="61.8" class="st4" width="0.5" height="1.6"/>
			</g>
			<g>
				
					<rect x="102.8" y="59.8" transform="matrix(0.7885 -0.6151 0.6151 0.7885 -15.4709 76.2274)" class="st4" width="0.5" height="1.6"/>
				
					<rect x="91.8" y="45.8" transform="matrix(0.7884 -0.6151 0.6151 0.7884 -9.1883 66.5063)" class="st4" width="0.5" height="1.6"/>
			</g>
			<g>
				
					<rect x="100.2" y="61.2" transform="matrix(0.9454 -0.3258 0.3258 0.9454 -14.7153 36.1101)" class="st4" width="0.5" height="1.6"/>
				
					<rect x="94.4" y="44.3" transform="matrix(0.9454 -0.3258 0.3258 0.9454 -9.5249 33.3099)" class="st4" width="0.5" height="1.6"/>
			</g>
			<g>
				
					<rect x="104.7" y="58" transform="matrix(0.5809 -0.814 0.814 0.5809 -3.9134 110.0466)" class="st4" width="0.5" height="1.6"/>
				
					<rect x="90.1" y="47.6" transform="matrix(0.5809 -0.814 0.814 0.5809 -1.5759 93.7917)" class="st4" width="0.5" height="1.6"/>
			</g>
			<g>
				
					<rect x="91.4" y="60.5" transform="matrix(0.6151 -0.7885 0.7885 0.6151 -12.3848 96.0394)" class="st4" width="1.6" height="0.5"/>
				
					<rect x="102.4" y="46.3" transform="matrix(0.6151 -0.7884 0.7884 0.6151 3.0305 99.2171)" class="st4" width="1.6" height="0.5"/>
			</g>
			<g>
				
					<rect x="93.9" y="61.9" transform="matrix(0.3258 -0.9454 0.9454 0.3258 5.137 131.3915)" class="st4" width="1.6" height="0.5"/>
				
					<rect x="99.8" y="45" transform="matrix(0.3258 -0.9454 0.9454 0.3258 25.0794 125.5599)" class="st4" width="1.6" height="0.5"/>
			</g>
			<g>
				
					<rect x="89.6" y="58.6" transform="matrix(0.814 -0.5809 0.5809 0.814 -17.3416 63.4513)" class="st4" width="1.6" height="0.5"/>
				
					<rect x="104.1" y="48.2" transform="matrix(0.814 -0.5809 0.5809 0.814 -8.6256 69.9326)" class="st4" width="1.6" height="0.5"/>
			</g>
			<g>
				
					<rect x="88.3" y="56.3" transform="matrix(0.9447 -0.328 0.328 0.9447 -13.6211 32.3616)" class="st4" width="1.6" height="0.5"/>
				
					<rect x="105.3" y="50.5" transform="matrix(0.9447 -0.328 0.328 0.9447 -10.7715 37.5859)" class="st4" width="1.6" height="0.5"/>
			</g>
		</g>
		<g>
			<circle class="st1" cx="111.5" cy="30.1" r="10.2"/>
			<circle class="st6" cx="111.5" cy="30.1" r="7.8"/>
			<circle class="st7" cx="111.5" cy="30.1" r="4.8"/>
			<path class="st5" d="M113.6,30.1c0,1.1-1,2-2,2s-2-1-2-2c0-1.1,1-2,2-2S113.6,29,113.6,30.1z"/>
			<path class="st4" d="M125.7,29v-0.1l-0.1-0.1h-2.8h-0.1l-1.1,1.2h-10.1c-0.1,0-0.1,0.1-0.1,0.1c0,0.1,0.1,0.1,0.1,0.1h10.2l0,0
				l0,0l0,0l0.7,1.3l0.1,0.1h2.9c0.1,0,0.2-0.1,0.1-0.4l-0.6-1c0,0,0-0.1-0.1-0.1c0,0,0.1,0,0.1-0.1L125.7,29z"/>
		</g>
		<g>
			<path class="st7" d="M50.2,37.9c0-2.3-1.9-4.2-4.3-4.1c-2,0.1-3.8,1.8-3.8,4c0,1.2,0.4,2.2,1.1,3c0.6,0.6,1.1,1.3,1.4,2.2
				l0.2,0.5v0.7h1.1h0.6h1.1v-0.7l0.1-0.4c0.4-0.8,1-1.7,1.6-2.4C49.8,40,50.2,39,50.2,37.9z"/>
			<rect x="45" y="43" transform="matrix(6.331860e-03 -1 1 6.331860e-03 1.2532 90.1846)" class="st4" width="2" height="2.9"/>
			<g>
				<polygon class="st4" points="46.6,44.4 45.8,44.4 44.3,37.4 44.6,37.3 46,44 46.2,44 47.6,37.2 47.9,37.3 				"/>
			</g>
			<path class="st4" d="M46.7,45.5c0,0.4-0.2,0.6-0.6,0.6s-0.6-0.2-0.6-0.6s0.2-0.6,0.6-0.6C46.4,44.9,46.7,45.1,46.7,45.5z"/>
			<g>
				<g>
					<g>
						
							<rect x="44.6" y="30.6" transform="matrix(6.255341e-03 -1 1 6.255341e-03 15.2375 76.7525)" class="st4" width="3.4" height="0.2"/>
					</g>
				</g>
				<g>
					<g>
						
							<rect x="52.5" y="35.5" transform="matrix(6.341045e-03 -1 1 6.341045e-03 15.1026 89.5934)" class="st4" width="0.2" height="3.4"/>
					</g>
					<g>
						
							<rect x="39.5" y="35.4" transform="matrix(6.330516e-03 -1 1 6.330516e-03 2.2719 76.4984)" class="st4" width="0.2" height="3.4"/>
					</g>
				</g>
				<g>
					<g>
						
							<rect x="41.1" y="31.2" transform="matrix(0.6631 -0.7485 0.7485 0.6631 -10.7379 41.9423)" class="st4" width="0.2" height="3.4"/>
					</g>
				</g>
				<g>
					<g>
						
							<rect x="48.8" y="32.2" transform="matrix(0.6633 -0.7484 0.7484 0.6633 -7.1965 48.6255)" class="st4" width="3.4" height="0.2"/>
					</g>
				</g>
			</g>
		</g>
		<g>
			<polygon class="st1" points="136.6,91 139.4,72.1 123.8,69.7 120.9,88.7 			"/>
			
				<rect x="130.8" y="67.1" transform="matrix(0.1476 -0.989 0.989 0.1476 38.7317 192.525)" class="st6" width="0.5" height="13.4"/>
			
				<rect x="130.7" y="68.4" transform="matrix(0.1476 -0.989 0.989 0.1476 37.3198 193.5535)" class="st6" width="0.5" height="13.4"/>
			
				<rect x="135.8" y="76.7" transform="matrix(0.1468 -0.9892 0.9892 0.1468 38.999 200.9716)" class="st4" width="0.5" height="2.4"/>
			
				<rect x="128.6" y="75.6" transform="matrix(0.1468 -0.9892 0.9892 0.1468 33.9249 192.9311)" class="st4" width="0.5" height="2.4"/>
			
				<rect x="132.2" y="76.1" transform="matrix(0.1468 -0.9892 0.9892 0.1468 36.5248 196.9099)" class="st4" width="0.5" height="2.4"/>
			<rect x="125" y="75" transform="matrix(0.1468 -0.9892 0.9892 0.1468 31.4503 188.8695)" class="st4" width="0.5" height="2.4"/>
			
				<rect x="124.6" y="77.4" transform="matrix(0.1468 -0.9892 0.9892 0.1468 28.7649 190.5503)" class="st10" width="0.5" height="2.4"/>
			
				<rect x="124.4" y="78.5" transform="matrix(0.1468 -0.9892 0.9892 0.1468 27.5104 191.2305)" class="st10" width="0.5" height="2.4"/>
			
				<rect x="124.3" y="79.6" transform="matrix(0.1468 -0.9892 0.9892 0.1468 26.336 192.0434)" class="st7" width="0.5" height="2.4"/>
			
				<rect x="124.1" y="80.8" transform="matrix(0.1468 -0.9892 0.9892 0.1468 25.0266 192.9405)" class="st10" width="0.5" height="2.4"/>
			
				<rect x="123.9" y="81.8" transform="matrix(0.1468 -0.9892 0.9892 0.1468 23.769 193.6209)" class="st10" width="0.5" height="2.4"/>
			
				<rect x="123.8" y="82.9" transform="matrix(0.1468 -0.9892 0.9892 0.1468 22.5924 194.4341)" class="st10" width="0.5" height="2.4"/>
			
				<rect x="123.6" y="84" transform="matrix(0.1468 -0.9892 0.9892 0.1468 21.4181 195.2471)" class="st7" width="0.5" height="2.4"/>
			
				<rect x="123.4" y="85.2" transform="matrix(0.1468 -0.9892 0.9892 0.1468 20.0343 196.011)" class="st10" width="0.5" height="2.4"/>
			
				<rect x="128.2" y="77.9" transform="matrix(0.1468 -0.9892 0.9892 0.1468 31.3683 194.5287)" class="st7" width="0.5" height="2.4"/>
			
				<rect x="128.1" y="79.1" transform="matrix(0.1468 -0.9892 0.9892 0.1468 30.0616 195.4255)" class="st7" width="0.5" height="2.4"/>
			
				<rect x="127.8" y="80.2" transform="matrix(0.1468 -0.9892 0.9892 0.1468 28.804 196.1059)" class="st10" width="0.5" height="2.4"/>
			
				<rect x="127.7" y="81.2" transform="matrix(0.1468 -0.9892 0.9892 0.1468 27.63 196.9189)" class="st5" width="0.5" height="2.4"/>
			
				<rect x="127.5" y="82.3" transform="matrix(0.1468 -0.9892 0.9892 0.1468 26.3728 197.5993)" class="st10" width="0.5" height="2.4"/>
			
				<rect x="127.4" y="83.5" transform="matrix(0.1468 -0.9892 0.9892 0.1468 25.0666 198.496)" class="st10" width="0.5" height="2.4"/>
			
				<rect x="127.2" y="84.6" transform="matrix(0.1468 -0.9892 0.9892 0.1468 23.8923 199.309)" class="st10" width="0.5" height="2.4"/>
			
				<rect x="127" y="85.7" transform="matrix(0.1468 -0.9892 0.9892 0.1468 22.6347 199.9894)" class="st10" width="0.5" height="2.4"/>
			
				<rect x="131.8" y="78.5" transform="matrix(0.1468 -0.9892 0.9892 0.1468 33.8425 198.5903)" class="st10" width="0.5" height="2.4"/>
			
				<rect x="131.7" y="79.6" transform="matrix(0.1468 -0.9892 0.9892 0.1468 32.6683 199.4034)" class="st10" width="0.5" height="2.4"/>
			
				<rect x="131.4" y="80.6" transform="matrix(0.1468 -0.9892 0.9892 0.1468 31.4106 200.0838)" class="st5" width="0.5" height="2.4"/>
			
				<rect x="131.3" y="81.8" transform="matrix(0.1468 -0.9892 0.9892 0.1468 30.0978 200.9814)" class="st10" width="0.5" height="2.4"/>
			
				<rect x="131.1" y="82.9" transform="matrix(0.1468 -0.9892 0.9892 0.1468 28.8407 201.6618)" class="st10" width="0.5" height="2.4"/>
			
				<rect x="131" y="84" transform="matrix(0.1468 -0.9892 0.9892 0.1468 27.6668 202.4747)" class="st10" width="0.5" height="2.4"/>
			
				<rect x="130.8" y="85.1" transform="matrix(0.1468 -0.9892 0.9892 0.1468 26.4956 203.2873)" class="st10" width="0.5" height="2.4"/>
			
				<rect x="130.6" y="86.3" transform="matrix(0.1468 -0.9892 0.9892 0.1468 25.1095 204.0513)" class="st10" width="0.5" height="2.4"/>
			
				<rect x="135.4" y="79" transform="matrix(0.1468 -0.9892 0.9892 0.1468 36.4429 202.569)" class="st10" width="0.5" height="2.4"/>
			
				<rect x="135.3" y="80.2" transform="matrix(0.1468 -0.9892 0.9892 0.1468 35.1366 203.4659)" class="st10" width="0.5" height="2.4"/>
			
				<rect x="135" y="81.2" transform="matrix(0.1468 -0.9892 0.9892 0.1468 33.8783 204.1464)" class="st10" width="0.5" height="2.4"/>
			
				<rect x="134.9" y="82.3" transform="matrix(0.1468 -0.9892 0.9892 0.1468 32.7046 204.9594)" class="st10" width="0.5" height="2.4"/>
			
				<rect x="134.7" y="83.4" transform="matrix(0.1468 -0.9892 0.9892 0.1468 31.4474 205.6398)" class="st5" width="0.5" height="2.4"/>
			
				<rect x="134.6" y="84.6" transform="matrix(0.1468 -0.9892 0.9892 0.1468 30.1406 206.5366)" class="st10" width="0.5" height="2.4"/>
			
				<rect x="134.4" y="85.7" transform="matrix(0.1468 -0.9892 0.9892 0.1468 28.9667 207.3494)" class="st10" width="0.5" height="2.4"/>
			
				<rect x="134.2" y="86.8" transform="matrix(0.1468 -0.9892 0.9892 0.1468 27.7095 208.0299)" class="st7" width="0.5" height="2.4"/>
			
				<rect x="127.5" y="73.9" transform="matrix(0.1468 -0.9892 0.9892 0.1468 31.9962 192.8385)" class="st10" width="0.5" height="8"/>
		</g>
		<path class="st1" d="M190.7,32.8c-0.1-1-0.8-1.8-1.8-1.8c-0.1,0-0.2,0-0.4,0.1c-0.4-1.8-1.7-3.2-3.2-3.2c-1.3,0-2.4,1-3,2.3
			c-0.2,0-0.4-0.1-0.6-0.1c-0.8,0-1.7,0.5-2.2,1.3c-0.2-0.1-0.6-0.2-0.8-0.2c-0.8,0-1.6,0.7-1.8,1.8h13.8V32.8z"/>
		<path class="st1" d="M104.4,104c-0.1-1-0.8-1.8-1.8-1.8c-0.1,0-0.2,0-0.4,0.1c-0.4-1.8-1.7-3.2-3.2-3.2c-1.3,0-2.4,1-3,2.3
			c-0.2,0-0.4-0.1-0.6-0.1c-0.8,0-1.7,0.5-2.2,1.3c-0.2-0.1-0.6-0.2-0.8-0.2c-0.8,0-1.6,0.7-1.8,1.8h13.8V104z"/>
		<path class="st1" d="M71.1,19.1c-0.1-1-0.8-1.8-1.8-1.8c-0.1,0-0.2,0-0.4,0.1c-0.2-1.8-1.6-3.2-3.2-3.2c-1.3,0-2.4,1-3,2.3
			c-0.2,0-0.4-0.1-0.6-0.1c-0.8,0-1.7,0.5-2.2,1.3c-0.2-0.1-0.6-0.2-0.8-0.2c-0.8,0-1.6,0.7-1.8,1.8h13.8V19.1z"/>
		<path class="st1" d="M161.3,81.1c-0.1-1-0.8-1.8-1.8-1.8c-0.1,0-0.2,0-0.4,0.1c-0.4-1.8-1.7-3.2-3.2-3.2c-1.3,0-2.4,1-3,2.3
			c-0.2,0-0.4-0.1-0.6-0.1c-0.8,0-1.7,0.5-2.2,1.3c-0.2-0.1-0.6-0.2-0.8-0.2c-0.8,0-1.6,0.7-1.8,1.8h13.8V81.1z"/>
		<g>
			<rect x="53.2" y="83.8" class="st1" width="15.1" height="9.8"/>
			<polygon class="st8" points="53.2,83.8 60.8,88.7 68.3,83.8 			"/>
		</g>
		<g>
			<g>
				<path class="st1" d="M70.8,27.8c-0.6,0-1.2-0.5-1.2-1.2c0-0.6,0.5-1.2,1.2-1.2c0.6,0,1.2,0.5,1.2,1.2
					C71.9,27.2,71.4,27.8,70.8,27.8z M70.8,25.9c-0.4,0-0.7,0.4-0.7,0.7c0,0.4,0.4,0.7,0.7,0.7c0.4,0,0.7-0.4,0.7-0.7
					C71.4,26.3,71.2,25.9,70.8,25.9z"/>
			</g>
			<g>
				<path class="st1" d="M49.7,25c-0.6,0-1.2-0.5-1.2-1.2c0-0.6,0.5-1.2,1.2-1.2c0.6,0,1.2,0.5,1.2,1.2C50.9,24.5,50.4,25,49.7,25z
					 M49.7,23.2c-0.4,0-0.7,0.4-0.7,0.7c0,0.4,0.4,0.7,0.7,0.7s0.7-0.4,0.7-0.7C50.4,23.4,50.1,23.2,49.7,23.2z"/>
			</g>
			<g>
				<path class="st1" d="M115,99.7c-0.6,0-1.2-0.5-1.2-1.2c0-0.6,0.5-1.2,1.2-1.2c0.6,0,1.2,0.5,1.2,1.2S115.6,99.7,115,99.7z
					 M115,97.8c-0.4,0-0.7,0.4-0.7,0.7s0.4,0.7,0.7,0.7s0.7-0.4,0.7-0.7C115.7,98.2,115.4,97.8,115,97.8z"/>
			</g>
			<g>
				<path class="st1" d="M176.4,37.7c-0.6,0-1.2-0.5-1.2-1.2c0-0.6,0.5-1.2,1.2-1.2c0.6,0,1.2,0.5,1.2,1.2
					C177.5,37.1,177,37.7,176.4,37.7z M176.4,35.8c-0.4,0-0.7,0.4-0.7,0.7c0,0.4,0.4,0.7,0.7,0.7c0.4,0,0.7-0.4,0.7-0.7
					C177.2,36.1,176.8,35.8,176.4,35.8z"/>
			</g>
			<g>
				<path class="st1" d="M80.6,88.4c-0.6,0-1.2-0.5-1.2-1.2c0-0.6,0.5-1.2,1.2-1.2c0.6,0,1.2,0.5,1.2,1.2S81.3,88.4,80.6,88.4z
					 M80.6,86.6c-0.4,0-0.7,0.4-0.7,0.7s0.4,0.7,0.7,0.7s0.7-0.4,0.7-0.7C81.3,87,81,86.6,80.6,86.6z"/>
			</g>
			<g>
				<path class="st1" d="M165.5,76.9c-0.6,0-1.2-0.5-1.2-1.2c0-0.6,0.5-1.2,1.2-1.2c0.6,0,1.2,0.5,1.2,1.2
					C166.7,76.3,166.1,76.9,165.5,76.9z M165.5,75c-0.4,0-0.7,0.4-0.7,0.7s0.4,0.7,0.7,0.7c0.4,0,0.7-0.4,0.7-0.7
					C166.2,75.4,165.9,75,165.5,75z"/>
			</g>
			<g>
				<path class="st1" d="M116.4,75.5c-0.6,0-1.2-0.5-1.2-1.2c0-0.6,0.5-1.2,1.2-1.2c0.6,0,1.2,0.5,1.2,1.2
					C117.5,75,117,75.5,116.4,75.5z M116.4,73.7c-0.4,0-0.7,0.4-0.7,0.7s0.4,0.7,0.7,0.7s0.7-0.4,0.7-0.7
					C117.2,73.9,116.8,73.7,116.4,73.7z"/>
			</g>
			<g>
				<path class="st1" d="M183.4,97.2c-0.6,0-1.2-0.5-1.2-1.2c0-0.6,0.5-1.2,1.2-1.2c0.6,0,1.2,0.5,1.2,1.2
					C184.6,96.7,184,97.2,183.4,97.2z M183.4,95.4c-0.4,0-0.7,0.4-0.7,0.7c0,0.4,0.4,0.7,0.7,0.7c0.4,0,0.7-0.4,0.7-0.7
					S183.7,95.4,183.4,95.4z"/>
			</g>
			<g>
				<path class="st4" d="M131.1,37.1c-0.6,0-1.2-0.5-1.2-1.2c0-0.6,0.5-1.2,1.2-1.2c0.6,0,1.2,0.5,1.2,1.2
					C132.3,36.6,131.8,37.1,131.1,37.1z M131.1,35.3c-0.4,0-0.7,0.4-0.7,0.7c0,0.4,0.4,0.7,0.7,0.7s0.7-0.4,0.7-0.7
					C131.8,35.5,131.4,35.3,131.1,35.3z"/>
			</g>
			<g>
				<path class="st4" d="M66.3,78.2c-0.6,0-1.2-0.5-1.2-1.2c0-0.6,0.5-1.2,1.2-1.2s1.2,0.5,1.2,1.2C67.4,77.8,66.9,78.2,66.3,78.2z
					 M66.3,76.4c-0.4,0-0.7,0.4-0.7,0.7c0,0.4,0.4,0.7,0.7,0.7s0.7-0.4,0.7-0.7C66.9,76.8,66.6,76.4,66.3,76.4z"/>
			</g>
			<path class="st1" d="M83.2,20.3h-0.5v-0.5c0-0.2-0.1-0.4-0.4-0.4c-0.2,0-0.4,0.1-0.4,0.4v0.5h-0.5c-0.2,0-0.4,0.1-0.4,0.4
				c0,0.2,0.1,0.4,0.4,0.4H82v0.5c0,0.2,0.1,0.4,0.4,0.4c0.2,0,0.4-0.1,0.4-0.4V21h0.5c0.2,0,0.4-0.1,0.4-0.4
				C83.6,20.4,83.4,20.3,83.2,20.3z"/>
			<path class="st1" d="M115.8,45.5h-0.5V45c0-0.2-0.1-0.4-0.4-0.4s-0.4,0.1-0.4,0.4v0.5h-0.5c-0.2,0-0.4,0.1-0.4,0.4
				s0.1,0.4,0.4,0.4h0.5v0.5c0,0.2,0.1,0.4,0.4,0.4c0.2,0,0.4-0.1,0.4-0.4v-0.5h0.5c0.2,0,0.4-0.1,0.4-0.4
				C116.1,45.7,116,45.5,115.8,45.5z"/>
			<path class="st1" d="M57.2,63h-0.5v-0.5c0-0.2-0.1-0.4-0.4-0.4c-0.2,0-0.4,0.1-0.4,0.4V63h-0.5c-0.2,0-0.4,0.1-0.4,0.4
				s0.1,0.4,0.4,0.4H56v0.5c0,0.2,0.1,0.4,0.4,0.4c0.2,0,0.4-0.1,0.4-0.4v-0.5h0.5c0.2,0,0.4-0.1,0.4-0.4C57.5,63.1,57.4,63,57.2,63
				z"/>
			<path class="st1" d="M175.5,57H175v-0.5c0-0.2-0.1-0.4-0.4-0.4s-0.4,0.1-0.4,0.4V57h-0.5c-0.2,0-0.4,0.1-0.4,0.4
				c0,0.2,0.1,0.4,0.4,0.4h0.5v0.5c0,0.2,0.1,0.4,0.4,0.4s0.4-0.1,0.4-0.4v-0.5h0.5c0.2,0,0.4-0.1,0.4-0.4
				C175.7,57.1,175.6,57,175.5,57z"/>
			<path class="st1" d="M159.3,23.5h-0.5V23c0-0.2-0.1-0.4-0.4-0.4c-0.2,0-0.4,0.1-0.4,0.4v0.5h-0.5c-0.2,0-0.4,0.1-0.4,0.4
				s0.1,0.4,0.4,0.4h0.5v0.5c0,0.2,0.1,0.4,0.4,0.4c0.2,0,0.4-0.1,0.4-0.4v-0.5h0.5c0.2,0,0.4-0.1,0.4-0.4
				C159.6,23.6,159.5,23.5,159.3,23.5z"/>
			<path class="st4" d="M101.4,69.8H101v-0.5c0-0.2-0.1-0.4-0.4-0.4c-0.2,0-0.4,0.1-0.4,0.4v0.5h-0.5c-0.2,0-0.4,0.1-0.4,0.4
				s0.1,0.4,0.4,0.4h0.5V71c0,0.2,0.1,0.4,0.4,0.4s0.4-0.1,0.4-0.4v-0.5h0.5c0.2,0,0.4-0.1,0.4-0.4S101.7,69.8,101.4,69.8z"/>
			<path class="st4" d="M150.9,96.8h-0.5v-0.5c0-0.2-0.1-0.4-0.4-0.4c-0.2,0-0.4,0.1-0.4,0.4v0.5h-0.5c-0.2,0-0.4,0.1-0.4,0.4
				c0,0.2,0.1,0.4,0.4,0.4h0.5V98c0,0.2,0.1,0.4,0.4,0.4c0.2,0,0.4-0.1,0.4-0.4v-0.5h0.5c0.2,0,0.4-0.1,0.4-0.4
				C151.2,97,151.1,96.8,150.9,96.8z"/>
			<path class="st4" d="M75.9,97.2h-0.5v-0.5c0-0.2-0.1-0.4-0.4-0.4c-0.2,0-0.4,0.1-0.4,0.4v0.5h-0.5c-0.2,0-0.4,0.1-0.4,0.4
				c0,0.2,0.1,0.4,0.4,0.4h0.5v0.5c0,0.2,0.1,0.4,0.4,0.4c0.2,0,0.4-0.1,0.4-0.4v-0.5h0.5c0.2,0,0.4-0.1,0.4-0.4
				C76.1,97.3,76,97.2,75.9,97.2z"/>
		</g>
		<g>
			<path class="st1" d="M140,100h-19.7c-0.2,0-0.4-0.1-0.4-0.4c0-0.2,0.1-0.4,0.4-0.4H140c0.2,0,0.4,0.1,0.4,0.4
				C140.2,99.8,140.1,100,140,100z"/>
		</g>
		<g>
			<path class="st1" d="M116.4,13h-9.1c-0.2,0-0.4-0.1-0.4-0.4c0-0.2,0.1-0.4,0.4-0.4h9.1c0.2,0,0.4,0.1,0.4,0.4
				C116.8,12.8,116.6,13,116.4,13z"/>
		</g>
		<g>
			<path class="st1" d="M177.4,25.9h-9.1c-0.2,0-0.4-0.1-0.4-0.4s0.1-0.4,0.4-0.4h9.1c0.2,0,0.4,0.1,0.4,0.4S177.6,25.9,177.4,25.9z
				"/>
		</g>
		<g>
			<path class="st1" d="M156.4,90.5h-9.1c-0.2,0-0.4-0.1-0.4-0.4s0.1-0.4,0.4-0.4h9.1c0.2,0,0.4,0.1,0.4,0.4
				C156.8,90.4,156.6,90.5,156.4,90.5z"/>
		</g>
		<g>
			<path class="st1" d="M136.7,17.5h-16.1c-0.2,0-0.4-0.1-0.4-0.4c0-0.2,0.1-0.4,0.4-0.4h16.1c0.2,0,0.4,0.1,0.4,0.4
				C137.1,17.4,137,17.5,136.7,17.5z"/>
		</g>
		<g>
			<path class="st1" d="M66.6,101.8h-9.1c-0.2,0-0.4-0.1-0.4-0.4c0-0.2,0.1-0.4,0.4-0.4h9.1c0.2,0,0.4,0.1,0.4,0.4
				C67,101.5,66.8,101.8,66.6,101.8z"/>
		</g>
	</g>
</g>
</svg>
