<?xml version="1.0" encoding="utf-8"?>
<!-- Generator: Adobe Illustrator 22.0.0, SVG Export Plug-In . SVG Version: 6.00 Build 0)  -->
<svg version="1.1" id="Layer_1" xmlns="http://www.w3.org/2000/svg" xmlns:xlink="http://www.w3.org/1999/xlink" x="0px" y="0px"
	 viewBox="0 0 230 117" style="enable-background:new 0 0 230 117;" xml:space="preserve">
<style type="text/css">
	.st0{fill:#EF5350;}
	.st1{fill:#84BFB9;stroke:#FFFFFF;stroke-width:0.4119;stroke-miterlimit:10;}
	.st2{fill:#FFFFFF;}
	.st3{fill:#EDBE85;}
	.st4{fill:#758595;}
	.st5{fill:#54667A;}
	.st6{opacity:0.18;fill:#FFFFFF;enable-background:new    ;}
	.st7{fill:#F4F4F4;}
	.st8{fill:#D3795E;stroke:#FFFFFF;stroke-width:0.1602;stroke-miterlimit:10;}
	.st9{fill:#EC8F6E;stroke:#FFFFFF;stroke-width:0.2289;stroke-miterlimit:10;}
	.st10{fill:#EFCD6C;stroke:#FFFFFF;stroke-width:0.389;stroke-miterlimit:10;}
	.st11{fill:#53C3D1;stroke:#FFFFFF;stroke-width:0.1602;stroke-miterlimit:10;}
	.st12{fill:#2F766E;stroke:#FFFFFF;stroke-width:0.1602;stroke-miterlimit:10;}
	.st13{fill:#ECA853;stroke:#FFFFFF;stroke-width:0.1602;stroke-miterlimit:10;}
	.st14{fill:#C7E4E0;stroke:#FFFFFF;stroke-width:0.1602;stroke-miterlimit:10;}
	.st15{fill:#D7DF8A;stroke:#FFFFFF;stroke-width:0.4577;stroke-miterlimit:10;}
	.st16{fill:#F7C98B;}
	.st17{fill:#009DE1;}
</style>
<g id="Background">
	<rect class="st0" width="230" height="117"/>
</g>
<g id="Layer_2_1_">
	<path class="st1" d="M142.5,13.8l-3.8-1c-2-0.6-3.8,0.6-4.4,2.5v0.3c-0.6,2,0.6,3.8,2.5,4.4l1.3,0.3l-1.3,1.8l3.5-1.3l0.4,0.1
		c2,0.6,3.8-0.6,4.4-2.5v-0.3C145.6,16.4,144.5,14.4,142.5,13.8z"/>
	<circle class="st2" cx="136.9" cy="16.4" r="0.8"/>
	<circle class="st2" cx="139.7" cy="17.1" r="0.8"/>
	<circle class="st2" cx="142.4" cy="17.8" r="0.8"/>
	<path class="st3" d="M83.5,103l0.1-5.1c0,0-0.7-9.3-1-14.5c0,0-0.1-2.1,0.3-4c0,0,0.8-4.2,0.8-4.5c0,0,0.4-2.3,0.6-3.5
		c0,0,0.3-0.6-0.1-2c0,0-0.6-1.7,0.1-2.4c0,0,0.7-0.7,2,0c0,0,1,0.4,1.7,2.1c0,0,1.8,4.4,1.1,8.3c0,0,0,3.2,0.1,3.7l15.1-22.3
		c0,0,1.1-1.1,2.5-0.4c0,0,1.3,0.4,1.3,2.1c0,0,0.1,0.6-1.1,2.3L96.6,78.6l8.9,13.1c0,0-1.1,2.4-4.8,4.9c0,0-2.4,1.8-4.2,2.3
		l0.1,4.5L83.5,103z"/>
	<rect x="81.4" y="101.5" class="st2" width="17.2" height="3.4"/>
	<rect x="80.4" y="104.7" class="st4" width="19.3" height="12.4"/>
	<rect x="80.3" y="104.7" class="st5" width="9.6" height="12.4"/>
	<path class="st5" d="M136.4,43.4v51.5c0,0.8-0.3,1.7-0.8,2.3l0,0c-0.6,0.7-1.4,1-2.4,1H92.4c-1.7,0-3-1.3-3.2-2.8
		c0-0.1,0-0.1,0-0.3V43.3c0-0.1,0-0.1,0-0.3c0.1-0.7,0.4-1.3,0.8-1.7l0,0c0.6-0.7,1.4-1,2.4-1h40.8C135,40.2,136.4,41.8,136.4,43.4z
		"/>
	<rect x="92" y="44.7" class="st2" width="41.6" height="49.1"/>
	<path class="st6" d="M135.6,97.3L135.6,97.3c-0.6,0.7-1.4,1.1-2.4,1.1H92.4c-1.7,0-3-1.3-3.2-2.8c0-0.1,0-0.1,0-0.3V43.2
		c0-0.7,0.4-1.3,0.8-1.8l0,0L135.6,97.3z"/>
	<path class="st2" d="M116.1,96.8h-7.5c-0.4,0-0.8-0.4-0.8-0.8l0,0c0-0.4,0.4-0.8,0.8-0.8h7.5c0.4,0,0.8,0.4,0.8,0.8l0,0
		C117,96.4,116.5,96.8,116.1,96.8z"/>
	<path class="st7" d="M86.2,69.1l-1.4,0.4c-0.1,0-0.3,0-0.3-0.1l-0.3-0.8c0,0-0.1-0.7,0.6-1c0,0,0.7-0.3,1.1,0.3
		c0,0,0.1,0.3,0.3,0.8l0.1,0.3C86.3,69,86.3,69.1,86.2,69.1z"/>
	<path class="st8" d="M126.8,9.6l-7.3-1.1c-3.7-0.6-7.1,2-7.6,5.6v0.4c-0.6,3.7,2,7.1,5.6,7.6l2.4,0.3l-2.1,3.8l6.2-3.1l0.8,0.1
		c3.7,0.6,7.1-2,7.5-5.6v-0.4C133,13.4,130.5,10,126.8,9.6z"/>
	<circle class="st2" cx="117" cy="15.5" r="1.6"/>
	<circle class="st2" cx="122.2" cy="16.2" r="1.6"/>
	<circle class="st2" cx="127.4" cy="16.9" r="1.6"/>
	<path class="st9" d="M146.2,51.1l-4.5-2.4c-2.3-1.1-4.9-0.3-6.1,1.8l-0.1,0.3c-1.1,2.3-0.3,4.9,1.8,6.1l1.4,0.7l-2.1,2l4.7-0.6
		l0.4,0.3c2.3,1.1,4.9,0.3,6.1-1.8l0.1-0.3C149.3,55,148.4,52.3,146.2,51.1z"/>
	<circle class="st2" cx="138.4" cy="52.6" r="1"/>
	<circle class="st2" cx="141.6" cy="54.3" r="1"/>
	<circle class="st2" cx="144.8" cy="56" r="1"/>
	<path class="st10" d="M92.7,18.8l9.3-2.5c4.7-1.3,9.5,1.4,10.7,6.1l0.1,0.6c1.3,4.7-1.4,9.5-6.1,10.7l-3,0.8l3.2,4.5l-8.6-3.1
		l-1,0.3c-4.7,1.3-9.3-1.4-10.6-6.1l-0.1-0.6C85.3,24.7,88,20,92.7,18.8z"/>
	<circle class="st2" cx="106.5" cy="24.8" r="2"/>
	<circle class="st2" cx="99.9" cy="26.7" r="2"/>
	<circle class="st2" cx="93.3" cy="28.3" r="2"/>
	<path class="st11" d="M81.7,35.8c4.7-1.1,9.3,0.8,10.2,4.4c0.7,2.7-0.8,5.4-3.5,7.2c0.6,0.7,1.7,2,3.2,1.8c0,0-1.6,1.8-6.3-0.4
		c-0.1,0-0.1,0-0.3,0.1c-4.7,1.1-9.3-0.8-10.2-4.4C73.9,40.9,77,37.1,81.7,35.8z"/>
	<circle class="st2" cx="86.5" cy="41.2" r="1"/>
	<circle class="st2" cx="83.2" cy="42" r="1"/>
	<circle class="st2" cx="80" cy="42.9" r="1"/>
	<path class="st12" d="M129.5,34.6l-2,5.8c-0.4,1.1-1.6,1.7-2.7,1.3l-7.3-2.4c0,0-0.7-0.3-1.1,0.1l0,0c-0.7,0.6-1.8,1.3-4.1,0.6
		c-0.1,0-0.3-0.1,0-0.1c0.4-0.1,1.3-0.1,1.8-1.1v-0.1c0-0.1,0-0.4-0.3-0.6c-0.3-0.1-0.3-0.1-0.3-0.1c-0.6-0.1-1-0.6-1.1-1
		c-0.1-0.3-0.3-0.4-0.3-0.7c0-0.3,0-0.7,0.1-1l2-5.8c0.4-1.1,1.6-1.7,2.7-1.3l11.4,3.8C129.2,32.3,129.8,33.4,129.5,34.6z"/>
	<rect x="121" y="27.6" transform="matrix(0.3129 -0.9498 0.9498 0.3129 52.2176 138.045)" class="st2" width="1" height="10.6"/>
	
		<rect x="120.2" y="30.2" transform="matrix(0.3129 -0.9498 0.9498 0.3129 49.2321 139.0245)" class="st2" width="1" height="10.6"/>
	<path class="st13" d="M70.1,15.9l-2.4,5.6c-0.4,1.1,0.1,2.3,1.1,2.7l7.1,3c0,0,0.7,0.1,0.8,0.8l0,0c0.1,0.8,0.6,2.3,2.7,3.1
		c0.1,0,0.3,0,0.1-0.1c-0.3-0.4-1-1-0.6-2.1v-0.1c0-0.1,0.3-0.3,0.6-0.3c0.3,0.1,0.3,0.1,0.3,0.1c0.6,0.1,1,0.3,1.6,0
		c0.3-0.1,0.4-0.1,0.7-0.4c0.3-0.1,0.4-0.4,0.6-0.8l2.4-5.6c0.4-1.1-0.1-2.3-1.1-2.8l-11.1-4.5C71.8,14.2,70.5,14.8,70.1,15.9z"/>
	<rect x="76.3" y="15.3" transform="matrix(0.3816 -0.9243 0.9243 0.3816 28.4616 83.6933)" class="st2" width="1" height="10.6"/>
	<rect x="75.1" y="17.9" transform="matrix(0.3816 -0.9243 0.9243 0.3816 25.3747 84.2328)" class="st2" width="1" height="10.6"/>
	<path class="st14" d="M77.9,56l1,4.5c0.1,0.8,1,1.4,1.8,1.1l5.6-1.3c0,0,0.6-0.1,0.8,0.3l0,0c0.4,0.6,1.3,1.1,3,0.7
		c0.1,0,0.1-0.1,0-0.1c-0.3-0.1-1-0.1-1.3-1c0,0,0,0,0-0.1s0-0.3,0.3-0.4c0.3,0,0.3,0,0.3,0c0.4-0.1,0.7-0.3,1-0.6
		c0.1-0.1,0.1-0.3,0.3-0.6c0-0.3,0.1-0.4,0-0.7l-1-4.5c-0.1-0.8-1-1.4-1.8-1.1l-8.7,2C78.2,54.3,77.6,55.2,77.9,56z"/>
	<rect x="80" y="55" transform="matrix(0.9757 -0.2193 0.2193 0.9757 -10.093 19.7546)" class="st2" width="7.9" height="0.7"/>
	<rect x="80.3" y="57" transform="matrix(0.9757 -0.2193 0.2193 0.9757 -10.5172 19.8761)" class="st2" width="7.9" height="0.7"/>
	<path class="st15" d="M154.8,22.6l2.8,8.7c0.6,1.7-0.4,3.4-2.1,4l-10.9,3.4c0,0-1.1,0.1-1.3,1.3c0,0,0,0,0,0.1
		c-0.3,1.3-1.1,3.2-4.4,4.2c-0.1,0-0.4,0-0.3-0.1c0.4-0.6,1.6-1.3,1.1-3.1v-0.1c0-0.1-0.4-0.6-0.8-0.4c-0.4,0.1-0.4,0.1-0.4,0.1
		c-0.7,0.3-1.6,0.1-2.3-0.1c-0.3-0.1-0.7-0.4-1-0.7c-0.3-0.3-0.6-0.7-0.8-1.3l-2.8-8.7c-0.6-1.7,0.4-3.4,2.1-4l16.9-5.4
		C152.5,20,154.3,20.9,154.8,22.6z"/>
	
		<rect x="136.3" y="27.5" transform="matrix(0.9529 -0.3033 0.3033 0.9529 -1.6406 45.0206)" class="st2" width="15.7" height="0.6"/>
	
		<rect x="137.6" y="31.5" transform="matrix(0.9529 -0.3033 0.3033 0.9529 -2.777 45.5924)" class="st2" width="15.7" height="0.6"/>
	<path class="st16" d="M115.1,81.3c0.4,0.7,1,1.1,1.6,1.6L117,83c1.4,0.8,2.5,2,3.4,3.2l0,0c0.4,0.6,0.8,1.3,1.1,2
		c0.8,1.8,3.2,5.1,5.6,6.3c0,0,2.8,1.6,4.8,2.3c0.6,0.1,0.6,1,1.4,2.7l0.6,1.1l11.4-5.2l-0.7-1.3l-0.8-1.4c-0.3-0.4-0.4-1-0.6-1.6
		c-0.1-1.6-0.7-4.5-1-6.3c0,0-1.1-8.3-1.8-10.2c0,0-1.7-5.2-3.1-7.1c-0.1-0.3-0.4-0.4-0.7-0.6l0,0c-0.6-0.3-1.4,0.1-1.3,0.8
		c0,0.1,0,0.1,0,0.3c0,0.3,0.1,0.4,0.1,0.7c0.4,1.4,2.3,6.9,2,6.8c0,0-0.1-0.1-0.3-0.6c-0.8-2-4.4-9.3-6.2-11
		c-0.3-0.1-0.4-0.3-0.8-0.4c-0.4-0.1-1.1,0-1.3,1.1c0,0-0.1,0.8,0.7,2.3l0.1,0.1c0.3,0.6,1.4,2.7,2.5,4.7c0.3,0.4,0.6,1,0.7,1.6
		c0.3,0.7,0.6,1.7,0.6,2l-3-4.5c0,0-3.8-5.8-4.5-6.6c0,0-1.6-2.1-3-0.3c0,0-0.8,1.3,0.4,3.1l3,4.5c0,0,3,4.7,3.4,5.8
		c0,0-1.1-0.6-2.5-3.1c-1.1-1.8-3.2-4.7-3.2-4.7l-2.3-3c0,0-0.7-1.1-2-0.4c0,0-1.4,0.7-0.4,2.4l1.4,2.1c0,0,1.1,1.8,2.1,3.5
		c0.8,1.6,1.6,3.1,1.8,4.8c0.3,1.1,0.4,2.4,0.4,3c0,0,0,1.3-0.4,2c-0.3,0.4-0.7,0.4-1,0l-1.7-2.1c-1.1-1.4-2.3-2.1-4-2.5
		c-0.8-0.3-2.1-0.3-3-0.1c-0.3,0-0.4,0.1-0.6,0.3C114.7,79.6,114.4,80.1,115.1,81.3z"/>
	<path class="st7" d="M137.4,68.1l-1,0.4c-0.1,0-0.1,0-0.1-0.1l-0.3-0.6c0,0-0.1-0.4,0.3-0.7c0,0,0.4-0.3,0.8,0c0,0,0.1,0.1,0.3,0.4
		l0.1,0.1C137.6,68,137.6,68,137.4,68.1z"/>
	<path class="st7" d="M131.5,65.2l-1.3,0.6c-0.1,0-0.3,0-0.3-0.1l-0.3-0.7c0,0-0.1-0.6,0.4-1c0,0,0.6-0.3,1.1,0.1
		c0,0,0.1,0.1,0.3,0.7l0.1,0.3C131.8,65,131.6,65.2,131.5,65.2z"/>
	<path class="st7" d="M126,64.9l-1.4,0.8c-0.1,0.1-0.3,0-0.3-0.1l-0.4-0.8c0,0-0.3-0.7,0.4-1.3c0,0,0.6-0.4,1.3,0
		c0,0,0.3,0.1,0.4,0.7l0.1,0.3C126.1,64.6,126,64.8,126,64.9z"/>
	<path class="st7" d="M122.3,67.7l-1.4,0.8c-0.1,0.1-0.3,0-0.3-0.1l-0.4-0.8c0,0-0.3-0.7,0.4-1.3c0,0,0.6-0.4,1.3,0
		c0,0,0.3,0.1,0.6,0.7l0.1,0.3C122.5,67.4,122.5,67.6,122.3,67.7z"/>
	<path class="st7" d="M117.7,80.7l-1.1,1.3c-0.1,0.1-0.3,0.1-0.4,0l-0.7-0.6c0,0-0.6-0.6,0-1.3c0,0,0.4-0.6,1.1-0.4
		c0,0,0.3,0.1,0.7,0.6l0.3,0.1C117.8,80.6,117.8,80.7,117.7,80.7z"/>
	<rect x="131.1" y="95.9" transform="matrix(0.9152 -0.403 0.403 0.9152 -27.4986 64.356)" class="st2" width="16.1" height="3.2"/>
	<polygon class="st4" points="157.9,117.1 138,117.1 131.5,102.4 139.8,98.8 148.1,95.1 	"/>
	<polygon class="st5" points="147.9,117.1 138,117.1 131.5,102.4 131.5,102.4 139.8,98.8 	"/>
	<g>
		<path id="XMLID_453_" class="st17" d="M98.3,52.3c-0.1-0.1-0.4,0-0.4,0.1s0,0.3,0,0.4c0.3,0.6,0.4,1.1,0.7,1.7
			c0.3,0.4,0.7,0.4,1,0c0.1-0.1,0.3-0.4,0.4-0.7c0,0,0.1-0.1,0.3-0.1l0.1,0.1c0,0.4,0,0.8,0,1.1c-0.4,0.1-2.8,0.4-3.5,0.3
			c-0.1-1-0.1-2.1-0.3-3.1c0.3,0,0.4-0.1,0.6-0.1c0.7,0,1.3-0.1,1.8-0.3c0.3,0,0.7,0,1,0c0.1,0.1,0.1,0.3,0,0.4
			c-0.3,0.4-0.6,0.8-1,1.4c-0.3,0-0.3-0.3-0.3-0.4C98.8,52.8,98.6,52.5,98.3,52.3z"/>
		<path id="XMLID_452_" class="st17" d="M99.9,62.5c0.3,0,0.4,0,0.6-0.1c0.1-0.1,0.1-0.3,0.3-0.4c0.1-0.1,0.3-0.4,0.4-0.7
			c0,0,0-0.1,0.1-0.3c0.3,0.7,0.1,1.3,0.1,2c-0.1,0-0.3,0-0.4,0.1c-0.4,0-1,0-1.4,0s-1,0-1.4,0c-0.3,0-0.4,0-0.7,0
			c-0.3-0.4,0-0.8-0.1-1.1c0-0.4,0-0.8-0.1-1.1c0-0.4-0.1-0.8,0-1.3c0.1,0,0.3,0,0.4,0c0.8,0,1.7-0.1,2.5-0.1c0.3,0,0.6,0.1,0.7,0.3
			c-0.3,0.4-0.4,0.8-0.8,1.3c-0.3-0.4-0.4-0.8-0.7-1C99,60,99,60.1,99,60.2c0,0.1,0,0.3,0,0.4c0.1,0.6,0.4,1.3,0.6,1.8
			C99.6,62.4,99.6,62.5,99.9,62.5z"/>
		<path id="XMLID_356_" d="M106.7,53.9c-0.4,0-0.8,0-1.1,0c0,0-0.1,0-0.3-0.1c0.7-0.1,1.4-0.3,2.3-0.3c1.4,0,2.8-0.1,4.2-0.1
			c0.6,0,1.1,0,1.7-0.1c2.4-0.1,4.8-0.1,7.2-0.4c0.7,0,1.6-0.1,2.4-0.1c1,0,2-0.1,3-0.1c0.3,0,0.6,0,0.7,0.1c0,0,0,0.1,0,0.3h-0.1
			c-0.1,0-0.3,0-0.4,0c-1.8,0.1-3.5,0.1-5.4,0.3c-0.7,0-1.6,0.1-2.4,0.1c-2.1,0.1-4.4,0.1-6.5,0.3c-1.1,0-2.4,0-3.5,0
			C107.8,53.7,107.1,53.9,106.7,53.9z"/>
		<path id="XMLID_355_" d="M107.4,62.9c-0.4,0-0.7,0-1.1,0c-0.1,0-0.3,0-0.4-0.1c0.1-0.1,0.3-0.1,0.6-0.1c2.1-0.3,4.2-0.3,6.5-0.4
			c2.3,0,4.5-0.1,6.8-0.3c1.8,0,3.7-0.1,5.6-0.4c0.3,0,0.4,0,0.7-0.1c0.3,0,0.3,0.1,0.3,0.3c0,0.1,0,0.3-0.3,0.4
			c-0.3,0-0.4,0.1-0.7,0.1c-1.6,0.1-3.1,0.3-4.7,0.3c-2.4,0-4.7,0.1-6.9,0.1c-1.4,0-2.7,0-4.1,0C108.8,62.8,108.1,62.9,107.4,62.9z"
			/>
		<path id="XMLID_354_" d="M111.3,59.8c-1.3,0-2.5,0-3.7,0.1c-0.6,0-1.1,0-1.7,0.1c-0.1,0-0.3,0-0.4,0c2-0.4,4-0.6,5.8-0.6
			c2.8,0,5.5-0.1,8.3-0.1c0.8,0,1.7-0.1,2.5-0.1c1.6,0,3,0,4.5,0c0.3,0,0.4,0,0.6,0.1c0.1,0,0.1,0.3,0,0.3c-0.1,0-0.3,0.1-0.4,0.1
			c-0.3,0-0.4,0-0.7,0c-1.6,0-3,0-4.5,0c-1.4,0-2.7,0.1-4,0.1C115.5,59.8,113.4,59.8,111.3,59.8z"/>
		<path id="XMLID_353_" d="M115.7,51.6c-3.5,0.1-6.9,0.3-10.4,0.1c-0.1,0-0.3,0-0.6-0.1c0.3,0,0.4-0.1,0.6-0.1c0.3,0,0.6,0,1,0
			c2.1,0,4.2,0,6.3-0.1c1.8,0,3.7-0.1,5.6-0.3c2.4-0.1,4.8-0.3,7.2-0.3c0.4,0,0.7,0,1.1,0c0.3,0,0.4,0,0.7,0l0.1,0.1l-0.1,0.1
			c-0.1,0-0.4,0-0.6,0.1c-0.7,0-1.4,0-2.1,0c-2.1,0-4.2,0.1-6.3,0.1C117.4,51.5,116.5,51.6,115.7,51.6z"/>
		<path id="XMLID_350_" d="M104.4,47.1c0.1,0.1,0.1,0.3,0.1,0.4s-0.1,0.4-0.3,0.6c-1,1.3-2,2.7-2.8,4.1c-0.3,0.3-0.3,0.6-0.3,0.8
			c0.1,0.7,0.1,1.4,0.3,2.3c0,0.4-0.1,0.6-0.6,0.6c-0.3,0-0.7,0-1,0c-1,0-1.8,0.1-2.8,0.1c-0.7,0-0.7-0.1-0.8-0.7
			c0-0.4,0-0.7-0.1-1.1c0-0.4,0-1-0.1-1.4c0-0.3,0-0.6,0-0.8c0-0.4,0.3-0.6,0.7-0.7c0.1,0,0.3,0,0.4,0c0.6,0,1.3-0.1,1.8-0.1
			s1.1-0.1,1.8,0.1c0.3-0.4,0.6-0.8,0.8-1.3c0.6-0.8,1.1-1.7,1.8-2.5c0.1-0.1,0.3-0.3,0.4-0.3C104.1,47,104.3,47,104.4,47.1z
			 M100.6,54.9c0-0.4,0-0.8,0-1.1c0,0,0,0-0.1-0.1c0,0-0.1,0.1-0.3,0.1c-0.1,0.1-0.3,0.4-0.4,0.7c-0.3,0.4-0.7,0.4-1,0
			c-0.3-0.6-0.4-1.1-0.7-1.7c0-0.1,0-0.3,0-0.4s0.3-0.3,0.4-0.1c0.3,0.1,0.4,0.4,0.6,0.7c0,0.1,0.1,0.4,0.3,0.4
			c0.3-0.4,0.6-0.8,1-1.4c0.1-0.1,0.1-0.3,0-0.4c-0.3,0-0.6,0-1,0c-0.7,0-1.3,0.3-1.8,0.3c-0.1,0-0.4,0.1-0.6,0.1
			c0.1,1,0.1,2.1,0.3,3.1C97.6,55.3,100.2,55,100.6,54.9z"/>
		<path id="XMLID_342_" d="M103.7,56c0.4,0.6,0.4,0.6,0.1,1c-0.6,0.8-1.1,1.7-1.7,2.5c-0.1,0.1-0.1,0.3-0.1,0.6c0,1,0.1,2.1,0.1,3.1
			c0,0.4-0.1,0.6-0.6,0.6s-0.8,0-1.1,0c-0.6,0-1.3,0-1.8,0c-0.4,0-0.8,0-1.1,0c-0.6,0-0.7-0.1-0.7-0.7c0-0.8-0.1-1.6-0.1-2.4
			c0-0.4,0-0.8,0-1.1c0-0.1,0-0.1,0-0.3c0-0.1,0.1-0.4,0.4-0.4c0.1,0,0.3,0,0.4-0.1c0.8,0,1.7-0.1,2.5-0.1c0.4,0,0.8,0,1.3,0.1
			c0.3,0.1,0.3,0,0.6-0.1c0.4-0.7,0.8-1.3,1.3-2C103.1,56.1,103.1,56.1,103.7,56z M101.3,62.9c0-0.6,0-1.3-0.1-2
			c-0.1,0.1-0.1,0.1-0.1,0.3c-0.1,0.1-0.3,0.4-0.4,0.7c-0.1,0.1-0.1,0.4-0.3,0.4c-0.1,0.1-0.3,0.1-0.6,0.1c-0.3,0-0.3-0.1-0.3-0.4
			c-0.1-0.6-0.3-1.3-0.6-1.8c0-0.1,0-0.3,0-0.4s0-0.3,0.3-0.3c0.4,0.3,0.6,0.7,0.7,1c0.3-0.4,0.6-0.8,0.8-1.3
			c-0.3-0.1-0.4-0.3-0.7-0.3c-0.8,0.1-1.7,0.1-2.5,0.1c-0.1,0-0.3,0-0.4,0c-0.1,0.4,0,0.8,0,1.3c0,0.4,0,0.8,0.1,1.1
			c0.1,0.3,0,0.8,0.1,1.1c0.3,0,0.4,0,0.7,0c0.4,0,0.8,0,1.4,0c0.4,0,1,0,1.4,0C101,62.9,101.2,62.9,101.3,62.9z"/>
	</g>
</g>
</svg>
