<?xml version="1.0" encoding="utf-8"?>
<!-- Generator: Adobe Illustrator 22.0.0, SVG Export Plug-In . SVG Version: 6.00 Build 0)  -->
<svg version="1.1" id="Layer_1" xmlns="http://www.w3.org/2000/svg" xmlns:xlink="http://www.w3.org/1999/xlink" x="0px" y="0px"
	 viewBox="0 0 230 117" style="enable-background:new 0 0 230 117;" xml:space="preserve">
<style type="text/css">
	.st0{fill:#EF5350;}
	.st1{fill:#B2D8DE;}
	.st2{fill:#F8B392;}
	.st3{fill:#F0FAFC;}
	.st4{fill:#096385;}
	.st5{fill:#08426A;}
	.st6{fill:#0174A3;}
	.st7{fill:#0B5975;}
	.st8{fill:#0A6D94;}
	.st9{fill:#333333;}
	.st10{fill:#808080;}
</style>
<g id="Background">
	<rect class="st0" width="230" height="117"/>
</g>
<g id="Layer_2_1_">
	<g>
		<path class="st1" d="M115,104c4.7,0,9.3-0.1,13.9-0.7V61.4l-1.6-0.7l-1.8-0.8L115,65.5V104z"/>
		<path class="st1" d="M115,104c-4.7,0-9.3-0.1-13.9-0.7V61.4l1.6-0.7l2-0.8l10.4,6.2V104H115z"/>
		<polygon class="st2" points="115,64.6 118.4,64.6 116.9,69.9 115,69.9 115,69.9 113.1,69.9 111.6,64.6 		"/>
		<polygon class="st2" points="116.9,69.7 118.4,90.2 115,96.2 111.6,90.2 113.1,69.7 		"/>
		<path class="st3" d="M115,64.6l-5.8,5.7l-6.5-9.6l2.4-1.4C107.6,61.9,110.8,63.5,115,64.6z"/>
		<path class="st4" d="M115,95.7l-14.3-34.2c-13,5.5-21.2,9.9-22.7,26.2c5.8,10.4,19.9,19.1,36.9,19.1V95.7H115z"/>
		<path class="st5" d="M89.7,99.6c0.5,0.4,1.1,0.7,1.6,0.9v-6.8L89.7,99.6z"/>
		<polygon class="st6" points="115,95.7 115,104.4 101.5,80.3 105.5,75.4 99.4,73.4 96.7,63.3 103.4,60.4 		"/>
		<path class="st3" d="M115,64.6l5.8,5.7l6.5-9.6l-2.4-1.4C122.4,61.9,119.2,63.5,115,64.6z"/>
		<path class="st7" d="M115,95.7l14.3-34.2c13,5.5,21.2,9.9,22.7,26.2c-5.8,10.4-19.9,19.1-36.9,19.1V95.7H115z"/>
		<path class="st5" d="M140.3,99.6c-0.5,0.4-1.1,0.7-1.6,0.9v-6.8L140.3,99.6z"/>
		<polygon class="st8" points="115,95.7 115,104.4 128.4,80.3 124.5,75.4 130.6,73.4 133.3,63.3 126.9,60.4 		"/>
		<g>
			<path class="st9" d="M119.5,60.1c1.4-0.3,2.7-0.5,3.9-1.1c-0.9-2.2-0.3-4.7,1.9-6c2-1.2,4.7-0.5,6.1,1.4c1.1-0.9,2-1.9,2.8-2.8
				c-1.9-1.4-2.6-3.9-1.4-6.1c1.2-2,3.8-2.8,6-1.9c0.4-1.2,0.8-2.6,1.1-3.9c-2.3-0.3-4.2-2.2-4.2-4.6s1.9-4.3,4.2-4.6
				c-0.3-1.4-0.5-2.7-1.1-3.9c-2.2,0.9-4.7,0.3-6-1.9c-1.2-2-0.5-4.7,1.4-6.1c-0.9-1.1-1.9-2-2.8-2.8c-1.4,1.9-3.9,2.6-6.1,1.4
				c-2-1.2-2.8-3.8-1.9-6c-1.2-0.4-2.6-0.8-3.9-1.1c-0.3,2.3-2.2,4.2-4.6,4.2c-2.4,0-4.3-1.9-4.6-4.2c-1.4,0.3-2.7,0.5-3.9,1.1
				c0.9,2.2,0.3,4.7-1.9,6c-2,1.2-4.7,0.5-6.1-1.4c-1.1,0.9-2,1.9-2.8,2.8c1.9,1.4,2.6,3.9,1.4,6.1c-1.2,2-3.8,2.8-6,1.9
				c-0.4,1.2-0.8,2.6-1.1,3.9c2.3,0.3,4.2,2.2,4.2,4.6s-1.9,4.3-4.2,4.6c0.3,1.4,0.5,2.7,1.1,3.9c2.2-0.9,4.7-0.3,6,1.9
				c1.2,2,0.5,4.7-1.4,6.1c0.9,1.1,1.9,2,2.8,2.8c1.4-1.9,3.9-2.6,6.1-1.4c2,1.2,2.8,3.8,1.9,6c1.2,0.4,2.6,0.8,3.9,1.1
				c0.3-2.3,2.2-4.2,4.6-4.2C117.3,55.9,119.3,57.8,119.5,60.1L119.5,60.1z M114.9,46.5c-6.2,0-11.4-5.1-11.4-11.4
				s5.1-11.4,11.4-11.4s11.4,5.1,11.4,11.4C126.2,41.5,121.2,46.5,114.9,46.5z"/>
			<path class="st10" d="M119.6,60.1c1.4-0.3,2.7-0.5,3.9-1.1c-0.9-2.2-0.3-4.7,1.9-6c2-1.2,4.7-0.5,6.1,1.4c1.1-0.9,2-1.9,2.8-2.8
				c-1.9-1.4-2.6-3.9-1.4-6.1c1.2-2,3.8-2.8,6-1.9c0.4-1.2,0.8-2.6,1.1-3.9c-2.3-0.3-4.2-2.2-4.2-4.6s1.9-4.3,4.2-4.6
				c-0.3-1.4-0.5-2.7-1.1-3.9c-2.2,0.9-4.7,0.3-6-1.9c-1.2-2-0.5-4.7,1.4-6.1c-0.9-1.1-1.9-2-2.8-2.8c-1.4,1.9-3.9,2.6-6.1,1.4
				c-2-1.2-2.8-3.8-1.9-6c-1.2-0.4-2.6-0.8-3.9-1.1c-0.3,2.3-2.2,4.2-4.6,4.2v9.5l0,0c6.2,0,11.4,5.1,11.4,11.4s-5.1,11.4-11.4,11.4
				l0,0v9.5C117.4,55.9,119.3,57.8,119.6,60.1z"/>
		</g>
	</g>
</g>
</svg>
